<svg xmlns="http://www.w3.org/2000/svg" viewBox="0 0 301.43 398.91"><defs><style>.cls-1,.cls-12,.cls-14,.cls-5{isolation:isolate;}.cls-16,.cls-2{fill:#cfd0d2;}.cls-3{fill:#fff;}.cls-12,.cls-14,.cls-4,.cls-5{opacity:0.8;}.cls-21,.cls-5{fill:#5ac5d2;}.cls-6{fill:#fff6d5;}.cls-7{fill:#eee6c8;}.cls-8{fill:#5f96b6;}.cls-9{fill:#f5f5f6;}.cls-10{fill:#a5a8aa;}.cls-11{fill:#bc1f2d;}.cls-12{fill:#677b9f;}.cls-13{fill:#cce4f3;}.cls-14{fill:#c57c72;}.cls-15{fill:#c9bedd;}.cls-16{mix-blend-mode:multiply;}.cls-17{fill:#faf0ed;}.cls-18{fill:#e8b797;}.cls-19,.cls-20,.cls-21{opacity:0.8;}.cls-20{fill:#f9af3f;}</style></defs><g class="cls-1"><g id="Layer_2" data-name="Layer 2"><g id="Layer_1-2" data-name="Layer 1"><g id="Layer_2-2" data-name="Layer 2"><g id="Layer_1-2-2" data-name="Layer 1-2"><path class="cls-2" d="M54.89,103.83,33.3,106.3l2.42,22,21.6-2.47Zm-20.43,3.9a.54.54,0,0,1,.46-.59.52.52,0,0,1,.57.46h0a.54.54,0,0,1-.46.59.52.52,0,0,1-.57-.47Zm.26,2.4a.53.53,0,0,1,.46-.59.52.52,0,0,1,.57.46h0a.52.52,0,0,1-1,.38.58.58,0,0,1,0-.26Zm.28,2.39a.51.51,0,0,1,.43-.58h0a.53.53,0,0,1,.13,1h0a.52.52,0,0,1-.57-.45Zm.26,2.4a.52.52,0,0,1,.45-.58h0a.51.51,0,0,1,.57.44v0a.52.52,0,1,1-1,.13h0Zm.26,2.4a.54.54,0,0,1,.46-.59.53.53,0,0,1,.58.47.53.53,0,1,1-1.05.13h0Zm.27,2.4a.46.46,0,1,1,.87,0,.56.56,0,0,1-.3.37.51.51,0,0,1-.58-.41Zm.26,2.39a.52.52,0,0,1,.45-.58h0a.51.51,0,0,1,.57.44v0a.51.51,0,0,1-.43.58h0a.52.52,0,0,1-.62-.42.09.09,0,0,1,0,0Zm.27,2.4a.52.52,0,0,1,.47-.57.52.52,0,1,1,.1,1,.53.53,0,0,1-.58-.46h0Zm.83,2.87a.52.52,0,0,1-.57-.47h0a.53.53,0,0,1,.46-.59.52.52,0,0,1,.57.46h0a.54.54,0,0,1-.47.59Z"/><path class="cls-3" d="M54.49,103.49,32.89,106l2.43,22,21.59-2.47Zm-20.44,3.9a.52.52,0,0,1,.45-.58h0a.51.51,0,0,1,.57.44v0a.53.53,0,0,1-.44.59h0A.53.53,0,0,1,34.05,107.39Zm.27,2.4a.52.52,0,0,1,.3-.67.51.51,0,0,1,.67.29.57.57,0,0,1,0,.26.54.54,0,0,1-.46.59A.53.53,0,0,1,34.32,109.79Zm.26,2.4a.53.53,0,0,1,.46-.58.52.52,0,0,1,.11,1h0a.52.52,0,0,1-.57-.45Zm.26,2.39a.53.53,0,0,1,.46-.58.52.52,0,0,1,.58.45h0a.52.52,0,0,1-1,.38.58.58,0,0,1,0-.26Zm.27,2.4a.54.54,0,0,1,.46-.59.52.52,0,0,1,.57.46h0a.52.52,0,0,1-1,.16Zm.26,2.4a.53.53,0,0,1,.46-.59.52.52,0,0,1,.59.46.53.53,0,1,1-1.05.13Zm.27,2.39a.51.51,0,0,1,.43-.58h0a.54.54,0,0,1,.42.62.55.55,0,0,1-.3.38A.52.52,0,0,1,35.64,121.77Zm.26,2.4a.52.52,0,0,1,.45-.58h0a.51.51,0,0,1,.57.44v0a.53.53,0,0,1-.46.59.52.52,0,0,1-.57-.47Zm.84,2.87a.53.53,0,0,1-.58-.47.54.54,0,0,1,.46-.59.53.53,0,0,1,.58.47.54.54,0,0,1-.46.57Z"/><g class="cls-4"><path class="cls-5" d="M35.35,105.23c.07.29.13.59.19.89l.18,1,8.57-1.66a7.45,7.45,0,0,1-.19-.94,1.24,1.24,0,0,0-.09-.38.49.49,0,0,1,0-.12v-.11a.54.54,0,0,0,0-.18,1.86,1.86,0,0,1-.13-.46l-8.53,1.64C35.35,105,35.35,105.12,35.35,105.23Z"/></g><path class="cls-2" d="M194.89,20.83,173.3,23.3l2.42,22,21.6-2.47Zm-20.43,3.9a.54.54,0,0,1,.46-.59.52.52,0,0,1,.57.46h0a.54.54,0,0,1-.46.59.52.52,0,0,1-.57-.47Zm.26,2.4a.53.53,0,0,1,.46-.59.52.52,0,0,1,.57.46h0a.52.52,0,0,1-1,.38.58.58,0,0,1,0-.26Zm.28,2.39a.51.51,0,0,1,.43-.58h0a.53.53,0,0,1,.13,1h0a.52.52,0,0,1-.57-.45Zm.26,2.4a.52.52,0,0,1,.45-.58h0a.51.51,0,0,1,.57.44v0a.52.52,0,1,1-1,.13h0Zm.26,2.4a.54.54,0,0,1,.46-.59.53.53,0,0,1,.58.47.53.53,0,1,1-1.05.13h0Zm.27,2.4a.46.46,0,1,1,.87,0,.56.56,0,0,1-.3.37.51.51,0,0,1-.58-.41Zm.26,2.39a.52.52,0,0,1,.45-.58h0a.51.51,0,0,1,.57.44v0a.51.51,0,0,1-.43.58h0a.52.52,0,0,1-.62-.42.09.09,0,0,1,0,0Zm.27,2.4a.52.52,0,0,1,.47-.57.52.52,0,0,1,.1,1,.53.53,0,0,1-.58-.46h0Zm.83,2.87a.52.52,0,0,1-.57-.47h0a.53.53,0,0,1,.46-.59.52.52,0,0,1,.57.46h0a.54.54,0,0,1-.47.59Z"/><path class="cls-3" d="M194.49,20.49,172.89,23l2.43,22,21.59-2.47Zm-20.44,3.9a.52.52,0,0,1,.45-.58h0a.51.51,0,0,1,.57.44v0a.53.53,0,0,1-.44.59h0A.53.53,0,0,1,174.05,24.39Zm.27,2.4a.52.52,0,0,1,.3-.67.51.51,0,0,1,.67.29.57.57,0,0,1,0,.26.54.54,0,0,1-.46.59A.53.53,0,0,1,174.32,26.79Zm.26,2.4a.52.52,0,1,1,1-.12.51.51,0,0,1-.46.58h0a.52.52,0,0,1-.57-.45Zm.26,2.39a.53.53,0,0,1,.46-.58.52.52,0,0,1,.58.45h0a.52.52,0,0,1-1,.38.58.58,0,0,1,0-.26Zm.27,2.4a.54.54,0,0,1,.46-.59.52.52,0,0,1,.57.46h0a.52.52,0,0,1-1,.16Zm.26,2.4a.53.53,0,0,1,.46-.59.52.52,0,0,1,.59.46.53.53,0,1,1-1,.13Zm.27,2.39a.51.51,0,0,1,.43-.58h0a.54.54,0,0,1,.42.62.55.55,0,0,1-.3.38A.52.52,0,0,1,175.64,38.77Zm.26,2.4a.52.52,0,0,1,.45-.58h0a.51.51,0,0,1,.57.44v0a.53.53,0,0,1-.46.59.52.52,0,0,1-.57-.47Zm.84,2.87a.53.53,0,0,1-.58-.47.54.54,0,0,1,.46-.59.53.53,0,0,1,.58.47.54.54,0,0,1-.46.57Z"/><g class="cls-4"><path class="cls-5" d="M175.35,22.23c.07.29.13.59.19.89l.18,1,8.57-1.66a7.45,7.45,0,0,1-.19-.94,1.24,1.24,0,0,0-.09-.38.49.49,0,0,1,0-.12v-.11a.54.54,0,0,0,0-.18,1.86,1.86,0,0,1-.13-.46l-8.53,1.64C175.35,22,175.35,22.12,175.35,22.23Z"/></g><path class="cls-2" d="M299,105.42l-21.6,2.47,2.43,22,21.6-2.47Zm-20.43,3.9a.52.52,0,0,1,.44-.59h0a.53.53,0,0,1,.58.47.54.54,0,0,1-.46.59.52.52,0,0,1-.57-.47Zm.26,2.4a.53.53,0,0,1,.46-.58.52.52,0,0,1,.11,1h0a.52.52,0,0,1-.57-.45Zm.26,2.39a.53.53,0,0,1,.46-.58.52.52,0,0,1,.58.45h0a.52.52,0,0,1-1,.38.58.58,0,0,1,0-.26Zm.27,2.4a.54.54,0,0,1,.46-.59.52.52,0,0,1,.57.46h0a.54.54,0,0,1-.46.59.52.52,0,0,1-.57-.47Zm.26,2.4a.54.54,0,0,1,.46-.59.52.52,0,0,1,.57.46h0a.52.52,0,0,1-1,.38.58.58,0,0,1,0-.26Zm.27,2.39a.51.51,0,0,1,.43-.58h0a.53.53,0,0,1,.58.47.52.52,0,0,1-1,.37.57.57,0,0,1,0-.26Zm.26,2.4a.52.52,0,0,1,.45-.58h0a.51.51,0,0,1,.57.44v0a.53.53,0,0,1-.46.59.52.52,0,0,1-.57-.47Zm.26,2.4a.54.54,0,0,1,.46-.59.53.53,0,0,1,.58.47.54.54,0,0,1-.46.59.53.53,0,0,1-.58-.47Zm.84,2.86a.52.52,0,0,1-.57-.45h0a.46.46,0,1,1,.87,0,.56.56,0,0,1-.3.37Z"/><path class="cls-3" d="M298.59,105.08,277,107.55l2.42,22,21.6-2.47ZM278.16,109a.54.54,0,0,1,.46-.59.52.52,0,0,1,.57.46h0a.54.54,0,0,1-.46.59.52.52,0,0,1-.57-.47Zm.26,2.4a.52.52,0,0,1,.3-.67.51.51,0,0,1,.67.29.57.57,0,0,1,0,.26.53.53,0,0,1-.46.58.52.52,0,0,1-.54-.5h0Zm.27,2.39a.52.52,0,0,1,.47-.57.52.52,0,1,1,.1,1,.52.52,0,0,1-.57-.47v0Zm.26,2.4a.52.52,0,0,1,.45-.58h0a.51.51,0,0,1,.57.42v0a.53.53,0,0,1-.44.59h0a.53.53,0,0,1-.53-.51Zm.27,2.4a.52.52,0,0,1,.3-.67.51.51,0,0,1,.67.29.57.57,0,0,1,0,.26.54.54,0,0,1-.46.59.52.52,0,0,1-.54-.5h0Zm.26,2.4a.53.53,0,0,1,.46-.58.52.52,0,0,1,.11,1h0a.51.51,0,0,1-.57-.44h0Zm.26,2.39a.53.53,0,0,1,.46-.58.52.52,0,0,1,.58.45h0a.52.52,0,0,1-1,.38.58.58,0,0,1,0-.26Zm.27,2.4a.54.54,0,0,1,.46-.59.52.52,0,0,1,.57.46h0a.52.52,0,1,1-1,.13v0Zm.84,2.87a.53.53,0,0,1-.12-1.06.52.52,0,0,1,.57.46h0a.53.53,0,0,1-.45.55Z"/><g class="cls-4"><path class="cls-5" d="M279.46,106.81c.07.3.13.6.19.9l.18,1L288.4,107a7.45,7.45,0,0,1-.19-.94,1.24,1.24,0,0,0-.09-.38l-.06-.15v-.12a.49.49,0,0,0,0-.17,1.93,1.93,0,0,1-.13-.47l-8.53,1.65A2.2,2.2,0,0,1,279.46,106.81Z"/></g><polygon class="cls-2" points="1.24 28.16 0.4 49.97 0.4 49.97 0.4 49.97 3.65 53.64 23.45 54.55 24.42 29.23 1.24 28.16"/><polygon class="cls-6" points="24.03 28.79 0.84 27.72 0 49.54 3.25 53.2 23.05 54.12 24.03 28.79"/><polygon class="cls-7" points="3.25 53.2 0 49.54 3.39 49.69 3.25 53.2"/><g class="cls-4"><path class="cls-8" d="M20.74,26.81,9.21,26.18a2.43,2.43,0,0,1-.1.5A16.42,16.42,0,0,0,9,28.78l11.7.65V27.68A8.19,8.19,0,0,0,20.74,26.81Z"/></g><polygon class="cls-2" points="146.24 77.16 145.4 98.97 145.4 98.97 145.4 98.97 148.65 102.64 168.44 103.55 169.42 78.23 146.24 77.16"/><polygon class="cls-6" points="169.03 77.8 145.84 76.72 145 98.54 148.25 102.2 168.05 103.12 169.03 77.8"/><polygon class="cls-7" points="148.25 102.2 145 98.54 148.39 98.69 148.25 102.2"/><g class="cls-4"><path class="cls-8" d="M165.74,75.81l-11.53-.63a2.43,2.43,0,0,1-.1.5,16.39,16.39,0,0,0-.08,2.1l11.7.65V76.68C165.75,76.41,165.72,76.1,165.74,75.81Z"/></g><polygon class="cls-2" points="263.05 26.81 239.62 28.71 237.78 4.48 261.21 2.58 263.05 26.81"/><polygon class="cls-9" points="262.65 26.39 239.22 28.29 237.38 4.07 260.81 2.16 262.65 26.39"/><polygon class="cls-10" points="260.63 4.02 260.55 4.03 260.31 4.05 260.23 4.06 259.99 4.08 259.91 4.08 259.67 4.1 259.59 4.11 259.35 4.13 259.27 4.14 259.03 4.15 258.95 4.16 258.71 4.18 258.63 4.19 258.39 4.21 258.31 4.21 258.07 4.23 257.99 4.24 257.75 4.26 257.67 4.27 257.43 4.28 257.35 4.29 257.11 4.31 257.03 4.32 256.79 4.34 256.71 4.34 256.47 4.36 256.39 4.37 256.15 4.39 256.07 4.4 255.83 4.41 255.75 4.42 255.51 4.44 255.43 4.45 255.19 4.47 255.11 4.47 254.87 4.49 254.79 4.5 254.55 4.52 254.47 4.52 254.23 4.55 254.15 4.55 253.91 4.57 253.83 4.58 253.59 4.6 253.51 4.6 253.27 4.62 253.19 4.63 252.95 4.65 252.87 4.65 252.63 4.68 252.55 4.68 252.31 4.7 252.23 4.71 251.99 4.73 251.91 4.73 251.67 4.75 251.59 4.76 251.35 4.78 251.27 4.78 251.03 4.81 250.95 4.81 250.71 4.83 250.63 4.84 250.39 4.86 250.31 4.86 250.07 4.88 249.99 4.89 249.75 4.91 249.67 4.91 249.43 4.94 249.35 4.94 249.11 4.96 249.03 4.97 248.79 4.99 248.71 4.99 248.47 5.01 248.39 5.02 248.15 5.04 248.07 5.05 247.83 5.06 247.75 5.07 247.51 5.09 247.43 5.1 247.19 5.12 247.11 5.12 246.87 5.14 246.79 5.15 246.55 5.17 246.47 5.18 246.23 5.19 246.15 5.2 245.91 5.22 245.83 5.23 245.59 5.25 245.51 5.25 245.27 5.27 245.19 5.28 244.95 5.3 244.87 5.31 244.63 5.32 244.55 5.33 244.31 5.35 244.23 5.36 243.99 5.38 243.91 5.38 243.67 5.4 243.59 5.41 243.35 5.43 243.27 5.44 243.03 5.45 242.95 5.46 242.71 5.48 242.63 5.49 242.39 5.51 242.31 5.51 242.07 5.53 241.99 5.54 241.75 5.56 241.67 5.56 241.43 5.59 241.35 5.59 241.11 5.61 241.03 5.62 240.79 5.64 240.71 5.64 240.47 5.66 240.39 5.67 240.15 5.69 240.07 5.69 239.83 5.72 239.75 5.72 239.51 5.74 239.44 5.75 239.19 5.77 239.12 5.77 238.88 5.79 238.79 5.8 238.56 5.82 238.47 5.82 238.24 5.85 238.16 5.85 237.91 5.87 237.84 5.88 237.51 5.9 237.52 5.94 237.84 5.92 237.92 5.91 238.16 5.89 238.24 5.89 238.48 5.87 238.56 5.86 238.8 5.84 238.88 5.83 239.12 5.81 239.2 5.81 239.44 5.79 239.52 5.78 239.76 5.76 239.84 5.76 240.08 5.74 240.16 5.73 240.4 5.71 240.48 5.7 240.72 5.68 240.8 5.68 241.04 5.66 241.12 5.65 241.36 5.63 241.44 5.63 241.68 5.61 241.76 5.6 242 5.58 242.08 5.57 242.32 5.55 242.4 5.55 242.64 5.53 242.72 5.52 242.96 5.5 243.04 5.5 243.28 5.48 243.36 5.47 243.6 5.45 243.68 5.44 243.92 5.43 244 5.42 244.24 5.4 244.32 5.39 244.56 5.37 244.63 5.37 244.88 5.35 244.96 5.34 245.19 5.32 245.28 5.31 245.51 5.3 245.59 5.29 245.84 5.27 245.91 5.26 246.16 5.24 246.24 5.24 246.47 5.22 246.56 5.21 246.79 5.19 246.87 5.18 247.11 5.16 247.19 5.16 247.43 5.14 247.51 5.13 247.75 5.11 247.83 5.11 248.07 5.09 248.15 5.08 248.39 5.06 248.47 5.05 248.71 5.03 248.79 5.03 249.03 5.01 249.11 5 249.35 4.98 249.43 4.98 249.67 4.96 249.75 4.95 249.99 4.93 250.07 4.92 250.31 4.9 250.39 4.9 250.63 4.88 250.71 4.87 250.95 4.85 251.03 4.85 251.27 4.83 251.35 4.82 251.59 4.8 251.67 4.79 251.91 4.77 251.99 4.77 252.23 4.75 252.31 4.74 252.55 4.72 252.63 4.72 252.87 4.7 252.95 4.69 253.19 4.67 253.27 4.66 253.51 4.65 253.59 4.64 253.83 4.62 253.91 4.61 254.15 4.59 254.23 4.59 254.47 4.57 254.55 4.56 254.79 4.54 254.87 4.53 255.11 4.52 255.19 4.51 255.43 4.49 255.51 4.48 255.75 4.46 255.83 4.46 256.07 4.44 256.15 4.43 256.39 4.41 256.47 4.4 256.71 4.39 256.79 4.38 257.03 4.36 257.11 4.35 257.35 4.33 257.43 4.33 257.67 4.31 257.75 4.3 257.99 4.28 258.07 4.27 258.31 4.26 258.39 4.25 258.63 4.23 258.71 4.22 258.95 4.2 259.03 4.2 259.27 4.18 259.35 4.17 259.59 4.15 259.67 4.14 259.91 4.13 259.99 4.12 260.23 4.1 260.31 4.09 260.55 4.07 260.63 4.07 260.95 4.04 260.94 4 260.63 4.02"/><polygon class="cls-10" points="260.68 5.85 260.44 5.87 260.36 5.88 260.12 5.9 260.04 5.9 259.8 5.92 259.72 5.93 259.48 5.95 259.4 5.96 259.16 5.98 259.08 5.98 258.84 6 258.76 6.01 258.52 6.03 258.44 6.03 258.2 6.05 258.13 6.06 257.88 6.08 257.81 6.09 257.56 6.1 257.49 6.11 257.25 6.13 257.17 6.14 256.93 6.16 256.85 6.16 256.61 6.18 256.53 6.19 256.29 6.21 256.21 6.22 255.97 6.23 255.89 6.24 255.65 6.26 255.57 6.27 255.33 6.29 255.25 6.29 255.01 6.31 254.93 6.32 254.69 6.34 254.61 6.35 254.37 6.36 254.29 6.37 254.05 6.39 253.97 6.4 253.73 6.42 253.65 6.42 253.41 6.44 253.33 6.45 253.09 6.47 253.01 6.48 252.77 6.49 252.69 6.5 252.45 6.52 252.37 6.53 252.13 6.55 252.05 6.55 251.81 6.57 251.73 6.58 251.49 6.6 251.41 6.6 251.17 6.63 251.09 6.63 250.85 6.65 250.77 6.66 250.53 6.68 250.45 6.68 250.21 6.7 250.13 6.71 249.89 6.73 249.81 6.73 249.57 6.76 249.49 6.76 249.25 6.78 249.17 6.79 248.93 6.81 248.85 6.81 248.61 6.83 248.53 6.84 248.29 6.86 248.21 6.86 247.97 6.89 247.89 6.89 247.65 6.91 247.57 6.92 247.33 6.94 247.25 6.94 247.01 6.96 246.93 6.97 246.69 6.99 246.61 6.99 246.37 7.02 246.29 7.02 246.05 7.04 245.97 7.05 245.73 7.07 245.65 7.07 245.41 7.09 245.33 7.1 245.09 7.12 245.01 7.13 244.77 7.15 244.69 7.15 244.45 7.17 244.37 7.18 244.13 7.2 244.05 7.2 243.81 7.22 243.73 7.23 243.49 7.25 243.41 7.26 243.17 7.27 243.09 7.28 242.85 7.3 242.77 7.31 242.53 7.33 242.45 7.33 242.21 7.35 242.13 7.36 241.89 7.38 241.81 7.39 241.57 7.4 241.49 7.41 241.25 7.43 241.17 7.44 240.93 7.46 240.85 7.46 240.61 7.48 240.53 7.49 240.29 7.51 240.21 7.52 239.97 7.53 239.89 7.54 239.65 7.56 239.57 7.57 239.33 7.59 239.25 7.59 239.01 7.61 238.93 7.62 238.69 7.64 238.61 7.65 238.37 7.66 238.29 7.67 238.05 7.69 237.97 7.7 237.65 7.72 237.66 7.76 237.98 7.74 238.06 7.73 238.3 7.71 238.38 7.71 238.62 7.69 238.7 7.68 238.94 7.66 239.02 7.65 239.26 7.63 239.34 7.63 239.58 7.61 239.66 7.6 239.9 7.58 239.98 7.58 240.22 7.56 240.3 7.55 240.54 7.53 240.62 7.52 240.86 7.5 240.94 7.5 241.18 7.48 241.25 7.47 241.5 7.45 241.57 7.45 241.81 7.43 241.9 7.42 242.13 7.4 242.22 7.39 242.46 7.38 242.53 7.37 242.78 7.35 242.85 7.34 243.09 7.32 243.17 7.32 243.41 7.3 243.49 7.29 243.73 7.27 243.81 7.26 244.05 7.24 244.13 7.24 244.37 7.22 244.45 7.21 244.69 7.19 244.77 7.19 245.01 7.17 245.09 7.16 245.33 7.14 245.41 7.13 245.65 7.11 245.73 7.11 245.97 7.09 246.05 7.08 246.29 7.06 246.37 7.06 246.61 7.04 246.69 7.03 246.93 7.01 247.01 7 247.25 6.98 247.33 6.98 247.57 6.96 247.65 6.95 247.89 6.93 247.97 6.93 248.21 6.91 248.29 6.9 248.53 6.88 248.61 6.87 248.85 6.85 248.93 6.85 249.17 6.83 249.25 6.82 249.49 6.8 249.57 6.8 249.81 6.78 249.89 6.77 250.13 6.75 250.21 6.74 250.45 6.73 250.53 6.72 250.77 6.7 250.85 6.69 251.09 6.67 251.17 6.67 251.41 6.65 251.49 6.64 251.73 6.62 251.81 6.61 252.05 6.6 252.13 6.59 252.37 6.57 252.45 6.56 252.69 6.54 252.77 6.54 253.01 6.52 253.09 6.51 253.33 6.49 253.41 6.48 253.65 6.47 253.73 6.46 253.97 6.44 254.05 6.43 254.29 6.41 254.37 6.41 254.61 6.39 254.69 6.38 254.93 6.36 255.01 6.35 255.25 6.34 255.33 6.33 255.57 6.31 255.65 6.3 255.89 6.28 255.97 6.28 256.21 6.26 256.29 6.25 256.53 6.23 256.61 6.22 256.85 6.2 256.93 6.2 257.17 6.18 257.25 6.17 257.49 6.15 257.57 6.15 257.81 6.13 257.89 6.12 258.13 6.1 258.21 6.09 258.45 6.07 258.53 6.07 258.77 6.05 258.85 6.04 259.09 6.02 259.17 6.02 259.41 6 259.49 5.99 259.73 5.97 259.81 5.97 260.05 5.94 260.13 5.94 260.37 5.92 260.45 5.91 260.69 5.89 260.77 5.89 261.09 5.86 261.08 5.82 260.76 5.85 260.68 5.85"/><polygon class="cls-10" points="260.82 7.67 260.58 7.69 260.5 7.7 260.26 7.72 260.18 7.72 259.94 7.74 259.86 7.75 259.62 7.77 259.54 7.78 259.3 7.8 259.22 7.8 258.98 7.82 258.9 7.83 258.66 7.85 258.58 7.85 258.34 7.87 258.26 7.88 258.02 7.9 257.94 7.91 257.7 7.93 257.62 7.93 257.38 7.95 257.3 7.96 257.06 7.98 256.98 7.98 256.74 8 256.66 8.01 256.42 8.03 256.34 8.04 256.1 8.06 256.02 8.06 255.78 8.08 255.7 8.09 255.46 8.11 255.38 8.11 255.14 8.13 255.06 8.14 254.82 8.16 254.75 8.17 254.5 8.18 254.43 8.19 254.19 8.21 254.1 8.22 253.87 8.24 253.78 8.24 253.54 8.26 253.47 8.27 253.22 8.29 253.15 8.3 252.91 8.31 252.83 8.32 252.59 8.34 252.51 8.35 252.27 8.37 252.19 8.37 251.95 8.39 251.87 8.4 251.63 8.42 251.55 8.42 251.31 8.45 251.23 8.45 250.99 8.47 250.91 8.48 250.67 8.5 250.59 8.5 250.35 8.52 250.27 8.53 250.03 8.55 249.95 8.56 249.71 8.57 249.63 8.58 249.39 8.6 249.31 8.61 249.07 8.63 248.99 8.63 248.75 8.65 248.67 8.66 248.43 8.68 248.35 8.68 248.11 8.71 248.03 8.71 247.79 8.73 247.71 8.74 247.47 8.76 247.39 8.76 247.15 8.78 247.07 8.79 246.83 8.81 246.75 8.81 246.51 8.83 246.43 8.84 246.19 8.86 246.11 8.87 245.87 8.89 245.79 8.89 245.55 8.91 245.47 8.92 245.23 8.94 245.15 8.95 244.91 8.97 244.83 8.97 244.59 8.99 244.51 9 244.27 9.02 244.19 9.02 243.95 9.04 243.87 9.05 243.63 9.07 243.55 9.07 243.31 9.09 243.23 9.1 242.99 9.12 242.91 9.13 242.67 9.15 242.59 9.15 242.35 9.17 242.27 9.18 242.03 9.2 241.95 9.21 241.71 9.23 241.63 9.23 241.39 9.25 241.31 9.26 241.07 9.28 240.99 9.28 240.75 9.3 240.67 9.31 240.43 9.33 240.35 9.33 240.11 9.36 240.03 9.36 239.79 9.38 239.71 9.39 239.47 9.41 239.39 9.41 239.15 9.43 239.07 9.44 238.83 9.46 238.75 9.47 238.51 9.48 238.43 9.49 238.19 9.51 238.11 9.52 237.79 9.54 237.79 9.58 238.12 9.56 238.19 9.55 238.44 9.53 238.51 9.53 238.75 9.51 238.84 9.5 239.07 9.48 239.16 9.47 239.4 9.46 239.47 9.45 239.71 9.43 239.79 9.42 240.03 9.4 240.11 9.4 240.35 9.38 240.43 9.37 240.67 9.35 240.75 9.34 240.99 9.32 241.07 9.32 241.31 9.3 241.39 9.29 241.63 9.27 241.71 9.27 241.95 9.25 242.03 9.24 242.27 9.22 242.35 9.21 242.59 9.2 242.67 9.19 242.91 9.17 242.99 9.16 243.23 9.14 243.31 9.14 243.55 9.12 243.63 9.11 243.87 9.09 243.95 9.08 244.19 9.06 244.27 9.06 244.51 9.04 244.59 9.03 244.83 9.01 244.91 9.01 245.15 8.99 245.23 8.98 245.47 8.96 245.55 8.95 245.79 8.93 245.87 8.93 246.11 8.91 246.19 8.9 246.43 8.88 246.51 8.88 246.75 8.86 246.83 8.85 247.07 8.83 247.15 8.82 247.39 8.81 247.47 8.8 247.71 8.78 247.79 8.77 248.03 8.75 248.11 8.75 248.35 8.73 248.43 8.72 248.67 8.7 248.75 8.69 248.99 8.67 249.07 8.67 249.31 8.65 249.39 8.64 249.63 8.62 249.71 8.62 249.95 8.6 250.03 8.59 250.27 8.57 250.35 8.56 250.59 8.55 250.67 8.54 250.91 8.52 250.99 8.51 251.23 8.49 251.31 8.49 251.55 8.47 251.63 8.46 251.87 8.44 251.95 8.43 252.19 8.41 252.27 8.41 252.51 8.39 252.59 8.38 252.83 8.36 252.91 8.36 253.15 8.34 253.23 8.33 253.47 8.31 253.55 8.3 253.79 8.29 253.87 8.28 254.11 8.26 254.19 8.25 254.43 8.23 254.51 8.23 254.75 8.21 254.83 8.2 255.07 8.18 255.15 8.17 255.39 8.15 255.47 8.15 255.71 8.13 255.79 8.12 256.03 8.1 256.11 8.1 256.35 8.08 256.43 8.07 256.67 8.05 256.75 8.04 256.99 8.03 257.07 8.02 257.31 8 257.39 7.99 257.63 7.97 257.71 7.97 257.95 7.95 258.03 7.94 258.27 7.92 258.35 7.91 258.59 7.9 258.67 7.89 258.91 7.87 258.99 7.86 259.23 7.84 259.31 7.84 259.55 7.82 259.63 7.81 259.87 7.79 259.95 7.78 260.19 7.77 260.26 7.76 260.5 7.74 260.58 7.73 260.82 7.71 260.9 7.71 261.23 7.68 261.22 7.64 260.9 7.66 260.82 7.67"/><polygon class="cls-10" points="260.96 9.49 260.72 9.51 260.64 9.52 260.4 9.54 260.32 9.54 260.08 9.56 260 9.57 259.76 9.59 259.68 9.6 259.44 9.62 259.36 9.62 259.12 9.64 259.04 9.65 258.8 9.67 258.72 9.67 258.48 9.69 258.4 9.7 258.16 9.72 258.08 9.73 257.84 9.74 257.76 9.75 257.52 9.77 257.44 9.78 257.2 9.8 257.12 9.8 256.88 9.82 256.8 9.83 256.56 9.85 256.48 9.86 256.24 9.88 256.16 9.88 255.92 9.9 255.84 9.91 255.6 9.93 255.52 9.93 255.28 9.95 255.2 9.96 254.96 9.98 254.88 9.99 254.64 10 254.56 10.01 254.32 10.03 254.24 10.04 254 10.06 253.92 10.06 253.68 10.08 253.6 10.09 253.36 10.11 253.28 10.12 253.04 10.14 252.96 10.14 252.72 10.16 252.64 10.17 252.4 10.19 252.32 10.19 252.08 10.21 252 10.22 251.76 10.24 251.68 10.25 251.44 10.26 251.37 10.27 251.13 10.29 251.04 10.3 250.81 10.32 250.72 10.32 250.49 10.34 250.41 10.35 250.16 10.37 250.09 10.38 249.84 10.4 249.76 10.4 249.53 10.42 249.44 10.43 249.21 10.45 249.13 10.45 248.89 10.47 248.81 10.48 248.57 10.5 248.49 10.5 248.25 10.53 248.17 10.53 247.93 10.55 247.85 10.56 247.61 10.58 247.53 10.58 247.29 10.6 247.21 10.61 246.97 10.63 246.89 10.64 246.65 10.65 246.57 10.66 246.33 10.68 246.25 10.69 246.01 10.71 245.93 10.71 245.69 10.73 245.61 10.74 245.37 10.76 245.29 10.76 245.05 10.79 244.97 10.79 244.73 10.81 244.65 10.82 244.41 10.84 244.33 10.84 244.09 10.86 244.01 10.87 243.77 10.89 243.69 10.9 243.45 10.91 243.37 10.92 243.13 10.94 243.05 10.95 242.81 10.97 242.73 10.97 242.49 10.99 242.41 11 242.17 11.02 242.09 11.03 241.85 11.05 241.77 11.05 241.53 11.07 241.45 11.08 241.21 11.1 241.13 11.1 240.89 11.12 240.81 11.13 240.57 11.15 240.49 11.15 240.25 11.17 240.17 11.18 239.93 11.2 239.85 11.21 239.61 11.23 239.53 11.23 239.29 11.25 239.21 11.26 238.97 11.28 238.89 11.29 238.65 11.31 238.57 11.31 238.33 11.33 238.25 11.34 237.93 11.36 237.93 11.4 238.25 11.38 238.33 11.37 238.57 11.35 238.65 11.35 238.89 11.33 238.97 11.32 239.21 11.3 239.29 11.29 239.53 11.28 239.61 11.27 239.85 11.25 239.93 11.24 240.17 11.22 240.25 11.22 240.49 11.2 240.57 11.19 240.81 11.17 240.89 11.16 241.13 11.15 241.21 11.14 241.45 11.12 241.53 11.11 241.77 11.09 241.85 11.09 242.09 11.07 242.17 11.06 242.41 11.04 242.49 11.03 242.73 11.01 242.81 11.01 243.05 10.99 243.13 10.98 243.37 10.96 243.45 10.96 243.69 10.94 243.77 10.93 244.01 10.91 244.09 10.9 244.33 10.89 244.41 10.88 244.65 10.86 244.73 10.85 244.97 10.83 245.05 10.83 245.29 10.81 245.37 10.8 245.61 10.78 245.69 10.77 245.93 10.75 246.01 10.75 246.25 10.73 246.33 10.72 246.57 10.7 246.65 10.7 246.89 10.68 246.97 10.67 247.21 10.65 247.29 10.64 247.53 10.63 247.61 10.62 247.85 10.6 247.93 10.59 248.17 10.57 248.25 10.57 248.49 10.55 248.57 10.54 248.81 10.52 248.89 10.51 249.13 10.49 249.21 10.49 249.45 10.47 249.53 10.46 249.77 10.44 249.85 10.44 250.09 10.42 250.17 10.41 250.41 10.39 250.49 10.38 250.73 10.37 250.81 10.36 251.05 10.34 251.13 10.33 251.37 10.31 251.45 10.31 251.69 10.29 251.77 10.28 252.01 10.26 252.09 10.25 252.33 10.23 252.41 10.23 252.65 10.21 252.73 10.2 252.97 10.18 253.05 10.18 253.29 10.16 253.37 10.15 253.61 10.13 253.69 10.12 253.93 10.11 254.01 10.1 254.25 10.08 254.33 10.07 254.57 10.05 254.65 10.05 254.89 10.03 254.97 10.02 255.21 10 255.29 9.99 255.53 9.98 255.61 9.97 255.85 9.95 255.93 9.94 256.17 9.92 256.25 9.92 256.49 9.9 256.56 9.89 256.81 9.87 256.88 9.87 257.13 9.84 257.2 9.84 257.44 9.82 257.52 9.81 257.76 9.79 257.85 9.79 258.08 9.77 258.17 9.76 258.4 9.74 258.49 9.73 258.73 9.72 258.8 9.71 259.04 9.69 259.12 9.68 259.36 9.66 259.44 9.66 259.68 9.64 259.76 9.63 260 9.61 260.08 9.61 260.32 9.58 260.4 9.58 260.64 9.56 260.72 9.55 260.96 9.53 261.04 9.53 261.36 9.5 261.36 9.46 261.04 9.48 260.96 9.49"/><polygon class="cls-10" points="261.1 11.31 260.86 11.33 260.78 11.34 260.54 11.36 260.46 11.36 260.22 11.38 260.14 11.39 259.9 11.41 259.82 11.42 259.58 11.43 259.5 11.44 259.26 11.46 259.18 11.47 258.94 11.49 258.86 11.49 258.62 11.51 258.54 11.52 258.3 11.54 258.22 11.55 257.98 11.56 257.9 11.57 257.66 11.59 257.58 11.6 257.34 11.62 257.26 11.62 257.02 11.64 256.94 11.65 256.7 11.67 256.62 11.68 256.38 11.7 256.3 11.7 256.06 11.72 255.98 11.73 255.74 11.75 255.66 11.75 255.42 11.77 255.34 11.78 255.1 11.8 255.02 11.81 254.78 11.82 254.7 11.83 254.46 11.85 254.38 11.86 254.14 11.88 254.06 11.88 253.82 11.9 253.74 11.91 253.5 11.93 253.42 11.94 253.18 11.96 253.1 11.96 252.86 11.98 252.78 11.99 252.54 12.01 252.46 12.01 252.22 12.03 252.14 12.04 251.9 12.06 251.82 12.07 251.58 12.08 251.5 12.09 251.26 12.11 251.18 12.12 250.94 12.14 250.86 12.14 250.62 12.16 250.54 12.17 250.3 12.19 250.22 12.2 249.98 12.22 249.9 12.22 249.66 12.24 249.58 12.25 249.34 12.27 249.26 12.27 249.02 12.29 248.94 12.3 248.7 12.32 248.62 12.33 248.38 12.34 248.3 12.35 248.06 12.37 247.98 12.38 247.74 12.4 247.66 12.4 247.43 12.42 247.34 12.43 247.1 12.45 247.03 12.46 246.78 12.48 246.71 12.48 246.47 12.5 246.38 12.51 246.15 12.53 246.06 12.53 245.82 12.55 245.75 12.56 245.5 12.58 245.43 12.59 245.19 12.61 245.11 12.61 244.87 12.63 244.79 12.64 244.55 12.66 244.47 12.66 244.23 12.68 244.15 12.69 243.91 12.71 243.83 12.72 243.59 12.73 243.51 12.74 243.27 12.76 243.19 12.77 242.95 12.79 242.87 12.79 242.63 12.81 242.55 12.82 242.31 12.84 242.23 12.84 241.99 12.87 241.91 12.87 241.67 12.89 241.59 12.9 241.35 12.92 241.27 12.92 241.03 12.94 240.95 12.95 240.71 12.97 240.63 12.98 240.39 12.99 240.31 13 240.07 13.02 239.99 13.03 239.75 13.05 239.67 13.05 239.43 13.07 239.35 13.08 239.11 13.1 239.03 13.11 238.79 13.13 238.71 13.13 238.47 13.15 238.39 13.16 238.07 13.18 238.07 13.23 238.39 13.2 238.47 13.19 238.71 13.17 238.79 13.17 239.03 13.15 239.11 13.14 239.35 13.12 239.43 13.11 239.67 13.09 239.75 13.09 239.99 13.07 240.07 13.06 240.31 13.04 240.39 13.04 240.63 13.02 240.71 13.01 240.95 12.99 241.03 12.98 241.27 12.97 241.35 12.96 241.59 12.94 241.67 12.93 241.91 12.91 241.99 12.91 242.23 12.89 242.31 12.88 242.55 12.86 242.63 12.85 242.87 12.83 242.95 12.83 243.19 12.81 243.27 12.8 243.51 12.78 243.59 12.78 243.83 12.76 243.91 12.75 244.15 12.73 244.23 12.72 244.47 12.71 244.55 12.7 244.79 12.68 244.87 12.67 245.11 12.65 245.19 12.65 245.43 12.63 245.51 12.62 245.75 12.6 245.83 12.59 246.07 12.57 246.15 12.57 246.39 12.55 246.47 12.54 246.71 12.52 246.79 12.52 247.03 12.5 247.11 12.49 247.35 12.47 247.43 12.46 247.67 12.45 247.75 12.44 247.99 12.42 248.07 12.41 248.31 12.39 248.39 12.39 248.63 12.37 248.71 12.36 248.95 12.34 249.03 12.33 249.27 12.31 249.35 12.31 249.59 12.29 249.67 12.28 249.91 12.26 249.99 12.26 250.23 12.24 250.31 12.23 250.55 12.21 250.63 12.2 250.87 12.18 250.95 12.18 251.19 12.16 251.27 12.15 251.51 12.13 251.59 12.13 251.83 12.11 251.91 12.1 252.15 12.08 252.23 12.07 252.47 12.06 252.54 12.05 252.78 12.03 252.87 12.02 253.1 12 253.19 12 253.43 11.98 253.5 11.97 253.75 11.95 253.82 11.95 254.06 11.92 254.15 11.92 254.38 11.9 254.47 11.89 254.71 11.87 254.78 11.87 255.02 11.85 255.1 11.84 255.34 11.82 255.42 11.81 255.66 11.8 255.74 11.79 255.98 11.77 256.06 11.76 256.3 11.74 256.38 11.74 256.62 11.72 256.7 11.71 256.94 11.69 257.02 11.68 257.26 11.66 257.34 11.66 257.58 11.64 257.66 11.63 257.9 11.61 257.98 11.61 258.22 11.59 258.3 11.58 258.54 11.56 258.62 11.56 258.86 11.54 258.94 11.53 259.18 11.51 259.26 11.5 259.5 11.48 259.58 11.48 259.82 11.46 259.9 11.45 260.14 11.43 260.22 11.42 260.46 11.4 260.54 11.4 260.78 11.38 260.86 11.37 261.1 11.35 261.18 11.35 261.5 11.32 261.5 11.28 261.18 11.31 261.1 11.31"/><polygon class="cls-10" points="261.24 13.13 261 13.15 260.92 13.16 260.68 13.18 260.6 13.18 260.36 13.2 260.28 13.21 260.04 13.23 259.96 13.24 259.72 13.25 259.64 13.26 259.4 13.28 259.32 13.29 259.08 13.31 259 13.31 258.76 13.33 258.68 13.34 258.44 13.36 258.36 13.37 258.12 13.39 258.04 13.39 257.8 13.41 257.72 13.42 257.48 13.44 257.4 13.44 257.16 13.46 257.08 13.47 256.84 13.49 256.76 13.5 256.52 13.51 256.44 13.52 256.2 13.54 256.12 13.55 255.88 13.57 255.8 13.57 255.56 13.59 255.48 13.6 255.24 13.62 255.16 13.63 254.92 13.65 254.84 13.65 254.6 13.67 254.52 13.68 254.28 13.7 254.2 13.7 253.96 13.72 253.88 13.73 253.64 13.75 253.56 13.76 253.32 13.78 253.24 13.78 253 13.8 252.92 13.81 252.68 13.83 252.6 13.83 252.36 13.85 252.28 13.86 252.04 13.88 251.96 13.89 251.72 13.9 251.64 13.91 251.4 13.93 251.32 13.94 251.08 13.96 251 13.96 250.76 13.98 250.68 13.99 250.44 14.01 250.36 14.02 250.12 14.04 250.04 14.04 249.8 14.06 249.72 14.07 249.48 14.09 249.4 14.09 249.16 14.11 249.08 14.12 248.84 14.14 248.76 14.15 248.52 14.16 248.44 14.17 248.2 14.19 248.12 14.2 247.88 14.22 247.8 14.22 247.56 14.24 247.48 14.25 247.24 14.27 247.16 14.28 246.92 14.3 246.84 14.3 246.6 14.32 246.52 14.33 246.28 14.35 246.2 14.35 245.96 14.37 245.88 14.38 245.64 14.4 245.56 14.41 245.32 14.42 245.24 14.43 245 14.45 244.92 14.46 244.68 14.48 244.6 14.48 244.36 14.5 244.28 14.51 244.04 14.53 243.97 14.54 243.72 14.56 243.65 14.56 243.41 14.58 243.32 14.59 243.09 14.61 243 14.61 242.76 14.63 242.69 14.64 242.44 14.66 242.37 14.66 242.13 14.68 242.04 14.69 241.81 14.71 241.72 14.72 241.49 14.74 241.41 14.74 241.17 14.76 241.09 14.77 240.85 14.79 240.77 14.8 240.53 14.81 240.45 14.82 240.21 14.84 240.13 14.85 239.89 14.87 239.81 14.87 239.57 14.89 239.49 14.9 239.25 14.92 239.17 14.92 238.93 14.95 238.85 14.95 238.61 14.97 238.53 14.98 238.21 15 238.21 15.05 238.53 15.02 238.61 15.01 238.85 14.99 238.93 14.99 239.17 14.97 239.25 14.96 239.49 14.94 239.57 14.93 239.81 14.91 239.89 14.91 240.13 14.89 240.21 14.88 240.45 14.86 240.53 14.86 240.77 14.84 240.85 14.83 241.09 14.81 241.17 14.8 241.41 14.79 241.49 14.78 241.73 14.76 241.81 14.75 242.05 14.73 242.13 14.73 242.37 14.71 242.45 14.7 242.69 14.68 242.77 14.67 243.01 14.65 243.09 14.65 243.33 14.63 243.41 14.62 243.65 14.6 243.73 14.6 243.97 14.58 244.05 14.57 244.29 14.55 244.37 14.54 244.61 14.53 244.69 14.52 244.93 14.5 245.01 14.49 245.25 14.47 245.33 14.47 245.57 14.45 245.65 14.44 245.89 14.42 245.97 14.41 246.21 14.4 246.29 14.39 246.53 14.37 246.61 14.36 246.85 14.34 246.93 14.34 247.17 14.32 247.25 14.31 247.49 14.29 247.57 14.28 247.81 14.26 247.89 14.26 248.13 14.24 248.21 14.23 248.45 14.21 248.53 14.21 248.77 14.19 248.84 14.18 249.09 14.16 249.16 14.15 249.41 14.14 249.49 14.13 249.72 14.11 249.81 14.1 250.04 14.08 250.13 14.08 250.37 14.06 250.44 14.05 250.69 14.03 250.76 14.02 251 14 251.08 14 251.32 13.98 251.4 13.97 251.64 13.95 251.72 13.95 251.96 13.93 252.04 13.92 252.28 13.9 252.36 13.89 252.6 13.88 252.68 13.87 252.92 13.85 253 13.84 253.24 13.82 253.32 13.82 253.56 13.8 253.64 13.79 253.88 13.77 253.96 13.76 254.2 13.74 254.28 13.74 254.52 13.72 254.6 13.71 254.84 13.69 254.92 13.69 255.16 13.67 255.24 13.66 255.48 13.64 255.56 13.64 255.8 13.62 255.88 13.61 256.12 13.59 256.2 13.58 256.44 13.56 256.52 13.56 256.76 13.54 256.84 13.53 257.08 13.51 257.16 13.5 257.4 13.48 257.48 13.48 257.72 13.46 257.8 13.45 258.04 13.43 258.12 13.43 258.36 13.41 258.44 13.4 258.68 13.38 258.76 13.38 259 13.36 259.08 13.35 259.32 13.33 259.4 13.32 259.64 13.3 259.72 13.3 259.96 13.28 260.04 13.27 260.28 13.25 260.36 13.24 260.6 13.23 260.68 13.22 260.92 13.2 261 13.19 261.24 13.17 261.32 13.17 261.64 13.14 261.64 13.1 261.32 13.13 261.24 13.13"/><polygon class="cls-10" points="261.38 14.95 261.13 14.97 261.06 14.98 260.82 15 260.74 15 260.5 15.02 260.42 15.03 260.18 15.05 260.1 15.06 259.86 15.08 259.78 15.08 259.54 15.1 259.46 15.11 259.22 15.13 259.14 15.13 258.9 15.15 258.82 15.16 258.58 15.18 258.5 15.19 258.26 15.21 258.18 15.21 257.94 15.23 257.86 15.24 257.62 15.26 257.54 15.26 257.3 15.28 257.22 15.29 256.98 15.31 256.9 15.32 256.66 15.33 256.58 15.34 256.34 15.36 256.26 15.37 256.02 15.39 255.94 15.39 255.7 15.41 255.62 15.42 255.38 15.44 255.3 15.45 255.06 15.47 254.98 15.47 254.74 15.49 254.66 15.5 254.42 15.52 254.34 15.52 254.1 15.54 254.02 15.55 253.78 15.57 253.7 15.58 253.46 15.59 253.38 15.6 253.14 15.62 253.06 15.63 252.82 15.65 252.74 15.65 252.5 15.67 252.42 15.68 252.18 15.7 252.1 15.71 251.86 15.73 251.78 15.73 251.54 15.75 251.46 15.76 251.22 15.78 251.14 15.78 250.9 15.8 250.82 15.81 250.58 15.83 250.5 15.84 250.26 15.86 250.18 15.86 249.94 15.88 249.86 15.89 249.62 15.91 249.54 15.91 249.3 15.93 249.22 15.94 248.98 15.96 248.9 15.97 248.66 15.98 248.58 15.99 248.34 16.01 248.26 16.02 248.02 16.04 247.94 16.04 247.7 16.06 247.62 16.07 247.38 16.09 247.3 16.1 247.06 16.11 246.98 16.12 246.74 16.14 246.66 16.15 246.42 16.17 246.34 16.17 246.1 16.19 246.02 16.2 245.78 16.22 245.7 16.23 245.46 16.25 245.38 16.25 245.14 16.27 245.06 16.28 244.82 16.3 244.74 16.3 244.5 16.32 244.42 16.33 244.18 16.35 244.1 16.36 243.86 16.38 243.78 16.38 243.54 16.4 243.46 16.41 243.22 16.43 243.14 16.43 242.9 16.45 242.82 16.46 242.58 16.48 242.5 16.49 242.26 16.5 242.18 16.51 241.94 16.53 241.86 16.54 241.62 16.56 241.54 16.56 241.3 16.58 241.22 16.59 240.98 16.61 240.9 16.61 240.66 16.63 240.58 16.64 240.34 16.66 240.26 16.67 240.02 16.69 239.94 16.69 239.71 16.71 239.63 16.72 239.38 16.74 239.31 16.75 239.06 16.77 238.99 16.77 238.75 16.79 238.66 16.8 238.34 16.82 238.35 16.86 238.67 16.84 238.75 16.83 238.99 16.81 239.07 16.81 239.31 16.79 239.39 16.78 239.63 16.76 239.71 16.75 239.95 16.73 240.03 16.73 240.27 16.71 240.35 16.7 240.59 16.68 240.67 16.68 240.91 16.66 240.99 16.65 241.23 16.63 241.31 16.62 241.55 16.61 241.63 16.6 241.87 16.58 241.95 16.57 242.19 16.55 242.27 16.55 242.51 16.53 242.59 16.52 242.83 16.5 242.91 16.49 243.15 16.47 243.23 16.47 243.47 16.45 243.55 16.44 243.79 16.42 243.87 16.42 244.11 16.4 244.19 16.39 244.43 16.37 244.51 16.36 244.75 16.34 244.83 16.34 245.07 16.32 245.15 16.31 245.38 16.29 245.47 16.29 245.71 16.27 245.78 16.26 246.03 16.24 246.1 16.23 246.34 16.22 246.43 16.21 246.66 16.19 246.75 16.18 246.99 16.16 247.06 16.16 247.31 16.14 247.38 16.13 247.62 16.11 247.7 16.1 247.94 16.09 248.02 16.08 248.26 16.06 248.34 16.05 248.58 16.03 248.66 16.03 248.9 16.01 248.98 16 249.22 15.98 249.3 15.98 249.54 15.96 249.62 15.95 249.86 15.93 249.94 15.92 250.18 15.9 250.26 15.9 250.5 15.88 250.58 15.87 250.82 15.85 250.9 15.84 251.14 15.82 251.22 15.82 251.46 15.8 251.54 15.79 251.78 15.77 251.86 15.77 252.1 15.75 252.18 15.74 252.42 15.72 252.5 15.72 252.74 15.7 252.82 15.69 253.06 15.67 253.14 15.66 253.38 15.64 253.46 15.64 253.7 15.62 253.78 15.61 254.02 15.59 254.1 15.58 254.34 15.56 254.42 15.56 254.66 15.54 254.74 15.53 254.98 15.51 255.06 15.51 255.3 15.49 255.38 15.48 255.62 15.46 255.7 15.46 255.94 15.43 256.02 15.43 256.26 15.41 256.34 15.4 256.58 15.38 256.66 15.38 256.9 15.36 256.98 15.35 257.22 15.33 257.3 15.32 257.54 15.31 257.62 15.3 257.86 15.28 257.94 15.27 258.18 15.25 258.26 15.25 258.5 15.23 258.58 15.22 258.82 15.2 258.9 15.2 259.14 15.17 259.22 15.17 259.46 15.15 259.54 15.14 259.78 15.12 259.86 15.12 260.1 15.1 260.18 15.09 260.42 15.07 260.5 15.06 260.74 15.05 260.82 15.04 261.06 15.02 261.14 15.01 261.38 14.99 261.46 14.99 261.78 14.96 261.77 14.92 261.45 14.95 261.38 14.95"/><polygon class="cls-10" points="261.51 16.77 261.27 16.79 261.19 16.8 260.95 16.82 260.87 16.82 260.63 16.84 260.55 16.85 260.31 16.87 260.23 16.88 259.99 16.9 259.91 16.9 259.67 16.92 259.6 16.93 259.36 16.95 259.27 16.95 259.04 16.97 258.95 16.98 258.71 17 258.63 17.01 258.39 17.02 258.31 17.03 258.07 17.05 258 17.06 257.75 17.08 257.68 17.08 257.44 17.1 257.36 17.11 257.12 17.13 257.04 17.14 256.8 17.16 256.72 17.16 256.48 17.18 256.4 17.19 256.16 17.21 256.08 17.21 255.84 17.23 255.76 17.24 255.52 17.26 255.44 17.27 255.2 17.29 255.12 17.29 254.88 17.31 254.8 17.32 254.56 17.34 254.48 17.34 254.24 17.36 254.16 17.37 253.92 17.39 253.84 17.4 253.6 17.41 253.52 17.42 253.28 17.44 253.2 17.45 252.96 17.47 252.88 17.47 252.64 17.49 252.56 17.5 252.32 17.52 252.24 17.53 252 17.54 251.92 17.55 251.68 17.57 251.6 17.58 251.36 17.6 251.28 17.6 251.04 17.62 250.96 17.63 250.72 17.65 250.64 17.66 250.4 17.68 250.32 17.68 250.08 17.7 250 17.71 249.76 17.73 249.68 17.73 249.44 17.75 249.36 17.76 249.12 17.78 249.04 17.79 248.8 17.81 248.72 17.81 248.48 17.83 248.4 17.84 248.16 17.86 248.08 17.86 247.84 17.88 247.76 17.89 247.52 17.91 247.44 17.92 247.2 17.93 247.12 17.94 246.88 17.96 246.8 17.97 246.56 17.99 246.48 17.99 246.24 18.01 246.16 18.02 245.92 18.04 245.84 18.05 245.6 18.07 245.52 18.07 245.28 18.09 245.2 18.1 244.96 18.12 244.88 18.12 244.64 18.14 244.56 18.15 244.32 18.17 244.24 18.18 244 18.2 243.92 18.2 243.68 18.22 243.6 18.23 243.36 18.25 243.28 18.25 243.04 18.27 242.96 18.28 242.72 18.3 242.64 18.31 242.4 18.32 242.32 18.33 242.08 18.35 242 18.36 241.76 18.38 241.68 18.38 241.44 18.4 241.36 18.41 241.12 18.43 241.04 18.44 240.8 18.45 240.72 18.46 240.48 18.48 240.4 18.49 240.16 18.51 240.08 18.51 239.84 18.53 239.76 18.54 239.52 18.56 239.44 18.57 239.2 18.59 239.12 18.59 238.88 18.61 238.8 18.62 238.48 18.64 238.49 18.68 238.81 18.66 238.89 18.65 239.13 18.63 239.21 18.63 239.45 18.61 239.53 18.6 239.77 18.58 239.85 18.57 240.09 18.56 240.17 18.55 240.41 18.53 240.49 18.52 240.73 18.5 240.81 18.5 241.05 18.48 241.13 18.47 241.37 18.45 241.44 18.44 241.69 18.43 241.76 18.42 242 18.4 242.09 18.39 242.32 18.37 242.41 18.37 242.65 18.35 242.72 18.34 242.97 18.32 243.04 18.31 243.28 18.29 243.37 18.29 243.6 18.27 243.68 18.26 243.92 18.24 244 18.24 244.24 18.22 244.32 18.21 244.56 18.19 244.64 18.18 244.88 18.16 244.96 18.16 245.2 18.14 245.28 18.13 245.52 18.11 245.6 18.11 245.84 18.09 245.92 18.08 246.16 18.06 246.24 18.05 246.48 18.04 246.56 18.03 246.8 18.01 246.88 18 247.12 17.98 247.2 17.98 247.44 17.96 247.52 17.95 247.76 17.93 247.84 17.92 248.08 17.91 248.16 17.9 248.4 17.88 248.48 17.87 248.72 17.85 248.8 17.85 249.04 17.83 249.12 17.82 249.36 17.8 249.44 17.79 249.68 17.77 249.76 17.77 250 17.75 250.08 17.74 250.32 17.72 250.4 17.72 250.64 17.7 250.72 17.69 250.96 17.67 251.04 17.66 251.28 17.65 251.36 17.64 251.6 17.62 251.68 17.61 251.92 17.59 252 17.59 252.24 17.57 252.32 17.56 252.56 17.54 252.64 17.54 252.88 17.52 252.96 17.51 253.2 17.49 253.28 17.48 253.52 17.46 253.6 17.46 253.84 17.44 253.92 17.43 254.16 17.41 254.24 17.41 254.48 17.38 254.56 17.38 254.8 17.36 254.88 17.35 255.12 17.33 255.2 17.33 255.44 17.31 255.52 17.3 255.76 17.28 255.84 17.27 256.08 17.25 256.16 17.25 256.4 17.23 256.48 17.22 256.72 17.2 256.8 17.2 257.04 17.18 257.12 17.17 257.36 17.15 257.44 17.15 257.68 17.13 257.76 17.12 258 17.1 258.08 17.09 258.32 17.07 258.4 17.07 258.64 17.05 258.72 17.04 258.96 17.02 259.04 17.02 259.28 17 259.36 16.99 259.6 16.97 259.68 16.96 259.92 16.94 260 16.94 260.24 16.92 260.32 16.91 260.56 16.89 260.64 16.88 260.88 16.86 260.96 16.86 261.2 16.84 261.28 16.83 261.52 16.81 261.6 16.81 261.92 16.78 261.91 16.74 261.59 16.77 261.51 16.77"/><polygon class="cls-10" points="261.65 18.59 261.41 18.61 261.33 18.62 261.09 18.64 261.01 18.64 260.77 18.66 260.69 18.67 260.45 18.69 260.37 18.7 260.13 18.72 260.05 18.72 259.81 18.74 259.73 18.75 259.49 18.77 259.41 18.77 259.17 18.79 259.09 18.8 258.85 18.82 258.77 18.83 258.53 18.85 258.45 18.85 258.21 18.87 258.13 18.88 257.89 18.9 257.81 18.9 257.57 18.92 257.49 18.93 257.25 18.95 257.17 18.96 256.93 18.98 256.85 18.98 256.61 19 256.53 19.01 256.29 19.03 256.21 19.03 255.97 19.05 255.89 19.06 255.66 19.08 255.57 19.09 255.34 19.11 255.25 19.11 255.01 19.13 254.94 19.14 254.69 19.16 254.62 19.16 254.38 19.18 254.29 19.19 254.06 19.21 253.97 19.22 253.74 19.23 253.66 19.24 253.41 19.26 253.34 19.27 253.1 19.29 253.02 19.29 252.78 19.31 252.7 19.32 252.46 19.34 252.38 19.35 252.14 19.36 252.06 19.37 251.82 19.39 251.74 19.4 251.5 19.42 251.42 19.42 251.18 19.44 251.1 19.45 250.86 19.47 250.78 19.48 250.54 19.5 250.46 19.5 250.22 19.52 250.14 19.53 249.9 19.55 249.82 19.55 249.58 19.57 249.5 19.58 249.26 19.6 249.18 19.61 248.94 19.63 248.86 19.63 248.62 19.65 248.54 19.66 248.3 19.68 248.22 19.68 247.98 19.7 247.9 19.71 247.66 19.73 247.58 19.74 247.34 19.75 247.26 19.76 247.02 19.78 246.94 19.79 246.7 19.81 246.62 19.81 246.38 19.83 246.3 19.84 246.06 19.86 245.98 19.87 245.74 19.88 245.66 19.89 245.42 19.91 245.34 19.92 245.1 19.94 245.02 19.94 244.78 19.96 244.7 19.97 244.46 19.99 244.38 20 244.14 20.02 244.06 20.02 243.82 20.04 243.74 20.05 243.5 20.07 243.42 20.07 243.18 20.09 243.1 20.1 242.86 20.12 242.78 20.13 242.54 20.15 242.46 20.15 242.22 20.17 242.14 20.18 241.9 20.2 241.82 20.2 241.58 20.22 241.5 20.23 241.26 20.25 241.18 20.26 240.94 20.27 240.86 20.28 240.62 20.3 240.54 20.31 240.3 20.33 240.22 20.33 239.98 20.35 239.9 20.36 239.66 20.38 239.58 20.39 239.34 20.41 239.26 20.41 239.02 20.43 238.94 20.44 238.62 20.46 238.63 20.5 238.94 20.48 239.03 20.47 239.26 20.45 239.34 20.45 239.59 20.43 239.66 20.42 239.91 20.4 239.98 20.39 240.22 20.38 240.3 20.37 240.54 20.35 240.62 20.34 240.86 20.32 240.94 20.32 241.18 20.3 241.26 20.29 241.5 20.27 241.58 20.26 241.82 20.25 241.9 20.24 242.14 20.22 242.22 20.21 242.46 20.19 242.54 20.19 242.78 20.17 242.86 20.16 243.1 20.14 243.18 20.13 243.42 20.11 243.5 20.11 243.74 20.09 243.82 20.08 244.06 20.06 244.14 20.06 244.38 20.04 244.46 20.03 244.7 20.01 244.78 20 245.02 19.98 245.1 19.98 245.34 19.96 245.42 19.95 245.66 19.93 245.74 19.93 245.98 19.91 246.06 19.9 246.3 19.88 246.38 19.88 246.62 19.86 246.7 19.85 246.94 19.83 247.02 19.82 247.26 19.8 247.34 19.8 247.58 19.78 247.66 19.77 247.9 19.75 247.98 19.75 248.22 19.72 248.3 19.72 248.54 19.7 248.62 19.69 248.86 19.67 248.94 19.67 249.18 19.65 249.26 19.64 249.5 19.62 249.58 19.61 249.82 19.59 249.9 19.59 250.14 19.57 250.22 19.56 250.46 19.54 250.54 19.54 250.78 19.52 250.86 19.51 251.1 19.49 251.18 19.48 251.42 19.47 251.5 19.46 251.74 19.44 251.82 19.43 252.06 19.41 252.14 19.41 252.38 19.39 252.46 19.38 252.7 19.36 252.78 19.36 253.02 19.34 253.1 19.33 253.34 19.31 253.42 19.3 253.66 19.28 253.74 19.28 253.98 19.26 254.06 19.25 254.3 19.23 254.38 19.22 254.62 19.2 254.7 19.2 254.94 19.18 255.02 19.17 255.26 19.15 255.34 19.15 255.58 19.13 255.66 19.12 255.9 19.1 255.98 19.09 256.22 19.07 256.3 19.07 256.54 19.05 256.62 19.04 256.86 19.02 256.94 19.02 257.18 19 257.26 18.99 257.5 18.97 257.58 18.97 257.82 18.95 257.9 18.94 258.14 18.92 258.22 18.91 258.46 18.89 258.54 18.89 258.78 18.87 258.86 18.86 259.1 18.84 259.18 18.84 259.42 18.82 259.5 18.81 259.74 18.79 259.82 18.78 260.06 18.76 260.14 18.76 260.38 18.74 260.46 18.73 260.7 18.71 260.77 18.7 261.01 18.68 261.1 18.68 261.33 18.66 261.42 18.65 261.65 18.63 261.74 18.63 262.06 18.6 262.05 18.56 261.73 18.59 261.65 18.59"/><polygon class="cls-10" points="261.79 20.41 261.55 20.43 261.47 20.44 261.23 20.46 261.15 20.46 260.91 20.48 260.83 20.49 260.59 20.51 260.51 20.52 260.27 20.54 260.19 20.54 259.95 20.56 259.87 20.57 259.63 20.59 259.55 20.59 259.31 20.61 259.23 20.62 258.99 20.64 258.91 20.65 258.67 20.67 258.59 20.67 258.35 20.69 258.27 20.7 258.03 20.72 257.95 20.72 257.71 20.74 257.63 20.75 257.39 20.77 257.31 20.78 257.07 20.8 256.99 20.8 256.75 20.82 256.67 20.83 256.43 20.85 256.35 20.85 256.11 20.87 256.03 20.88 255.79 20.9 255.71 20.91 255.47 20.93 255.39 20.93 255.15 20.95 255.07 20.96 254.83 20.98 254.75 20.98 254.51 21 254.43 21.01 254.19 21.03 254.11 21.04 253.87 21.06 253.79 21.06 253.55 21.08 253.47 21.09 253.23 21.11 253.15 21.11 252.91 21.13 252.83 21.14 252.59 21.16 252.51 21.17 252.27 21.18 252.19 21.19 251.95 21.21 251.88 21.22 251.63 21.24 251.56 21.24 251.31 21.26 251.24 21.27 251 21.29 250.91 21.3 250.68 21.32 250.59 21.32 250.35 21.34 250.28 21.35 250.03 21.37 249.96 21.37 249.72 21.39 249.64 21.4 249.4 21.42 249.32 21.43 249.08 21.45 249 21.45 248.76 21.47 248.68 21.48 248.44 21.5 248.36 21.5 248.12 21.52 248.04 21.53 247.8 21.55 247.72 21.56 247.48 21.57 247.4 21.58 247.16 21.6 247.08 21.61 246.84 21.63 246.76 21.63 246.52 21.65 246.44 21.66 246.2 21.68 246.12 21.69 245.88 21.7 245.8 21.71 245.56 21.73 245.48 21.74 245.24 21.76 245.16 21.76 244.92 21.78 244.84 21.79 244.6 21.81 244.52 21.82 244.28 21.84 244.2 21.84 243.96 21.86 243.88 21.87 243.64 21.89 243.56 21.89 243.32 21.91 243.24 21.92 243 21.94 242.92 21.95 242.68 21.97 242.6 21.97 242.36 21.99 242.28 22 242.04 22.02 241.96 22.02 241.72 22.04 241.64 22.05 241.4 22.07 241.32 22.08 241.08 22.09 241 22.1 240.76 22.12 240.68 22.13 240.44 22.15 240.36 22.15 240.12 22.17 240.04 22.18 239.8 22.2 239.72 22.21 239.48 22.22 239.4 22.23 239.16 22.25 239.08 22.26 238.76 22.28 238.76 22.32 239.08 22.3 239.16 22.29 239.4 22.27 239.48 22.27 239.72 22.25 239.8 22.24 240.04 22.22 240.12 22.21 240.36 22.2 240.44 22.19 240.68 22.17 240.76 22.16 241 22.14 241.08 22.14 241.32 22.12 241.4 22.11 241.64 22.09 241.72 22.08 241.96 22.07 242.04 22.06 242.28 22.04 242.36 22.03 242.6 22.01 242.68 22.01 242.92 21.99 243 21.98 243.24 21.96 243.32 21.95 243.56 21.93 243.64 21.93 243.88 21.91 243.96 21.9 244.2 21.88 244.28 21.88 244.52 21.86 244.6 21.85 244.84 21.83 244.92 21.82 245.16 21.81 245.24 21.8 245.48 21.78 245.56 21.77 245.8 21.75 245.88 21.75 246.12 21.73 246.2 21.72 246.44 21.7 246.52 21.7 246.76 21.68 246.84 21.67 247.08 21.65 247.16 21.64 247.4 21.62 247.48 21.62 247.72 21.6 247.8 21.59 248.04 21.57 248.12 21.57 248.36 21.54 248.44 21.54 248.68 21.52 248.76 21.51 249 21.49 249.08 21.49 249.32 21.47 249.4 21.46 249.64 21.44 249.72 21.43 249.96 21.41 250.04 21.41 250.28 21.39 250.36 21.38 250.6 21.36 250.68 21.36 250.92 21.34 251 21.33 251.24 21.31 251.32 21.31 251.56 21.29 251.64 21.28 251.88 21.26 251.96 21.25 252.2 21.23 252.28 21.23 252.52 21.21 252.6 21.2 252.84 21.18 252.92 21.18 253.16 21.16 253.24 21.15 253.48 21.13 253.56 21.12 253.8 21.1 253.88 21.1 254.12 21.08 254.2 21.07 254.44 21.05 254.52 21.04 254.76 21.02 254.84 21.02 255.08 21 255.16 20.99 255.4 20.97 255.48 20.97 255.72 20.95 255.8 20.94 256.04 20.92 256.12 20.91 256.36 20.9 256.44 20.89 256.68 20.87 256.76 20.86 257 20.84 257.07 20.84 257.31 20.82 257.39 20.81 257.63 20.79 257.71 20.79 257.95 20.77 258.04 20.76 258.27 20.74 258.36 20.73 258.6 20.71 258.68 20.71 258.92 20.69 259 20.68 259.24 20.66 259.31 20.66 259.55 20.63 259.63 20.63 259.87 20.61 259.95 20.6 260.19 20.58 260.27 20.58 260.51 20.56 260.59 20.55 260.83 20.53 260.91 20.52 261.15 20.5 261.23 20.5 261.47 20.48 261.55 20.47 261.79 20.45 261.87 20.45 262.19 20.42 262.19 20.38 261.87 20.41 261.79 20.41"/><polygon class="cls-10" points="261.93 22.23 261.69 22.25 261.61 22.26 261.37 22.28 261.29 22.28 261.05 22.3 260.97 22.31 260.73 22.33 260.65 22.34 260.41 22.36 260.33 22.36 260.09 22.38 260.01 22.39 259.77 22.41 259.69 22.41 259.45 22.43 259.37 22.44 259.13 22.46 259.05 22.47 258.81 22.49 258.73 22.49 258.49 22.51 258.41 22.52 258.17 22.54 258.09 22.54 257.85 22.56 257.77 22.57 257.53 22.59 257.45 22.6 257.21 22.62 257.13 22.62 256.89 22.64 256.81 22.65 256.57 22.67 256.49 22.67 256.25 22.69 256.17 22.7 255.93 22.72 255.85 22.73 255.61 22.75 255.53 22.75 255.29 22.77 255.21 22.78 254.97 22.8 254.89 22.8 254.65 22.82 254.57 22.83 254.33 22.85 254.25 22.86 254.01 22.88 253.93 22.88 253.69 22.9 253.61 22.91 253.37 22.93 253.29 22.93 253.05 22.95 252.97 22.96 252.73 22.98 252.65 22.99 252.41 23.01 252.33 23.01 252.09 23.03 252.01 23.04 251.77 23.06 251.69 23.06 251.45 23.08 251.37 23.09 251.13 23.11 251.05 23.12 250.81 23.13 250.73 23.14 250.49 23.16 250.41 23.17 250.17 23.19 250.09 23.19 249.85 23.21 249.77 23.22 249.53 23.24 249.45 23.25 249.21 23.27 249.13 23.27 248.89 23.29 248.81 23.3 248.57 23.32 248.49 23.32 248.25 23.34 248.18 23.35 247.94 23.37 247.85 23.38 247.62 23.4 247.53 23.4 247.29 23.42 247.22 23.43 246.97 23.45 246.9 23.45 246.66 23.47 246.57 23.48 246.34 23.5 246.25 23.51 246.01 23.52 245.94 23.53 245.7 23.55 245.62 23.56 245.38 23.58 245.3 23.58 245.06 23.6 244.98 23.61 244.74 23.63 244.66 23.64 244.42 23.66 244.34 23.66 244.1 23.68 244.02 23.69 243.78 23.71 243.7 23.71 243.46 23.73 243.38 23.74 243.14 23.76 243.06 23.77 242.82 23.79 242.74 23.79 242.5 23.81 242.42 23.82 242.18 23.84 242.1 23.84 241.86 23.86 241.78 23.87 241.54 23.89 241.46 23.9 241.22 23.91 241.14 23.92 240.9 23.94 240.82 23.95 240.58 23.97 240.5 23.97 240.26 23.99 240.18 24 239.94 24.02 239.86 24.03 239.62 24.04 239.54 24.05 239.3 24.07 239.22 24.08 238.9 24.1 238.9 24.15 239.22 24.12 239.3 24.11 239.54 24.09 239.62 24.09 239.86 24.07 239.94 24.06 240.18 24.04 240.26 24.03 240.5 24.02 240.58 24.01 240.82 23.99 240.9 23.98 241.14 23.96 241.22 23.96 241.46 23.94 241.54 23.93 241.78 23.91 241.86 23.91 242.1 23.88 242.18 23.88 242.42 23.86 242.5 23.85 242.74 23.83 242.82 23.83 243.06 23.81 243.14 23.8 243.38 23.78 243.46 23.77 243.7 23.75 243.78 23.75 244.02 23.73 244.1 23.72 244.34 23.7 244.42 23.7 244.66 23.68 244.74 23.67 244.98 23.65 245.06 23.65 245.3 23.63 245.38 23.62 245.62 23.6 245.7 23.59 245.94 23.57 246.02 23.57 246.26 23.55 246.34 23.54 246.58 23.52 246.66 23.52 246.9 23.5 246.98 23.49 247.22 23.47 247.3 23.46 247.54 23.44 247.62 23.44 247.86 23.42 247.94 23.41 248.18 23.39 248.26 23.38 248.5 23.36 248.58 23.36 248.82 23.34 248.9 23.33 249.14 23.31 249.22 23.31 249.46 23.29 249.54 23.28 249.78 23.26 249.86 23.25 250.1 23.23 250.18 23.23 250.42 23.21 250.5 23.2 250.74 23.18 250.82 23.18 251.06 23.16 251.14 23.15 251.38 23.13 251.46 23.13 251.7 23.11 251.78 23.1 252.02 23.08 252.1 23.07 252.34 23.05 252.42 23.05 252.66 23.03 252.74 23.02 252.98 23 253.06 23 253.3 22.97 253.38 22.97 253.62 22.95 253.69 22.94 253.94 22.92 254.01 22.92 254.25 22.9 254.34 22.89 254.57 22.87 254.66 22.86 254.9 22.84 254.97 22.84 255.22 22.82 255.29 22.81 255.53 22.79 255.61 22.79 255.85 22.77 255.93 22.76 256.17 22.74 256.25 22.73 256.49 22.72 256.57 22.71 256.81 22.69 256.89 22.68 257.13 22.66 257.21 22.66 257.45 22.64 257.53 22.63 257.77 22.61 257.85 22.61 258.09 22.59 258.17 22.58 258.41 22.56 258.49 22.55 258.73 22.53 258.81 22.53 259.05 22.51 259.13 22.5 259.37 22.48 259.45 22.47 259.69 22.46 259.77 22.45 260.01 22.43 260.09 22.42 260.33 22.4 260.41 22.4 260.65 22.38 260.73 22.37 260.97 22.35 261.05 22.34 261.29 22.33 261.37 22.32 261.61 22.3 261.69 22.29 261.93 22.27 262.01 22.27 262.33 22.24 262.33 22.2 262.01 22.23 261.93 22.23"/><polygon class="cls-10" points="262.07 24.05 261.83 24.07 261.75 24.08 261.51 24.1 261.43 24.1 261.19 24.12 261.11 24.13 260.87 24.15 260.79 24.16 260.55 24.18 260.47 24.18 260.23 24.2 260.15 24.21 259.91 24.23 259.83 24.23 259.59 24.25 259.51 24.26 259.27 24.28 259.19 24.29 258.95 24.31 258.87 24.31 258.63 24.33 258.55 24.34 258.31 24.36 258.23 24.36 257.99 24.38 257.91 24.39 257.67 24.41 257.59 24.42 257.35 24.44 257.27 24.44 257.03 24.46 256.95 24.47 256.71 24.49 256.63 24.49 256.39 24.51 256.31 24.52 256.07 24.54 255.99 24.55 255.75 24.57 255.67 24.57 255.43 24.59 255.35 24.6 255.11 24.62 255.03 24.62 254.79 24.64 254.71 24.65 254.47 24.67 254.39 24.68 254.15 24.7 254.07 24.7 253.83 24.72 253.75 24.73 253.51 24.75 253.43 24.75 253.19 24.77 253.11 24.78 252.87 24.8 252.79 24.81 252.55 24.83 252.47 24.83 252.23 24.85 252.15 24.86 251.91 24.88 251.83 24.88 251.59 24.9 251.51 24.91 251.27 24.93 251.19 24.94 250.95 24.95 250.87 24.96 250.63 24.98 250.55 24.99 250.31 25.01 250.23 25.01 249.99 25.03 249.91 25.04 249.67 25.06 249.59 25.07 249.35 25.09 249.27 25.09 249.03 25.11 248.95 25.12 248.71 25.14 248.63 25.14 248.39 25.16 248.31 25.17 248.07 25.19 247.99 25.2 247.75 25.22 247.67 25.22 247.43 25.24 247.35 25.25 247.11 25.27 247.03 25.27 246.79 25.29 246.71 25.3 246.47 25.32 246.39 25.33 246.15 25.34 246.07 25.35 245.83 25.37 245.75 25.38 245.51 25.4 245.43 25.4 245.19 25.42 245.11 25.43 244.87 25.45 244.79 25.46 244.55 25.47 244.47 25.48 244.24 25.5 244.16 25.51 243.91 25.53 243.84 25.53 243.59 25.55 243.51 25.56 243.28 25.58 243.19 25.59 242.96 25.61 242.88 25.61 242.63 25.63 242.56 25.64 242.31 25.66 242.24 25.66 242 25.68 241.92 25.69 241.68 25.71 241.6 25.72 241.36 25.73 241.28 25.74 241.04 25.76 240.96 25.77 240.72 25.79 240.64 25.79 240.4 25.81 240.32 25.82 240.08 25.84 240 25.85 239.76 25.86 239.68 25.87 239.44 25.89 239.36 25.9 239.04 25.92 239.04 25.97 239.36 25.94 239.44 25.93 239.68 25.91 239.76 25.91 240 25.89 240.08 25.88 240.32 25.86 240.4 25.85 240.64 25.84 240.72 25.83 240.96 25.81 241.04 25.8 241.28 25.78 241.36 25.78 241.6 25.76 241.68 25.75 241.92 25.73 242 25.72 242.24 25.7 242.32 25.7 242.56 25.68 242.64 25.67 242.88 25.65 242.96 25.65 243.2 25.63 243.28 25.62 243.52 25.6 243.6 25.59 243.84 25.57 243.92 25.57 244.16 25.55 244.24 25.54 244.48 25.52 244.56 25.52 244.8 25.5 244.88 25.49 245.12 25.47 245.2 25.47 245.44 25.45 245.52 25.44 245.76 25.42 245.84 25.41 246.08 25.39 246.16 25.39 246.4 25.37 246.48 25.36 246.72 25.34 246.8 25.34 247.04 25.32 247.12 25.31 247.36 25.29 247.44 25.28 247.68 25.26 247.76 25.26 248 25.24 248.08 25.23 248.32 25.21 248.4 25.2 248.64 25.18 248.72 25.18 248.96 25.16 249.04 25.15 249.28 25.13 249.35 25.13 249.59 25.11 249.68 25.1 249.91 25.08 250 25.07 250.24 25.06 250.31 25.05 250.56 25.03 250.63 25.02 250.88 25 250.96 25 251.19 24.98 251.28 24.97 251.51 24.95 251.59 24.95 251.84 24.93 251.91 24.92 252.15 24.9 252.23 24.89 252.47 24.87 252.55 24.87 252.79 24.85 252.87 24.84 253.11 24.82 253.19 24.82 253.43 24.79 253.51 24.79 253.75 24.77 253.83 24.76 254.07 24.74 254.15 24.74 254.39 24.72 254.47 24.71 254.71 24.69 254.79 24.68 255.03 24.66 255.11 24.66 255.35 24.64 255.43 24.63 255.67 24.61 255.75 24.61 255.99 24.59 256.07 24.58 256.31 24.56 256.39 24.56 256.63 24.54 256.71 24.53 256.95 24.51 257.03 24.5 257.27 24.48 257.35 24.48 257.59 24.46 257.67 24.45 257.91 24.43 257.99 24.43 258.23 24.41 258.31 24.4 258.55 24.38 258.63 24.37 258.87 24.35 258.95 24.35 259.19 24.33 259.27 24.32 259.51 24.3 259.59 24.29 259.83 24.28 259.91 24.27 260.15 24.25 260.23 24.24 260.47 24.22 260.55 24.22 260.79 24.2 260.87 24.19 261.11 24.17 261.19 24.16 261.43 24.15 261.51 24.14 261.75 24.12 261.83 24.11 262.07 24.09 262.15 24.09 262.47 24.06 262.47 24.02 262.15 24.05 262.07 24.05"/><polygon class="cls-10" points="262.2 25.87 261.96 25.89 261.88 25.9 261.64 25.92 261.57 25.92 261.33 25.94 261.25 25.95 261.01 25.97 260.93 25.98 260.69 26 260.61 26 260.37 26.02 260.29 26.03 260.05 26.05 259.97 26.05 259.73 26.07 259.65 26.08 259.41 26.1 259.33 26.11 259.09 26.13 259.01 26.13 258.77 26.15 258.69 26.16 258.45 26.18 258.37 26.18 258.13 26.2 258.05 26.21 257.81 26.23 257.73 26.24 257.49 26.26 257.41 26.26 257.17 26.28 257.09 26.29 256.85 26.31 256.77 26.31 256.53 26.33 256.45 26.34 256.21 26.36 256.13 26.37 255.89 26.39 255.81 26.39 255.57 26.41 255.49 26.42 255.25 26.44 255.17 26.44 254.93 26.46 254.85 26.47 254.61 26.49 254.53 26.5 254.29 26.52 254.21 26.52 253.97 26.54 253.89 26.55 253.65 26.57 253.57 26.57 253.33 26.59 253.25 26.6 253.01 26.62 252.93 26.63 252.69 26.65 252.61 26.65 252.37 26.67 252.29 26.68 252.05 26.7 251.97 26.7 251.73 26.72 251.65 26.73 251.41 26.75 251.33 26.76 251.09 26.78 251.01 26.78 250.77 26.8 250.69 26.81 250.45 26.83 250.37 26.83 250.13 26.85 250.05 26.86 249.81 26.88 249.73 26.89 249.49 26.91 249.41 26.91 249.17 26.93 249.09 26.94 248.85 26.96 248.77 26.96 248.53 26.98 248.45 26.99 248.21 27.01 248.13 27.02 247.89 27.04 247.81 27.04 247.57 27.06 247.49 27.07 247.25 27.09 247.17 27.09 246.93 27.11 246.85 27.12 246.61 27.14 246.53 27.15 246.29 27.16 246.21 27.17 245.97 27.19 245.89 27.2 245.65 27.22 245.57 27.22 245.33 27.24 245.25 27.25 245.01 27.27 244.93 27.28 244.69 27.29 244.61 27.3 244.37 27.32 244.29 27.33 244.05 27.35 243.97 27.35 243.73 27.37 243.65 27.38 243.41 27.4 243.33 27.41 243.09 27.43 243.01 27.43 242.77 27.45 242.69 27.46 242.45 27.48 242.37 27.48 242.13 27.5 242.05 27.51 241.81 27.53 241.73 27.54 241.49 27.56 241.41 27.56 241.17 27.58 241.09 27.59 240.85 27.61 240.78 27.61 240.53 27.63 240.46 27.64 240.22 27.66 240.13 27.67 239.9 27.68 239.81 27.69 239.57 27.71 239.5 27.72 239.18 27.74 239.18 27.79 239.5 27.76 239.58 27.75 239.82 27.73 239.9 27.73 240.14 27.71 240.22 27.7 240.46 27.68 240.54 27.68 240.78 27.66 240.86 27.65 241.1 27.63 241.18 27.62 241.42 27.6 241.5 27.6 241.74 27.58 241.82 27.57 242.06 27.55 242.14 27.54 242.38 27.52 242.46 27.52 242.7 27.5 242.78 27.49 243.02 27.47 243.1 27.47 243.34 27.45 243.42 27.44 243.66 27.42 243.74 27.41 243.98 27.4 244.06 27.39 244.3 27.37 244.38 27.36 244.62 27.34 244.7 27.34 244.94 27.32 245.02 27.31 245.26 27.29 245.34 27.29 245.58 27.27 245.66 27.26 245.9 27.24 245.97 27.23 246.22 27.21 246.29 27.21 246.53 27.19 246.62 27.18 246.85 27.16 246.94 27.16 247.18 27.13 247.25 27.13 247.5 27.11 247.57 27.1 247.81 27.08 247.89 27.08 248.13 27.06 248.21 27.05 248.45 27.03 248.53 27.02 248.77 27 248.85 27 249.09 26.98 249.17 26.97 249.41 26.95 249.49 26.95 249.73 26.93 249.81 26.92 250.05 26.9 250.13 26.9 250.37 26.88 250.45 26.87 250.69 26.85 250.77 26.84 251.01 26.82 251.09 26.82 251.33 26.8 251.41 26.79 251.65 26.77 251.73 26.77 251.97 26.75 252.05 26.74 252.29 26.72 252.37 26.71 252.61 26.69 252.69 26.69 252.93 26.67 253.01 26.66 253.25 26.64 253.33 26.63 253.57 26.61 253.65 26.61 253.89 26.59 253.97 26.58 254.21 26.56 254.29 26.56 254.53 26.54 254.61 26.53 254.85 26.51 254.93 26.5 255.17 26.48 255.25 26.48 255.49 26.46 255.57 26.45 255.81 26.43 255.89 26.43 256.13 26.41 256.21 26.4 256.45 26.38 256.53 26.38 256.77 26.36 256.85 26.35 257.09 26.33 257.17 26.32 257.41 26.3 257.49 26.3 257.73 26.28 257.81 26.27 258.05 26.25 258.13 26.25 258.37 26.23 258.45 26.22 258.69 26.2 258.77 26.19 259.01 26.17 259.09 26.17 259.33 26.15 259.41 26.14 259.65 26.12 259.73 26.11 259.97 26.1 260.05 26.09 260.29 26.07 260.37 26.06 260.61 26.04 260.69 26.04 260.93 26.02 261.01 26.01 261.25 25.99 261.33 25.98 261.57 25.97 261.65 25.96 261.89 25.94 261.97 25.93 262.21 25.91 262.29 25.91 262.61 25.88 262.61 25.84 262.29 25.87 262.2 25.87"/><polygon class="cls-11" points="243.34 27.96 243.4 27.95 241.56 3.73 241.5 3.73 243.34 27.96"/><path class="cls-12" d="M239.7,6.49a2.7,2.7,0,0,0,.72-.26,3.12,3.12,0,0,1,.87-.4L240,1.39a1.29,1.29,0,0,0-.38.12l-.92.31-1,.3L239,6.73l.3-.15A1.37,1.37,0,0,1,239.7,6.49Z"/><path class="cls-12" d="M257.46,0,257,4.8a6.74,6.74,0,0,1,1,.08,1.48,1.48,0,0,0,.42,0h.47a1.46,1.46,0,0,1,.51,0L259.89,0a11.06,11.06,0,0,0-1.41,0A4.35,4.35,0,0,1,257.46,0Z"/><polygon class="cls-2" points="256.04 97.65 233.19 95.96 234.72 70.62 257.56 72.31 256.04 97.65"/><polygon class="cls-3" points="255.73 97.21 232.88 95.52 234.41 70.19 257.25 71.88 255.73 97.21"/><polygon class="cls-13" points="255.74 97.21 255.72 97.21 257.24 71.88 257.26 71.88 255.74 97.21"/><path class="cls-13" d="M255.74,97.22h0l1.52-25.35h0Zm0,0,.41-6.92Z"/><polygon class="cls-13" points="254.74 97.14 254.72 97.14 256.25 71.81 256.27 71.81 254.74 97.14"/><path class="cls-13" d="M254.75,97.15h0l1.53-25.36h0Zm0,0,1.53-25.31Z"/><polygon class="cls-13" points="253.75 97.07 253.73 97.06 255.25 71.73 255.27 71.73 253.75 97.07"/><path class="cls-13" d="M253.76,97.08h0l1.52-25.35h0Zm0,0,1.52-25.31Z"/><polygon class="cls-13" points="252.76 96.99 252.74 96.99 254.26 71.66 254.28 71.66 252.76 96.99"/><path class="cls-13" d="M252.77,97h0l1.52-25.35h0Zm0,0,.61-10.12Z"/><polygon class="cls-13" points="251.76 96.92 251.74 96.92 253.27 71.59 253.29 71.59 251.76 96.92"/><path class="cls-13" d="M251.77,96.93h0l1.53-25.36h0Zm1.51-25.33-.42,6.92Z"/><polygon class="cls-13" points="250.77 96.85 250.75 96.84 252.27 71.51 252.29 71.51 250.77 96.85"/><path class="cls-13" d="M250.78,96.86h0l1.52-25.35h0Zm0,0,1.52-25.31Z"/><polygon class="cls-13" points="249.78 96.77 249.76 96.77 251.28 71.44 251.3 71.44 249.78 96.77"/><path class="cls-13" d="M249.79,96.78h0l1.52-25.35h0Zm0,0L250.2,90Z"/><polygon class="cls-13" points="248.78 96.7 248.76 96.7 250.29 71.36 250.31 71.37 248.78 96.7"/><path class="cls-13" d="M248.79,96.71h0l1.53-25.36h0Zm1.51-25.33-.42,6.92Z"/><polygon class="cls-13" points="247.79 96.63 247.77 96.62 249.29 71.29 249.31 71.29 247.79 96.63"/><path class="cls-13" d="M247.8,96.64h0l1.53-25.35h0Zm0,0,1.52-25.31Z"/><polygon class="cls-13" points="246.8 96.55 246.78 96.55 248.3 71.22 248.32 71.22 246.8 96.55"/><path class="cls-13" d="M246.81,96.56h0l1.52-25.35h0Zm0,0,1.52-25.31Z"/><polygon class="cls-13" points="245.8 96.48 245.78 96.48 247.31 71.15 247.33 71.15 245.8 96.48"/><path class="cls-13" d="M245.81,96.49h0l1.53-25.36h0Zm1.51-25.33L246.91,78Z"/><polygon class="cls-13" points="244.81 96.41 244.79 96.4 246.31 71.07 246.33 71.07 244.81 96.41"/><path class="cls-13" d="M244.82,96.42h0L246.31,71h0Zm0,0,1.52-25.31Z"/><polygon class="cls-13" points="243.82 96.33 243.8 96.33 245.32 71 245.34 71 243.82 96.33"/><path class="cls-13" d="M243.83,96.34h0L245.31,71h0Zm0,0L245.33,71Z"/><polygon class="cls-13" points="242.82 96.26 242.8 96.26 244.33 70.92 244.35 70.93 242.82 96.26"/><path class="cls-13" d="M242.83,96.27h0l1.53-25.36h0Zm1.51-25.33-.54,9Z"/><polygon class="cls-13" points="241.83 96.18 241.81 96.18 243.34 70.85 243.35 70.85 241.83 96.18"/><path class="cls-13" d="M241.84,96.2h0l1.53-25.35h0Zm0,0,.54-9Z"/><polygon class="cls-13" points="240.84 96.11 240.82 96.11 242.34 70.78 242.36 70.78 240.84 96.11"/><path class="cls-13" d="M240.85,96.12h0l1.52-25.35h0Zm0,0,1.52-25.31Z"/><polygon class="cls-13" points="239.84 96.04 239.82 96.04 241.35 70.7 241.37 70.71 239.84 96.04"/><path class="cls-13" d="M239.85,96h0l1.53-25.36h0Zm1.51-25.33-.42,6.92Z"/><polygon class="cls-13" points="238.85 95.96 238.83 95.96 240.35 70.63 240.38 70.63 238.85 95.96"/><path class="cls-13" d="M238.86,96h0l1.53-25.35h0Zm0,0,.41-6.81Z"/><polygon class="cls-13" points="237.86 95.89 237.84 95.89 239.36 70.56 239.38 70.56 237.86 95.89"/><path class="cls-13" d="M237.87,95.9h0l1.52-25.35h0Zm0,0,1.52-25.31Z"/><polygon class="cls-13" points="236.86 95.82 236.84 95.82 238.37 70.48 238.39 70.49 236.86 95.82"/><path class="cls-13" d="M236.87,95.83h0l1.53-25.36h0Zm1.51-25.33-.55,9.06Z"/><polygon class="cls-13" points="235.87 95.74 235.85 95.74 237.38 70.41 237.4 70.41 235.87 95.74"/><path class="cls-13" d="M235.88,95.76h0l1.53-25.35h0Zm0,0,.42-6.92Z"/><polygon class="cls-13" points="234.88 95.67 234.86 95.67 236.38 70.34 236.4 70.34 234.88 95.67"/><path class="cls-13" d="M234.89,95.68h0l1.52-25.35h0Zm0,0,1.52-25.31Z"/><polygon class="cls-13" points="233.88 95.6 233.87 95.6 235.39 70.26 235.41 70.27 233.88 95.6"/><path class="cls-13" d="M233.89,95.61h0l1.53-25.36h0Zm1.51-25.34-.4,6.81Z"/><polygon class="cls-13" points="232.89 95.52 232.87 95.52 234.4 70.19 234.41 70.19 232.89 95.52"/><path class="cls-13" d="M232.9,95.53h0l1.53-25.35h0Zm0,0,.42-6.92Z"/><polygon class="cls-13" points="255.72 97.22 232.88 95.53 232.88 95.51 255.73 97.2 255.72 97.22"/><path class="cls-13" d="M255.73,97.23h0l-22.85-1.69h0l22.86,1.69Zm-22.84-1.71,3,.23Z"/><polygon class="cls-13" points="255.79 96.12 232.95 94.43 232.95 94.41 255.79 96.1 255.79 96.12"/><path class="cls-13" d="M255.8,96.13l-22.86-1.69h0l22.85,1.69ZM233,94.42l22.82,1.69h0Z"/><polygon class="cls-13" points="255.86 95.02 233.01 93.33 233.01 93.31 255.86 95 255.86 95.02"/><path class="cls-13" d="M255.87,95h0L233,93.34h0ZM233,93.32,255.85,95h0Z"/><polygon class="cls-13" points="255.92 93.92 233.08 92.23 233.08 92.21 255.93 93.9 255.92 93.92"/><path class="cls-13" d="M255.93,93.93h0l-22.85-1.69h0l22.86,1.69Zm-22.84-1.71,22.82,1.69h0Z"/><polygon class="cls-13" points="255.99 92.82 233.15 91.13 233.15 91.11 255.99 92.8 255.99 92.82"/><path class="cls-13" d="M256,92.83h0l-22.85-1.69v0L256,92.79Zm-22.84-1.71L256,92.81h0Z"/><polygon class="cls-13" points="256.06 91.72 233.21 90.03 233.21 90 256.06 91.69 256.06 91.72"/><path class="cls-13" d="M256.07,91.73h0L233.2,90h0l22.86,1.69ZM233.22,90l22.83,1.68h0Z"/><polygon class="cls-13" points="256.12 90.61 233.28 88.93 233.28 88.9 256.12 90.59 256.12 90.61"/><path class="cls-13" d="M256.13,90.63h0l-22.85-1.69h0Zm-22.84-1.72,3,.23Z"/><polygon class="cls-13" points="256.19 89.51 233.34 87.82 233.35 87.8 256.19 89.49 256.19 89.51"/><path class="cls-13" d="M256.2,89.52h0l-22.86-1.69h0Zm-3.2-.25,3.14.23h0Z"/><polygon class="cls-13" points="256.25 88.41 233.41 86.72 233.41 86.7 256.26 88.39 256.25 88.41"/><path class="cls-13" d="M256.26,88.42h0L233.4,86.73h0Zm-22.84-1.71,22.83,1.69h0l-22.83-1.69Z"/><polygon class="cls-13" points="256.32 87.31 233.48 85.62 233.48 85.6 256.32 87.29 256.32 87.31"/><path class="cls-13" d="M256.33,87.32l-22.86-1.69h0l22.85,1.69Zm-22.84-1.71,22.82,1.69h0Z"/><polygon class="cls-13" points="256.39 86.21 233.54 84.52 233.54 84.5 256.39 86.19 256.39 86.21"/><path class="cls-13" d="M256.4,86.22h0l-22.86-1.69h0l22.85,1.69Zm-22.85-1.71,22.83,1.69h0l-22.83-1.69Z"/><polygon class="cls-13" points="256.45 85.11 233.61 83.42 233.61 83.4 256.45 85.09 256.45 85.11"/><path class="cls-13" d="M256.46,85.12h0L233.6,83.43h0l22.86,1.69Zm-22.84-1.71,22.82,1.69h0Z"/><polygon class="cls-13" points="256.52 84.01 233.68 82.32 233.68 82.3 256.52 83.99 256.52 84.01"/><path class="cls-13" d="M256.53,84h0l-22.85-1.69h0Zm-22.84-1.71,3.67.27Z"/><polygon class="cls-13" points="256.59 82.91 233.74 81.21 233.74 81.19 256.59 82.88 256.59 82.91"/><path class="cls-13" d="M256.6,82.92h0l-22.86-1.69h0Zm-3.06-.25,3,.22h0Z"/><polygon class="cls-13" points="256.65 81.8 233.81 80.11 233.81 80.09 256.65 81.78 256.65 81.8"/><path class="cls-13" d="M256.66,81.82h0l-22.86-1.7h0l22.85,1.69ZM233.82,80.1l22.82,1.69h0Z"/><polygon class="cls-13" points="256.72 80.7 233.88 79.01 233.88 78.99 256.72 80.68 256.72 80.7"/><path class="cls-13" d="M256.73,80.71h0L233.86,79h0l22.86,1.69ZM233.89,79l22.82,1.69h0Z"/><polygon class="cls-13" points="256.79 79.6 233.94 77.91 233.94 77.89 256.79 79.58 256.79 79.6"/><path class="cls-13" d="M256.79,79.61h0l-22.86-1.69h0l22.86,1.69ZM234,77.9l22.83,1.69h0Z"/><polygon class="cls-13" points="256.85 78.5 234.01 76.81 234.01 76.79 256.85 78.48 256.85 78.5"/><path class="cls-13" d="M256.86,78.51h0L234,76.82h0l22.85,1.69ZM234,76.8l22.82,1.69h0Z"/><polygon class="cls-13" points="256.92 77.4 234.07 75.71 234.07 75.69 256.92 77.38 256.92 77.4"/><path class="cls-13" d="M256.93,77.41h0l-22.87-1.69h0l22.85,1.69ZM234.08,75.7l3,.22Z"/><polygon class="cls-13" points="256.98 76.3 234.14 74.61 234.14 74.58 256.99 76.27 256.98 76.3"/><path class="cls-13" d="M257,76.31h0l-22.87-1.69h0L257,76.26ZM253.94,76l3,.23h0Z"/><polygon class="cls-13" points="257.05 75.19 234.21 73.5 234.21 73.48 257.05 75.17 257.05 75.19"/><path class="cls-13" d="M257.06,75.21,234.2,73.52h0ZM234.22,73.5,257,75.18h0L234.18,73.5Z"/><polygon class="cls-13" points="257.12 74.09 234.27 72.4 234.27 72.38 257.12 74.07 257.12 74.09"/><path class="cls-13" d="M257.13,74.11h0l-22.86-1.69h0L257.13,74Zm-22.85-1.72,22.83,1.69h0l-22.83-1.69Z"/><polygon class="cls-13" points="257.18 72.99 234.34 71.3 234.34 71.28 257.18 72.97 257.18 72.99"/><path class="cls-13" d="M257.19,73h0l-22.85-1.69h0Zm-22.84-1.71L257.17,73h0l-22.82-1.69Z"/><polygon class="cls-13" points="257.25 71.89 234.41 70.2 234.41 70.18 257.25 71.87 257.25 71.89"/><path class="cls-13" d="M257.26,71.9l-22.87-1.69h0l22.86,1.69Zm-22.84-1.71,22.82,1.69h0Z"/><path class="cls-14" d="M250.1,70.78v-1a2.54,2.54,0,0,1,0-.39L242.6,69a3.75,3.75,0,0,1,0,.82c0,.59,0,1.19,0,1.79L250,72A8.52,8.52,0,0,1,250.1,70.78Z"/><polygon class="cls-2" points="124.04 32.65 101.19 30.96 102.72 5.62 125.56 7.31 124.04 32.65"/><polygon class="cls-3" points="123.73 32.21 100.88 30.52 102.41 5.19 125.25 6.88 123.73 32.21"/><polygon class="cls-13" points="123.74 32.21 123.72 32.21 125.24 6.88 125.26 6.88 123.74 32.21"/><path class="cls-13" d="M123.74,32.22h0l1.52-25.35h0Zm0,0,.41-6.92Z"/><polygon class="cls-13" points="122.74 32.14 122.72 32.14 124.25 6.81 124.27 6.81 122.74 32.14"/><path class="cls-13" d="M122.75,32.15h0l1.53-25.36h0Zm0,0,1.51-25.33Z"/><polygon class="cls-13" points="121.75 32.07 121.73 32.06 123.25 6.73 123.27 6.73 121.75 32.07"/><path class="cls-13" d="M121.76,32.08h0l1.48-25.36h0Zm0,0,1.52-25.31Z"/><polygon class="cls-13" points="120.76 31.99 120.74 31.99 122.26 6.66 122.28 6.66 120.76 31.99"/><path class="cls-13" d="M120.77,32h0l1.52-25.35h0Zm0,0,.61-10.12Z"/><polygon class="cls-13" points="119.76 31.92 119.74 31.92 121.27 6.59 121.29 6.59 119.76 31.92"/><path class="cls-13" d="M119.77,31.93h0L121.3,6.57h0ZM121.28,6.6l-.42,6.92Z"/><polygon class="cls-13" points="118.77 31.85 118.75 31.84 120.27 6.51 120.29 6.51 118.77 31.85"/><path class="cls-13" d="M118.78,31.86h0L120.3,6.51h0Zm0,0,1.5-25.34Z"/><polygon class="cls-13" points="117.78 31.77 117.76 31.77 119.28 6.44 119.3 6.44 117.78 31.77"/><path class="cls-13" d="M117.79,31.78h0l1.52-25.35h0Zm0,0L118.2,25Z"/><polygon class="cls-13" points="116.78 31.7 116.76 31.7 118.29 6.36 118.31 6.37 116.78 31.7"/><path class="cls-13" d="M116.79,31.71h0l1.53-25.36h0ZM118.3,6.38l-.42,6.92Z"/><polygon class="cls-13" points="115.79 31.63 115.77 31.62 117.29 6.29 117.31 6.29 115.79 31.63"/><path class="cls-13" d="M115.8,31.64h0l1.53-25.35h0Zm0,0L117.3,6.3Z"/><polygon class="cls-13" points="114.8 31.55 114.78 31.55 116.3 6.22 116.32 6.22 114.8 31.55"/><path class="cls-13" d="M114.81,31.56h0l1.52-25.35h0Zm0,0,1.52-25.31Z"/><polygon class="cls-13" points="113.8 31.48 113.78 31.48 115.31 6.15 115.33 6.15 113.8 31.48"/><path class="cls-13" d="M113.81,31.49h0L115.3,6.13h0Zm1.51-25.33L114.91,13Z"/><polygon class="cls-13" points="112.81 31.41 112.79 31.4 114.31 6.07 114.33 6.07 112.81 31.41"/><path class="cls-13" d="M112.82,31.42h0L114.31,6h0Zm0,0,1.52-25.31Z"/><polygon class="cls-13" points="111.82 31.33 111.8 31.33 113.32 6 113.34 6 111.82 31.33"/><path class="cls-13" d="M111.83,31.34h0L113.31,6h0Zm0,0L113.33,6Z"/><polygon class="cls-13" points="110.82 31.26 110.8 31.26 112.33 5.92 112.35 5.93 110.82 31.26"/><path class="cls-13" d="M110.83,31.27h0l1.53-25.36h0Zm1.51-25.33-.54,9Z"/><polygon class="cls-13" points="109.83 31.18 109.81 31.18 111.33 5.85 111.35 5.85 109.83 31.18"/><path class="cls-13" d="M109.84,31.2h0l1.53-25.35h0Zm0,0,.54-9Z"/><polygon class="cls-13" points="108.84 31.11 108.82 31.11 110.34 5.78 110.36 5.78 108.84 31.11"/><path class="cls-13" d="M108.85,31.12h0l1.52-25.35h0Zm0,0,1.52-25.31Z"/><polygon class="cls-13" points="107.84 31.04 107.83 31.04 109.35 5.7 109.37 5.71 107.84 31.04"/><path class="cls-13" d="M107.85,31h0l1.53-25.36h0Zm1.51-25.3-.42,6.92Z"/><polygon class="cls-13" points="106.85 30.96 106.83 30.96 108.36 5.63 108.38 5.63 106.85 30.96"/><path class="cls-13" d="M106.86,31h0l1.49-25.4h0Zm0,0,.41-6.81Z"/><polygon class="cls-13" points="105.86 30.89 105.84 30.89 107.36 5.56 107.38 5.56 105.86 30.89"/><path class="cls-13" d="M105.87,30.9h0l1.52-25.35h0Zm0,0,1.52-25.31Z"/><polygon class="cls-13" points="104.86 30.82 104.84 30.82 106.37 5.48 106.39 5.48 104.86 30.82"/><path class="cls-13" d="M104.87,30.83h0L106.4,5.47h0ZM106.38,5.5l-.55,9.06Z"/><polygon class="cls-13" points="103.87 30.74 103.85 30.74 105.38 5.41 105.39 5.41 103.87 30.74"/><path class="cls-13" d="M103.88,30.76h0l1.53-25.35h0Zm0,0,.42-6.92Z"/><polygon class="cls-13" points="102.88 30.67 102.86 30.67 104.38 5.34 104.4 5.34 102.88 30.67"/><path class="cls-13" d="M102.89,30.68h0l1.52-25.35h0Zm0,0,1.52-25.31Z"/><polygon class="cls-13" points="101.89 30.6 101.86 30.59 103.39 5.26 103.41 5.27 101.89 30.6"/><path class="cls-13" d="M101.89,30.61h0l1.53-25.36h0ZM103.4,5.27l-.4,6.81Z"/><polygon class="cls-13" points="100.89 30.52 100.87 30.52 102.4 5.19 102.42 5.19 100.89 30.52"/><path class="cls-13" d="M100.9,30.53h0l1.53-25.35h0Zm0,0,.42-6.92Z"/><polygon class="cls-13" points="123.72 32.22 100.88 30.53 100.88 30.51 123.73 32.2 123.72 32.22"/><path class="cls-13" d="M123.73,32.23h0l-22.85-1.69h0l22.86,1.69Zm-22.84-1.71,3,.23Z"/><polygon class="cls-13" points="123.79 31.12 100.95 29.43 100.95 29.41 123.79 31.1 123.79 31.12"/><path class="cls-13" d="M123.8,31.13l-22.86-1.69h0l22.85,1.69ZM101,29.42l22.82,1.69h0Z"/><polygon class="cls-13" points="123.86 30.02 101.01 28.33 101.02 28.31 123.86 30 123.86 30.02"/><path class="cls-13" d="M123.87,30h0L101,28.34h0ZM101,28.32,123.85,30h0Z"/><polygon class="cls-13" points="123.92 28.92 101.08 27.23 101.08 27.21 123.92 28.9 123.92 28.92"/><path class="cls-13" d="M123.93,28.93h0l-22.85-1.69h0l22.86,1.69Zm-22.84-1.71,22.82,1.69h0Z"/><polygon class="cls-13" points="123.99 27.82 101.15 26.13 101.15 26.11 123.99 27.8 123.99 27.82"/><path class="cls-13" d="M124,27.83h0l-22.85-1.69v-.05L124,27.79Zm-22.84-1.71L124,27.81h0Z"/><polygon class="cls-13" points="124.06 26.72 101.21 25.03 101.21 25 124.06 26.69 124.06 26.72"/><path class="cls-13" d="M124.07,26.73h0L101.2,25h0l22.86,1.69ZM101.22,25l22.83,1.68h0Z"/><polygon class="cls-13" points="124.12 25.61 101.28 23.93 101.28 23.9 124.12 25.59 124.12 25.61"/><path class="cls-13" d="M124.13,25.63h0l-22.85-1.69v-.05h0l22.85,1.69Zm-22.84-1.72,3,.23Z"/><polygon class="cls-13" points="124.19 24.51 101.34 22.82 101.35 22.8 124.19 24.49 124.19 24.51"/><path class="cls-13" d="M124.2,24.52h0l-22.86-1.69h0Zm-3.2-.25,3.14.23h0Z"/><polygon class="cls-13" points="124.25 23.41 101.41 21.72 101.41 21.7 124.26 23.39 124.25 23.41"/><path class="cls-13" d="M124.26,23.42h0L101.4,21.73h0Zm-22.84-1.71,22.83,1.69h0Z"/><polygon class="cls-13" points="124.32 22.31 101.48 20.62 101.48 20.6 124.32 22.29 124.32 22.31"/><path class="cls-13" d="M124.33,22.32l-22.86-1.69h0l22.85,1.69Zm-22.84-1.71,22.82,1.69h0Z"/><polygon class="cls-13" points="124.39 21.21 101.54 19.52 101.55 19.5 124.39 21.19 124.39 21.21"/><path class="cls-13" d="M124.4,21.22h0l-22.86-1.69h0l22.85,1.69Zm-22.85-1.71,22.83,1.69h0Z"/><polygon class="cls-13" points="124.45 20.11 101.61 18.42 101.61 18.4 124.45 20.09 124.45 20.11"/><path class="cls-13" d="M124.46,20.12h0L101.6,18.43v-.05h0l22.86,1.69Zm-22.84-1.71,22.82,1.69h0Z"/><polygon class="cls-13" points="124.52 19.01 101.68 17.32 101.68 17.29 124.52 18.98 124.52 19.01"/><path class="cls-13" d="M124.53,19h0l-22.85-1.69h0Zm-22.84-1.71,3.67.27Z"/><polygon class="cls-13" points="124.59 17.91 101.74 16.22 101.74 16.19 124.59 17.88 124.59 17.91"/><path class="cls-13" d="M124.6,17.92h0l-22.86-1.69v-.05h0l22.86,1.69Zm-3.06-.25,3,.22h0Z"/><polygon class="cls-13" points="124.65 16.8 101.81 15.11 101.81 15.09 124.65 16.78 124.65 16.8"/><path class="cls-13" d="M124.66,16.82h0l-22.86-1.7h0l22.85,1.69ZM101.82,15.1l22.82,1.69h0Z"/><polygon class="cls-13" points="124.72 15.7 101.88 14.01 101.88 13.99 124.72 15.68 124.72 15.7"/><path class="cls-13" d="M124.73,15.71h0L101.86,14h0l22.86,1.69ZM101.89,14l22.82,1.69h0Z"/><polygon class="cls-13" points="124.78 14.6 101.94 12.91 101.94 12.89 124.79 14.58 124.78 14.6"/><path class="cls-13" d="M124.79,14.61h0l-22.86-1.69h0ZM102,12.9l22.83,1.69h0Z"/><polygon class="cls-13" points="124.85 13.5 102.01 11.81 102.01 11.79 124.85 13.48 124.85 13.5"/><path class="cls-13" d="M124.86,13.51h0L102,11.82h0l22.85,1.69ZM102,11.8l22.82,1.69h0Z"/><polygon class="cls-13" points="124.92 12.4 102.07 10.71 102.08 10.69 124.92 12.38 124.92 12.4"/><path class="cls-13" d="M124.93,12.41h0l-22.87-1.69h0l22.85,1.69ZM102.08,10.7l3,.22Z"/><polygon class="cls-13" points="124.98 11.3 102.14 9.61 102.14 9.58 124.98 11.28 124.98 11.3"/><path class="cls-13" d="M125,11.31h0L102.13,9.62h0L125,11.26Zm-3-.25,3,.23h0Z"/><polygon class="cls-13" points="125.05 10.2 102.21 8.5 102.21 8.48 125.05 10.17 125.05 10.2"/><path class="cls-13" d="M125.06,10.21,102.2,8.52v0l22.86,1.69ZM102.22,8.5,125,10.18h0Z"/><polygon class="cls-13" points="125.12 9.09 102.27 7.4 102.27 7.38 125.12 9.07 125.12 9.09"/><path class="cls-13" d="M125.13,9.11h0l-22.87-1.7h0L125.13,9ZM102.28,7.39l22.83,1.69h0Z"/><polygon class="cls-13" points="125.18 7.99 102.34 6.3 102.34 6.28 125.18 7.97 125.18 7.99"/><path class="cls-13" d="M125.19,8h0L102.33,6.31h0L125.18,8ZM102.35,6.29,125.17,8h0Z"/><polygon class="cls-13" points="125.25 6.89 102.41 5.2 102.41 5.18 125.25 6.87 125.25 6.89"/><path class="cls-13" d="M125.26,6.9,102.39,5.21h0L125.25,6.9ZM102.42,5.19l22.82,1.69h0Z"/><path class="cls-14" d="M118.1,5.78v-1a2.54,2.54,0,0,1,0-.39L110.6,4a3.75,3.75,0,0,1,0,.82V6.65L118,7A8.52,8.52,0,0,1,118.1,5.78Z"/><path class="cls-2" d="M66.76,89.11l28.16,1.22L96.14,62.1,68,60.88Zm3-8.19a.89.89,0,1,1-.89-.89h0a.89.89,0,0,1,.93.85v0Zm.51-11.79a.89.89,0,1,1-.89-.89h0a.89.89,0,0,1,.93.85v0Z"/><path class="cls-3" d="M66.28,88.62l28.16,1.23,1.22-28.23L67.5,60.39Zm3-8.18a.89.89,0,1,1-.89-.89h0a.89.89,0,0,1,.93.85v0Zm.51-11.79a.89.89,0,1,1-.89-.89h0a.89.89,0,0,1,.93.85v0Z"/><path class="cls-15" d="M66.28,88.62l3.59.16,1.22-28.23-3.59-.16Zm3-8.18a.89.89,0,1,1-.89-.89h0a.89.89,0,0,1,.93.85v0Zm.51-11.79a.89.89,0,1,1-.89-.89h0a.89.89,0,0,1,.93.85v0Z"/></g></g><polygon class="cls-16" points="35.53 222.65 15.14 222.03 15.66 197.34 36.05 197.96 35.53 222.65"/><polygon class="cls-17" points="35.21 222.26 14.82 221.64 15.33 196.95 35.73 197.57 35.21 222.26"/><polygon class="cls-18" points="34.54 202.48 16.31 201.92 16.31 201.9 34.54 202.46 34.54 202.48"/><polygon class="cls-18" points="34.5 204.41 16.27 203.85 16.27 203.83 34.5 204.39 34.5 204.41"/><polygon class="cls-18" points="34.46 206.34 16.23 205.78 16.23 205.75 34.46 206.31 34.46 206.34"/><polygon class="cls-18" points="34.42 208.26 16.19 207.7 16.19 207.68 34.42 208.24 34.42 208.26"/><polygon class="cls-18" points="34.38 210.19 16.15 209.63 16.15 209.6 34.38 210.16 34.38 210.19"/><polygon class="cls-18" points="34.34 212.11 16.11 211.55 16.11 211.53 34.34 212.09 34.34 212.11"/><polygon class="cls-18" points="34.3 214.04 16.07 213.48 16.07 213.46 34.3 214.02 34.3 214.04"/><polygon class="cls-18" points="34.26 215.96 16.03 215.4 16.03 215.38 34.26 215.94 34.26 215.96"/><polygon class="cls-18" points="34.22 217.89 15.99 217.33 15.99 217.31 34.22 217.87 34.22 217.89"/><polygon class="cls-18" points="34.18 219.81 15.95 219.25 15.95 219.23 34.18 219.79 34.18 219.81"/><g class="cls-19"><path class="cls-20" d="M19.14,196.18c-.17-.23-.37-.43-.54-.66a1.24,1.24,0,0,1-.2-.29l-5,5.39a3,3,0,0,1,.46.57c.32.42.65.85,1,1.29l5-5.37A8.5,8.5,0,0,1,19.14,196.18Z"/></g><g class="cls-19"><path class="cls-20" d="M37.76,199.28c.07-.3.1-.61.17-.91A2.42,2.42,0,0,1,38,198l-6.44-2.22a3.29,3.29,0,0,1-.15.77c-.12.57-.24,1.13-.38,1.69l6.41,2.21A10.14,10.14,0,0,1,37.76,199.28Z"/></g><path class="cls-16" d="M264.5,265l-21.59,2.48,2.42,22,21.6-2.48Zm-20.43,3.91a.53.53,0,0,1,.46-.59.52.52,0,0,1,.57.47.54.54,0,0,1-.46.59A.52.52,0,0,1,244.07,268.9Zm.26,2.39a.53.53,0,0,1,.46-.58.53.53,0,0,1,.58.47.53.53,0,0,1-.46.58A.52.52,0,0,1,244.33,271.29Zm.27,2.4a.52.52,0,0,1,.46-.58.51.51,0,0,1,.57.46.53.53,0,0,1-.46.59A.52.52,0,0,1,244.6,273.69Zm.26,2.4a.54.54,0,0,1,.46-.59.53.53,0,1,1-.46.59Zm.27,2.4a.52.52,0,0,1,.45-.59.53.53,0,0,1,.12,1.05A.5.5,0,0,1,245.13,278.49Zm.26,2.39a.52.52,0,1,1,.57.47A.52.52,0,0,1,245.39,280.88Zm.26,2.4a.53.53,0,0,1,.46-.58.52.52,0,0,1,.58.46.52.52,0,1,1-1,.12Zm.27,2.4a.54.54,0,0,1,.46-.59.52.52,0,0,1,.57.47.54.54,0,0,1-.46.59A.52.52,0,0,1,245.92,285.68Zm.84,2.86a.51.51,0,0,1-.58-.46.52.52,0,1,1,1-.12A.51.51,0,0,1,246.76,288.54Z"/><path class="cls-3" d="M264.1,264.66l-21.6,2.47,2.43,22,21.59-2.47Zm-20.44,3.9a.54.54,0,0,1,.46-.59.53.53,0,0,1,.58.47.54.54,0,0,1-.46.59A.53.53,0,0,1,243.66,268.56Zm.27,2.4a.52.52,0,1,1,.57.46A.51.51,0,0,1,243.93,271Zm.26,2.39a.52.52,0,0,1,.46-.58.53.53,0,0,1,.12,1.05A.53.53,0,0,1,244.19,273.35Zm.26,2.4a.54.54,0,0,1,.46-.59.53.53,0,0,1,.58.47.52.52,0,1,1-1,.12Zm.27,2.4a.53.53,0,0,1,.46-.59.52.52,0,0,1,.57.47.54.54,0,0,1-.46.59A.52.52,0,0,1,244.72,278.15Zm.26,2.4a.52.52,0,1,1,.58.46A.51.51,0,0,1,245,280.55Zm.27,2.39a.52.52,0,1,1,1-.12.52.52,0,1,1-1,.12Zm.26,2.4a.54.54,0,0,1,.46-.59.53.53,0,1,1-.46.59Zm.84,2.86a.52.52,0,0,1-.58-.46.54.54,0,0,1,.46-.59.53.53,0,0,1,.12,1.05Z"/><g class="cls-19"><path class="cls-21" d="M245,266.39c.07.3.14.6.19.9s.12.65.18,1l8.57-1.66c-.08-.31-.14-.62-.19-.94a1,1,0,0,0-.09-.38.44.44,0,0,1-.05-.15.25.25,0,0,1,0-.12,1,1,0,0,0,0-.17,1.55,1.55,0,0,1-.12-.47L244.89,266A2.53,2.53,0,0,1,245,266.39Z"/></g><path class="cls-16" d="M66.27,397.69l28.15,1.22,1.22-28.23-28.15-1.22Zm3-8.19a.89.89,0,1,1-.89-.89A.89.89,0,0,1,69.3,389.5Zm.51-11.79a.89.89,0,1,1-.89-.89A.89.89,0,0,1,69.81,377.71Z"/><path class="cls-3" d="M65.79,397.2l28.15,1.23,1.22-28.23L67,369Zm3-8.18a.89.89,0,1,1-.89-.89A.89.89,0,0,1,68.82,389Zm.51-11.79a.89.89,0,1,1-.89-.89A.89.89,0,0,1,69.33,377.23Z"/><path class="cls-15" d="M65.79,397.2l3.58.16,1.22-28.23L67,369Zm3-8.18a.89.89,0,1,1-.89-.89A.89.89,0,0,1,68.82,389Zm.51-11.79a.89.89,0,1,1-.89-.89A.89.89,0,0,1,69.33,377.23Z"/></g></g></g></svg>