<svg xmlns="http://www.w3.org/2000/svg" viewBox="0 0 301.43 129.9"><defs><style>.cls-1{isolation:isolate;}.cls-2{fill:#cfd0d2;mix-blend-mode:multiply;}.cls-3{fill:#fff;}.cls-12,.cls-14,.cls-4,.cls-5{opacity:0.8;}.cls-5{fill:#5ac5d2;}.cls-6{fill:#fff6d5;}.cls-7{fill:#eee6c8;}.cls-8{fill:#5f96b6;}.cls-9{fill:#f5f5f6;}.cls-10{fill:#a5a8aa;}.cls-11{fill:#bc1f2d;}.cls-12{fill:#677b9f;}.cls-13{fill:#cce4f3;}.cls-14{fill:#c57c72;}.cls-15{fill:#c9bedd;}</style></defs><g class="cls-1"><g id="Layer_2" data-name="Layer 2"><g id="Layer_1-2" data-name="Layer 1"><path class="cls-2" d="M54.89,103.81,33.3,106.28l2.42,22,21.6-2.47Zm-20.43,3.9a.54.54,0,0,1,.46-.59.52.52,0,0,1,.57.47.54.54,0,0,1-.46.59A.52.52,0,0,1,34.46,107.71Zm.26,2.4a.53.53,0,0,1,.46-.59.52.52,0,0,1,.57.47.52.52,0,1,1-1,.12ZM35,112.5a.51.51,0,0,1,.45-.58.53.53,0,0,1,.58.47.52.52,0,0,1-.46.58A.51.51,0,0,1,35,112.5Zm.26,2.4a.52.52,0,0,1,.46-.58.51.51,0,0,1,.57.46.53.53,0,0,1-.46.59A.52.52,0,0,1,35.25,114.9Zm.26,2.4a.54.54,0,0,1,.46-.59.53.53,0,0,1,.58.47.54.54,0,0,1-.46.59A.53.53,0,0,1,35.51,117.3Zm.27,2.4a.53.53,0,0,1,.46-.59.53.53,0,0,1,.11,1A.51.51,0,0,1,35.78,119.7Zm.26,2.39a.52.52,0,0,1,.46-.58.51.51,0,0,1,.57.47.51.51,0,0,1-.45.58A.53.53,0,0,1,36,122.09Zm.27,2.4a.52.52,0,1,1,.57.47A.52.52,0,0,1,36.31,124.49Zm.83,2.87a.52.52,0,0,1-.57-.47.53.53,0,0,1,.46-.59.52.52,0,0,1,.57.47A.54.54,0,0,1,37.14,127.36Z"/><path class="cls-3" d="M54.49,103.47l-21.6,2.47,2.43,22,21.59-2.47Zm-20.44,3.9a.52.52,0,0,1,.46-.58.51.51,0,0,1,.57.46.52.52,0,0,1-.45.59A.53.53,0,0,1,34.05,107.37Zm.27,2.4a.52.52,0,1,1,1-.12.54.54,0,0,1-.46.59A.52.52,0,0,1,34.32,109.77Zm.26,2.4a.52.52,0,1,1,.57.46A.51.51,0,0,1,34.58,112.17Zm.26,2.39a.53.53,0,0,1,.46-.58.52.52,0,0,1,.58.46.52.52,0,1,1-1,.12Zm.27,2.4a.54.54,0,0,1,.46-.59.52.52,0,0,1,.57.47.53.53,0,0,1-.46.59A.52.52,0,0,1,35.11,117Zm.26,2.4a.53.53,0,0,1,.46-.59.53.53,0,1,1-.46.59Zm.27,2.39a.51.51,0,0,1,.45-.58.53.53,0,0,1,.12,1A.51.51,0,0,1,35.64,121.75Zm.26,2.4a.52.52,0,0,1,.46-.58.51.51,0,0,1,.57.46.53.53,0,0,1-.46.59A.52.52,0,0,1,35.9,124.15Zm.84,2.87a.53.53,0,0,1-.58-.47.54.54,0,0,1,.46-.59.53.53,0,0,1,.58.47A.54.54,0,0,1,36.74,127Z"/><g class="cls-4"><path class="cls-5" d="M35.35,105.21c.07.29.13.59.19.89l.18,1,8.57-1.66a7.11,7.11,0,0,1-.19-.94,1.24,1.24,0,0,0-.09-.38A.67.67,0,0,1,44,104s0-.07,0-.11a.55.55,0,0,0,0-.18,1.86,1.86,0,0,1-.13-.46l-8.53,1.64A2.66,2.66,0,0,1,35.35,105.21Z"/></g><path class="cls-2" d="M194.89,20.81,173.3,23.28l2.42,22,21.6-2.47Zm-20.43,3.9a.54.54,0,0,1,.46-.59.52.52,0,0,1,.57.47.54.54,0,0,1-.46.59A.52.52,0,0,1,174.46,24.71Zm.26,2.4a.53.53,0,0,1,.46-.59.52.52,0,0,1,.57.47.52.52,0,1,1-1,.12ZM175,29.5a.51.51,0,0,1,.45-.58.53.53,0,0,1,.58.47.52.52,0,0,1-.46.58A.51.51,0,0,1,175,29.5Zm.26,2.4a.52.52,0,0,1,.46-.58.51.51,0,0,1,.57.46.53.53,0,0,1-.46.59A.52.52,0,0,1,175.25,31.9Zm.26,2.4a.54.54,0,0,1,.46-.59.53.53,0,0,1,.58.47.54.54,0,0,1-.46.59A.53.53,0,0,1,175.51,34.3Zm.27,2.4a.53.53,0,0,1,.46-.59.53.53,0,0,1,.11,1A.51.51,0,0,1,175.78,36.7Zm.26,2.39a.52.52,0,0,1,.46-.58.51.51,0,0,1,.57.47.51.51,0,0,1-.45.58A.53.53,0,0,1,176,39.09Zm.27,2.4a.52.52,0,1,1,.57.47A.52.52,0,0,1,176.31,41.49Zm.83,2.87a.52.52,0,0,1-.57-.47.53.53,0,0,1,.46-.59.52.52,0,0,1,.57.47A.54.54,0,0,1,177.14,44.36Z"/><path class="cls-3" d="M194.49,20.47l-21.6,2.47,2.43,22,21.59-2.47Zm-20.44,3.9a.52.52,0,0,1,.46-.58.51.51,0,0,1,.57.46.52.52,0,0,1-.45.59A.53.53,0,0,1,174.05,24.37Zm.27,2.4a.52.52,0,1,1,1-.12.54.54,0,0,1-.46.59A.52.52,0,0,1,174.32,26.77Zm.26,2.4a.52.52,0,1,1,.57.46A.51.51,0,0,1,174.58,29.17Zm.26,2.39a.53.53,0,0,1,.46-.58.52.52,0,0,1,.58.46.52.52,0,1,1-1,.12Zm.27,2.4a.54.54,0,0,1,.46-.59.52.52,0,0,1,.57.47.53.53,0,0,1-.46.59A.52.52,0,0,1,175.11,34Zm.26,2.4a.53.53,0,0,1,.46-.59.53.53,0,1,1-.46.59Zm.27,2.39a.51.51,0,0,1,.45-.58.53.53,0,0,1,.12,1A.51.51,0,0,1,175.64,38.75Zm.26,2.4a.52.52,0,0,1,.46-.58.51.51,0,0,1,.57.46.53.53,0,0,1-.46.59A.52.52,0,0,1,175.9,41.15Zm.84,2.87a.53.53,0,0,1-.58-.47.54.54,0,0,1,.46-.59.53.53,0,0,1,.58.47A.54.54,0,0,1,176.74,44Z"/><g class="cls-4"><path class="cls-5" d="M175.35,22.21c.07.29.13.59.19.89l.18,1,8.57-1.66a7.11,7.11,0,0,1-.19-.94,1.24,1.24,0,0,0-.09-.38A.67.67,0,0,1,184,21s0-.07,0-.11a.55.55,0,0,0,0-.18,1.86,1.86,0,0,1-.13-.46l-8.53,1.64A2.66,2.66,0,0,1,175.35,22.21Z"/></g><path class="cls-2" d="M299,105.4l-21.6,2.47,2.43,22,21.6-2.47Zm-20.43,3.9a.52.52,0,0,1,.45-.59.53.53,0,0,1,.58.47.54.54,0,0,1-.46.59A.52.52,0,0,1,278.57,109.3Zm.26,2.4a.52.52,0,1,1,.57.46A.51.51,0,0,1,278.83,111.7Zm.26,2.39a.53.53,0,0,1,.46-.58.52.52,0,0,1,.58.46.52.52,0,1,1-1,.12Zm.27,2.4a.54.54,0,0,1,.46-.59.52.52,0,0,1,.57.47.54.54,0,0,1-.46.59A.52.52,0,0,1,279.36,116.49Zm.26,2.4a.54.54,0,0,1,.46-.59.52.52,0,0,1,.57.47.52.52,0,1,1-1,.12Zm.27,2.39a.51.51,0,0,1,.45-.58.53.53,0,0,1,.58.47.52.52,0,1,1-1,.11Zm.26,2.4a.52.52,0,0,1,.46-.58.51.51,0,0,1,.57.46.53.53,0,0,1-.46.59A.52.52,0,0,1,280.15,123.68Zm.26,2.4a.54.54,0,0,1,.46-.59.53.53,0,0,1,.58.47.54.54,0,0,1-.46.59A.53.53,0,0,1,280.41,126.08Zm.84,2.86a.51.51,0,0,1-.57-.46.53.53,0,0,1,.46-.59.53.53,0,0,1,.11,1Z"/><path class="cls-3" d="M298.59,105.06,277,107.53l2.42,22,21.6-2.47ZM278.16,109a.54.54,0,0,1,.46-.59.52.52,0,0,1,.57.47.54.54,0,0,1-.46.59A.52.52,0,0,1,278.16,109Zm.26,2.4a.52.52,0,1,1,1-.12.53.53,0,0,1-.46.58A.52.52,0,0,1,278.42,111.36Zm.27,2.39a.52.52,0,1,1,.57.47A.52.52,0,0,1,278.69,113.75Zm.26,2.4a.52.52,0,0,1,.46-.58.5.5,0,0,1,.57.46.52.52,0,0,1-.45.59A.53.53,0,0,1,279,116.15Zm.27,2.4a.52.52,0,1,1,1-.12.54.54,0,0,1-.46.59A.52.52,0,0,1,279.22,118.55Zm.26,2.4a.52.52,0,1,1,.57.46A.51.51,0,0,1,279.48,121Zm.26,2.39a.53.53,0,0,1,.46-.58.52.52,0,0,1,.58.46.52.52,0,1,1-1,.12Zm.27,2.4a.54.54,0,0,1,.46-.59.52.52,0,0,1,.57.47.53.53,0,0,1-.46.59A.52.52,0,0,1,280,125.74Zm.84,2.87a.53.53,0,0,1-.12-1.06.52.52,0,0,1,.57.47A.53.53,0,0,1,280.85,128.61Z"/><g class="cls-4"><path class="cls-5" d="M279.46,106.79c.07.3.13.6.19.9l.18,1L288.4,107a7.45,7.45,0,0,1-.19-.94,1.24,1.24,0,0,0-.09-.38.94.94,0,0,1-.06-.15s0-.08,0-.12a.5.5,0,0,0,0-.17,1.81,1.81,0,0,1-.13-.47l-8.53,1.65A2.53,2.53,0,0,1,279.46,106.79Z"/></g><polygon class="cls-2" points="1.24 28.14 0.4 49.95 0.4 49.95 0.4 49.95 3.65 53.62 23.45 54.53 24.42 29.21 1.24 28.14"/><polygon class="cls-6" points="24.03 28.77 0.84 27.7 0 49.52 3.25 53.18 23.05 54.1 24.03 28.77"/><polygon class="cls-7" points="3.25 53.18 0 49.52 3.39 49.67 3.25 53.18"/><g class="cls-4"><path class="cls-8" d="M20.74,26.79,9.21,26.16c0,.19-.08.39-.1.5A16.32,16.32,0,0,0,9,28.76l11.7.65c0-.59,0-1.17,0-1.75C20.75,27.39,20.72,27.08,20.74,26.79Z"/></g><polygon class="cls-2" points="146.24 77.14 145.4 98.95 145.4 98.95 145.4 98.95 148.65 102.62 168.44 103.53 169.42 78.21 146.24 77.14"/><polygon class="cls-6" points="169.03 77.78 145.84 76.7 145 98.52 148.25 102.18 168.05 103.1 169.03 77.78"/><polygon class="cls-7" points="148.25 102.18 145 98.52 148.39 98.67 148.25 102.18"/><g class="cls-4"><path class="cls-8" d="M165.74,75.79l-11.53-.63c0,.19-.08.39-.1.5a16.32,16.32,0,0,0-.08,2.1l11.7.65c0-.59,0-1.17,0-1.75C165.75,76.39,165.72,76.08,165.74,75.79Z"/></g><polygon class="cls-2" points="263.05 26.79 239.62 28.69 237.78 4.46 261.21 2.56 263.05 26.79"/><polygon class="cls-9" points="262.65 26.37 239.22 28.27 237.38 4.05 260.81 2.14 262.65 26.37"/><polygon class="cls-10" points="260.63 4 260.55 4.01 260.31 4.03 260.23 4.04 259.99 4.06 259.91 4.06 259.67 4.08 259.59 4.09 259.35 4.11 259.27 4.12 259.03 4.13 258.95 4.14 258.71 4.16 258.63 4.17 258.39 4.19 258.31 4.19 258.07 4.21 257.99 4.22 257.75 4.24 257.67 4.25 257.43 4.26 257.35 4.27 257.11 4.29 257.03 4.3 256.79 4.32 256.71 4.32 256.47 4.34 256.39 4.35 256.15 4.37 256.07 4.38 255.83 4.39 255.75 4.4 255.51 4.42 255.43 4.43 255.19 4.45 255.11 4.45 254.87 4.47 254.79 4.48 254.55 4.5 254.47 4.5 254.23 4.53 254.15 4.53 253.91 4.55 253.83 4.56 253.59 4.58 253.51 4.58 253.27 4.6 253.19 4.61 252.95 4.63 252.87 4.63 252.63 4.66 252.55 4.66 252.31 4.68 252.23 4.69 251.99 4.71 251.91 4.71 251.67 4.73 251.59 4.74 251.35 4.76 251.27 4.76 251.03 4.79 250.95 4.79 250.71 4.81 250.63 4.82 250.39 4.84 250.31 4.84 250.07 4.86 249.99 4.87 249.75 4.89 249.67 4.89 249.43 4.92 249.35 4.92 249.11 4.94 249.03 4.95 248.79 4.97 248.71 4.97 248.47 4.99 248.39 5 248.15 5.02 248.07 5.03 247.83 5.04 247.75 5.05 247.51 5.07 247.43 5.08 247.19 5.1 247.11 5.1 246.87 5.12 246.79 5.13 246.55 5.15 246.47 5.16 246.23 5.17 246.15 5.18 245.91 5.2 245.83 5.21 245.59 5.23 245.51 5.23 245.27 5.25 245.19 5.26 244.95 5.28 244.87 5.29 244.63 5.3 244.55 5.31 244.31 5.33 244.23 5.34 243.99 5.36 243.91 5.36 243.67 5.38 243.59 5.39 243.35 5.41 243.27 5.42 243.03 5.43 242.95 5.44 242.71 5.46 242.63 5.47 242.39 5.49 242.31 5.49 242.07 5.51 241.99 5.52 241.75 5.54 241.67 5.54 241.43 5.57 241.35 5.57 241.11 5.59 241.03 5.6 240.79 5.62 240.71 5.62 240.47 5.64 240.39 5.65 240.15 5.67 240.07 5.67 239.83 5.7 239.75 5.7 239.51 5.72 239.44 5.73 239.19 5.75 239.12 5.75 238.88 5.77 238.79 5.78 238.56 5.8 238.47 5.8 238.24 5.83 238.16 5.83 237.91 5.85 237.84 5.86 237.51 5.88 237.52 5.92 237.84 5.9 237.92 5.89 238.16 5.87 238.24 5.87 238.48 5.85 238.56 5.84 238.8 5.82 238.88 5.81 239.12 5.79 239.2 5.79 239.44 5.77 239.52 5.76 239.76 5.74 239.84 5.74 240.08 5.72 240.16 5.71 240.4 5.69 240.48 5.68 240.72 5.66 240.8 5.66 241.04 5.64 241.12 5.63 241.36 5.61 241.44 5.61 241.68 5.59 241.76 5.58 242 5.56 242.08 5.55 242.32 5.53 242.4 5.53 242.64 5.51 242.72 5.5 242.96 5.48 243.04 5.48 243.28 5.46 243.36 5.45 243.6 5.43 243.68 5.42 243.92 5.41 244 5.4 244.24 5.38 244.32 5.37 244.56 5.35 244.63 5.35 244.88 5.33 244.96 5.32 245.19 5.3 245.28 5.29 245.51 5.28 245.59 5.27 245.84 5.25 245.91 5.24 246.16 5.22 246.24 5.22 246.47 5.2 246.56 5.19 246.79 5.17 246.87 5.16 247.11 5.14 247.19 5.14 247.43 5.12 247.51 5.11 247.75 5.09 247.83 5.09 248.07 5.07 248.15 5.06 248.39 5.04 248.47 5.03 248.71 5.01 248.79 5.01 249.03 4.99 249.11 4.98 249.35 4.96 249.43 4.96 249.67 4.94 249.75 4.93 249.99 4.91 250.07 4.9 250.31 4.88 250.39 4.88 250.63 4.86 250.71 4.85 250.95 4.83 251.03 4.83 251.27 4.81 251.35 4.8 251.59 4.78 251.67 4.77 251.91 4.75 251.99 4.75 252.23 4.73 252.31 4.72 252.55 4.7 252.63 4.7 252.87 4.68 252.95 4.67 253.19 4.65 253.27 4.64 253.51 4.63 253.59 4.62 253.83 4.6 253.91 4.59 254.15 4.57 254.23 4.57 254.47 4.55 254.55 4.54 254.79 4.52 254.87 4.51 255.11 4.5 255.19 4.49 255.43 4.47 255.51 4.46 255.75 4.44 255.83 4.44 256.07 4.42 256.15 4.41 256.39 4.39 256.47 4.38 256.71 4.37 256.79 4.36 257.03 4.34 257.11 4.33 257.35 4.31 257.43 4.31 257.67 4.29 257.75 4.28 257.99 4.26 258.07 4.25 258.31 4.24 258.39 4.23 258.63 4.21 258.71 4.2 258.95 4.18 259.03 4.18 259.27 4.16 259.35 4.15 259.59 4.13 259.67 4.12 259.91 4.11 259.99 4.1 260.23 4.08 260.31 4.07 260.55 4.05 260.63 4.05 260.95 4.02 260.94 3.98 260.63 4"/><polygon class="cls-10" points="260.68 5.83 260.44 5.85 260.36 5.86 260.12 5.88 260.04 5.88 259.8 5.9 259.72 5.91 259.48 5.93 259.4 5.94 259.16 5.96 259.08 5.96 258.84 5.98 258.76 5.99 258.52 6.01 258.44 6.01 258.2 6.03 258.13 6.04 257.88 6.06 257.81 6.07 257.56 6.08 257.49 6.09 257.25 6.11 257.17 6.12 256.93 6.14 256.85 6.14 256.61 6.16 256.53 6.17 256.29 6.19 256.21 6.2 255.97 6.21 255.89 6.22 255.65 6.24 255.57 6.25 255.33 6.27 255.25 6.27 255.01 6.29 254.93 6.3 254.69 6.32 254.61 6.33 254.37 6.34 254.29 6.35 254.05 6.37 253.97 6.38 253.73 6.4 253.65 6.4 253.41 6.42 253.33 6.43 253.09 6.45 253.01 6.46 252.77 6.47 252.69 6.48 252.45 6.5 252.37 6.51 252.13 6.53 252.05 6.53 251.81 6.55 251.73 6.56 251.49 6.58 251.41 6.58 251.17 6.61 251.09 6.61 250.85 6.63 250.77 6.64 250.53 6.66 250.45 6.66 250.21 6.68 250.13 6.69 249.89 6.71 249.81 6.71 249.57 6.74 249.49 6.74 249.25 6.76 249.17 6.77 248.93 6.79 248.85 6.79 248.61 6.81 248.53 6.82 248.29 6.84 248.21 6.84 247.97 6.87 247.89 6.87 247.65 6.89 247.57 6.9 247.33 6.92 247.25 6.92 247.01 6.94 246.93 6.95 246.69 6.97 246.61 6.97 246.37 7 246.29 7 246.05 7.02 245.97 7.03 245.73 7.05 245.65 7.05 245.41 7.07 245.33 7.08 245.09 7.1 245.01 7.11 244.77 7.13 244.69 7.13 244.45 7.15 244.37 7.16 244.13 7.18 244.05 7.18 243.81 7.2 243.73 7.21 243.49 7.23 243.41 7.24 243.17 7.25 243.09 7.26 242.85 7.28 242.77 7.29 242.53 7.31 242.45 7.31 242.21 7.33 242.13 7.34 241.89 7.36 241.81 7.37 241.57 7.38 241.49 7.39 241.25 7.41 241.17 7.42 240.93 7.44 240.85 7.44 240.61 7.46 240.53 7.47 240.29 7.49 240.21 7.5 239.97 7.51 239.89 7.52 239.65 7.54 239.57 7.55 239.33 7.57 239.25 7.57 239.01 7.59 238.93 7.6 238.69 7.62 238.61 7.63 238.37 7.64 238.29 7.65 238.05 7.67 237.97 7.68 237.65 7.7 237.66 7.74 237.98 7.72 238.06 7.71 238.3 7.69 238.38 7.69 238.62 7.67 238.7 7.66 238.94 7.64 239.02 7.63 239.26 7.61 239.34 7.61 239.58 7.59 239.66 7.58 239.9 7.56 239.98 7.56 240.22 7.54 240.3 7.53 240.54 7.51 240.62 7.5 240.86 7.48 240.94 7.48 241.18 7.46 241.25 7.45 241.5 7.43 241.57 7.43 241.81 7.41 241.9 7.4 242.13 7.38 242.22 7.37 242.46 7.36 242.53 7.35 242.78 7.33 242.85 7.32 243.09 7.3 243.17 7.3 243.41 7.28 243.49 7.27 243.73 7.25 243.81 7.24 244.05 7.22 244.13 7.22 244.37 7.2 244.45 7.19 244.69 7.17 244.77 7.17 245.01 7.15 245.09 7.14 245.33 7.12 245.41 7.11 245.65 7.09 245.73 7.09 245.97 7.07 246.05 7.06 246.29 7.04 246.37 7.04 246.61 7.02 246.69 7.01 246.93 6.99 247.01 6.98 247.25 6.96 247.33 6.96 247.57 6.94 247.65 6.93 247.89 6.91 247.97 6.91 248.21 6.89 248.29 6.88 248.53 6.86 248.61 6.85 248.85 6.83 248.93 6.83 249.17 6.81 249.25 6.8 249.49 6.78 249.57 6.78 249.81 6.76 249.89 6.75 250.13 6.73 250.21 6.72 250.45 6.71 250.53 6.7 250.77 6.68 250.85 6.67 251.09 6.65 251.17 6.65 251.41 6.63 251.49 6.62 251.73 6.6 251.81 6.59 252.05 6.58 252.13 6.57 252.37 6.55 252.45 6.54 252.69 6.52 252.77 6.52 253.01 6.5 253.09 6.49 253.33 6.47 253.41 6.46 253.65 6.45 253.73 6.44 253.97 6.42 254.05 6.41 254.29 6.39 254.37 6.39 254.61 6.37 254.69 6.36 254.93 6.34 255.01 6.33 255.25 6.32 255.33 6.31 255.57 6.29 255.65 6.28 255.89 6.26 255.97 6.26 256.21 6.24 256.29 6.23 256.53 6.21 256.61 6.2 256.85 6.18 256.93 6.18 257.17 6.16 257.25 6.15 257.49 6.13 257.57 6.13 257.81 6.11 257.89 6.1 258.13 6.08 258.21 6.07 258.45 6.05 258.53 6.05 258.77 6.03 258.85 6.02 259.09 6 259.17 6 259.41 5.98 259.49 5.97 259.73 5.95 259.81 5.95 260.05 5.92 260.13 5.92 260.37 5.9 260.45 5.89 260.69 5.87 260.77 5.87 261.09 5.84 261.08 5.8 260.76 5.83 260.68 5.83"/><polygon class="cls-10" points="260.82 7.65 260.58 7.67 260.5 7.68 260.26 7.7 260.18 7.7 259.94 7.72 259.86 7.73 259.62 7.75 259.54 7.76 259.3 7.78 259.22 7.78 258.98 7.8 258.9 7.81 258.66 7.83 258.58 7.83 258.34 7.85 258.26 7.86 258.02 7.88 257.94 7.89 257.7 7.91 257.62 7.91 257.38 7.93 257.3 7.94 257.06 7.96 256.98 7.96 256.74 7.98 256.66 7.99 256.42 8.01 256.34 8.02 256.1 8.04 256.02 8.04 255.78 8.06 255.7 8.07 255.46 8.09 255.38 8.09 255.14 8.11 255.06 8.12 254.82 8.14 254.75 8.15 254.5 8.16 254.43 8.17 254.19 8.19 254.1 8.2 253.87 8.22 253.78 8.22 253.54 8.24 253.47 8.25 253.22 8.27 253.15 8.28 252.91 8.29 252.83 8.3 252.59 8.32 252.51 8.33 252.27 8.35 252.19 8.35 251.95 8.37 251.87 8.38 251.63 8.4 251.55 8.4 251.31 8.43 251.23 8.43 250.99 8.45 250.91 8.46 250.67 8.48 250.59 8.48 250.35 8.5 250.27 8.51 250.03 8.53 249.95 8.54 249.71 8.55 249.63 8.56 249.39 8.58 249.31 8.59 249.07 8.61 248.99 8.61 248.75 8.63 248.67 8.64 248.43 8.66 248.35 8.66 248.11 8.69 248.03 8.69 247.79 8.71 247.71 8.72 247.47 8.74 247.39 8.74 247.15 8.76 247.07 8.77 246.83 8.79 246.75 8.79 246.51 8.81 246.43 8.82 246.19 8.84 246.11 8.85 245.87 8.87 245.79 8.87 245.55 8.89 245.47 8.9 245.23 8.92 245.15 8.93 244.91 8.95 244.83 8.95 244.59 8.97 244.51 8.98 244.27 9 244.19 9 243.95 9.02 243.87 9.03 243.63 9.05 243.55 9.05 243.31 9.07 243.23 9.08 242.99 9.1 242.91 9.11 242.67 9.13 242.59 9.13 242.35 9.15 242.27 9.16 242.03 9.18 241.95 9.19 241.71 9.21 241.63 9.21 241.39 9.23 241.31 9.24 241.07 9.26 240.99 9.26 240.75 9.28 240.67 9.29 240.43 9.31 240.35 9.31 240.11 9.34 240.03 9.34 239.79 9.36 239.71 9.37 239.47 9.39 239.39 9.39 239.15 9.41 239.07 9.42 238.83 9.44 238.75 9.45 238.51 9.46 238.43 9.47 238.19 9.49 238.11 9.5 237.79 9.52 237.79 9.56 238.12 9.54 238.19 9.53 238.44 9.51 238.51 9.51 238.75 9.49 238.84 9.48 239.07 9.46 239.16 9.45 239.4 9.44 239.47 9.43 239.71 9.41 239.79 9.4 240.03 9.38 240.11 9.38 240.35 9.36 240.43 9.35 240.67 9.33 240.75 9.32 240.99 9.3 241.07 9.3 241.31 9.28 241.39 9.27 241.63 9.25 241.71 9.25 241.95 9.23 242.03 9.22 242.27 9.2 242.35 9.19 242.59 9.18 242.67 9.17 242.91 9.15 242.99 9.14 243.23 9.12 243.31 9.12 243.55 9.1 243.63 9.09 243.87 9.07 243.95 9.06 244.19 9.04 244.27 9.04 244.51 9.02 244.59 9.01 244.83 8.99 244.91 8.99 245.15 8.97 245.23 8.96 245.47 8.94 245.55 8.93 245.79 8.91 245.87 8.91 246.11 8.89 246.19 8.88 246.43 8.86 246.51 8.86 246.75 8.84 246.83 8.83 247.07 8.81 247.15 8.8 247.39 8.79 247.47 8.78 247.71 8.76 247.79 8.75 248.03 8.73 248.11 8.73 248.35 8.71 248.43 8.7 248.67 8.68 248.75 8.67 248.99 8.65 249.07 8.65 249.31 8.63 249.39 8.62 249.63 8.6 249.71 8.6 249.95 8.58 250.03 8.57 250.27 8.55 250.35 8.54 250.59 8.53 250.67 8.52 250.91 8.5 250.99 8.49 251.23 8.47 251.31 8.47 251.55 8.45 251.63 8.44 251.87 8.42 251.95 8.41 252.19 8.39 252.27 8.39 252.51 8.37 252.59 8.36 252.83 8.34 252.91 8.34 253.15 8.32 253.23 8.31 253.47 8.29 253.55 8.28 253.79 8.27 253.87 8.26 254.11 8.24 254.19 8.23 254.43 8.21 254.51 8.21 254.75 8.19 254.83 8.18 255.07 8.16 255.15 8.15 255.39 8.13 255.47 8.13 255.71 8.11 255.79 8.1 256.03 8.08 256.11 8.08 256.35 8.06 256.43 8.05 256.67 8.03 256.75 8.02 256.99 8.01 257.07 8 257.31 7.98 257.39 7.97 257.63 7.95 257.71 7.95 257.95 7.93 258.03 7.92 258.27 7.9 258.35 7.89 258.59 7.88 258.67 7.87 258.91 7.85 258.99 7.84 259.23 7.82 259.31 7.82 259.55 7.8 259.63 7.79 259.87 7.77 259.95 7.76 260.19 7.75 260.26 7.74 260.5 7.72 260.58 7.71 260.82 7.69 260.9 7.69 261.23 7.66 261.22 7.62 260.9 7.64 260.82 7.65"/><polygon class="cls-10" points="260.96 9.47 260.72 9.49 260.64 9.5 260.4 9.52 260.32 9.52 260.08 9.54 260 9.55 259.76 9.57 259.68 9.58 259.44 9.6 259.36 9.6 259.12 9.62 259.04 9.63 258.8 9.65 258.72 9.65 258.48 9.67 258.4 9.68 258.16 9.7 258.08 9.71 257.84 9.72 257.76 9.73 257.52 9.75 257.44 9.76 257.2 9.78 257.12 9.78 256.88 9.8 256.8 9.81 256.56 9.83 256.48 9.84 256.24 9.86 256.16 9.86 255.92 9.88 255.84 9.89 255.6 9.91 255.52 9.91 255.28 9.93 255.2 9.94 254.96 9.96 254.88 9.97 254.64 9.98 254.56 9.99 254.32 10.01 254.24 10.02 254 10.04 253.92 10.04 253.68 10.06 253.6 10.07 253.36 10.09 253.28 10.1 253.04 10.12 252.96 10.12 252.72 10.14 252.64 10.15 252.4 10.17 252.32 10.17 252.08 10.19 252 10.2 251.76 10.22 251.68 10.23 251.44 10.24 251.37 10.25 251.13 10.27 251.04 10.28 250.81 10.3 250.72 10.3 250.49 10.32 250.41 10.33 250.16 10.35 250.09 10.36 249.84 10.38 249.76 10.38 249.53 10.4 249.44 10.41 249.21 10.43 249.13 10.43 248.89 10.45 248.81 10.46 248.57 10.48 248.49 10.48 248.25 10.51 248.17 10.51 247.93 10.53 247.85 10.54 247.61 10.56 247.53 10.56 247.29 10.58 247.21 10.59 246.97 10.61 246.89 10.62 246.65 10.63 246.57 10.64 246.33 10.66 246.25 10.67 246.01 10.69 245.93 10.69 245.69 10.71 245.61 10.72 245.37 10.74 245.29 10.74 245.05 10.77 244.97 10.77 244.73 10.79 244.65 10.8 244.41 10.82 244.33 10.82 244.09 10.84 244.01 10.85 243.77 10.87 243.69 10.88 243.45 10.89 243.37 10.9 243.13 10.92 243.05 10.93 242.81 10.95 242.73 10.95 242.49 10.97 242.41 10.98 242.17 11 242.09 11.01 241.85 11.03 241.77 11.03 241.53 11.05 241.45 11.06 241.21 11.08 241.13 11.08 240.89 11.1 240.81 11.11 240.57 11.13 240.49 11.13 240.25 11.15 240.17 11.16 239.93 11.18 239.85 11.19 239.61 11.21 239.53 11.21 239.29 11.23 239.21 11.24 238.97 11.26 238.89 11.27 238.65 11.29 238.57 11.29 238.33 11.31 238.25 11.32 237.93 11.34 237.93 11.38 238.25 11.36 238.33 11.35 238.57 11.33 238.65 11.33 238.89 11.31 238.97 11.3 239.21 11.28 239.29 11.27 239.53 11.26 239.61 11.25 239.85 11.23 239.93 11.22 240.17 11.2 240.25 11.2 240.49 11.18 240.57 11.17 240.81 11.15 240.89 11.14 241.13 11.13 241.21 11.12 241.45 11.1 241.53 11.09 241.77 11.07 241.85 11.07 242.09 11.05 242.17 11.04 242.41 11.02 242.49 11.01 242.73 10.99 242.81 10.99 243.05 10.97 243.13 10.96 243.37 10.94 243.45 10.94 243.69 10.92 243.77 10.91 244.01 10.89 244.09 10.88 244.33 10.87 244.41 10.86 244.65 10.84 244.73 10.83 244.97 10.81 245.05 10.81 245.29 10.79 245.37 10.78 245.61 10.76 245.69 10.75 245.93 10.73 246.01 10.73 246.25 10.71 246.33 10.7 246.57 10.68 246.65 10.68 246.89 10.66 246.97 10.65 247.21 10.63 247.29 10.62 247.53 10.61 247.61 10.6 247.85 10.58 247.93 10.57 248.17 10.55 248.25 10.55 248.49 10.53 248.57 10.52 248.81 10.5 248.89 10.49 249.13 10.47 249.21 10.47 249.45 10.45 249.53 10.44 249.77 10.42 249.85 10.42 250.09 10.4 250.17 10.39 250.41 10.37 250.49 10.36 250.73 10.35 250.81 10.34 251.05 10.32 251.13 10.31 251.37 10.29 251.45 10.29 251.69 10.27 251.77 10.26 252.01 10.24 252.09 10.23 252.33 10.21 252.41 10.21 252.65 10.19 252.73 10.18 252.97 10.16 253.05 10.16 253.29 10.14 253.37 10.13 253.61 10.11 253.69 10.1 253.93 10.09 254.01 10.08 254.25 10.06 254.33 10.05 254.57 10.03 254.65 10.03 254.89 10.01 254.97 10 255.21 9.98 255.29 9.97 255.53 9.96 255.61 9.95 255.85 9.93 255.93 9.92 256.17 9.9 256.25 9.9 256.49 9.88 256.56 9.87 256.81 9.85 256.88 9.85 257.13 9.82 257.2 9.82 257.44 9.8 257.52 9.79 257.76 9.77 257.85 9.77 258.08 9.75 258.17 9.74 258.4 9.72 258.49 9.71 258.73 9.7 258.8 9.69 259.04 9.67 259.12 9.66 259.36 9.64 259.44 9.64 259.68 9.62 259.76 9.61 260 9.59 260.08 9.59 260.32 9.56 260.4 9.56 260.64 9.54 260.72 9.53 260.96 9.51 261.04 9.51 261.36 9.48 261.36 9.44 261.04 9.46 260.96 9.47"/><polygon class="cls-10" points="261.1 11.29 260.86 11.31 260.78 11.32 260.54 11.34 260.46 11.34 260.22 11.36 260.14 11.37 259.9 11.39 259.82 11.4 259.58 11.41 259.5 11.42 259.26 11.44 259.18 11.45 258.94 11.47 258.86 11.47 258.62 11.49 258.54 11.5 258.3 11.52 258.22 11.53 257.98 11.54 257.9 11.55 257.66 11.57 257.58 11.58 257.34 11.6 257.26 11.6 257.02 11.62 256.94 11.63 256.7 11.65 256.62 11.66 256.38 11.68 256.3 11.68 256.06 11.7 255.98 11.71 255.74 11.73 255.66 11.73 255.42 11.75 255.34 11.76 255.1 11.78 255.02 11.79 254.78 11.8 254.7 11.81 254.46 11.83 254.38 11.84 254.14 11.86 254.06 11.86 253.82 11.88 253.74 11.89 253.5 11.91 253.42 11.92 253.18 11.94 253.1 11.94 252.86 11.96 252.78 11.97 252.54 11.99 252.46 11.99 252.22 12.01 252.14 12.02 251.9 12.04 251.82 12.05 251.58 12.06 251.5 12.07 251.26 12.09 251.18 12.1 250.94 12.12 250.86 12.12 250.62 12.14 250.54 12.15 250.3 12.17 250.22 12.18 249.98 12.2 249.9 12.2 249.66 12.22 249.58 12.23 249.34 12.25 249.26 12.25 249.02 12.27 248.94 12.28 248.7 12.3 248.62 12.31 248.38 12.32 248.3 12.33 248.06 12.35 247.98 12.36 247.74 12.38 247.66 12.38 247.43 12.4 247.34 12.41 247.1 12.43 247.03 12.44 246.78 12.46 246.71 12.46 246.47 12.48 246.38 12.49 246.15 12.51 246.06 12.51 245.82 12.53 245.75 12.54 245.5 12.56 245.43 12.57 245.19 12.59 245.11 12.59 244.87 12.61 244.79 12.62 244.55 12.64 244.47 12.64 244.23 12.66 244.15 12.67 243.91 12.69 243.83 12.7 243.59 12.71 243.51 12.72 243.27 12.74 243.19 12.75 242.95 12.77 242.87 12.77 242.63 12.79 242.55 12.8 242.31 12.82 242.23 12.82 241.99 12.85 241.91 12.85 241.67 12.87 241.59 12.88 241.35 12.9 241.27 12.9 241.03 12.92 240.95 12.93 240.71 12.95 240.63 12.96 240.39 12.97 240.31 12.98 240.07 13 239.99 13.01 239.75 13.03 239.67 13.03 239.43 13.05 239.35 13.06 239.11 13.08 239.03 13.09 238.79 13.11 238.71 13.11 238.47 13.13 238.39 13.14 238.07 13.16 238.07 13.21 238.39 13.18 238.47 13.17 238.71 13.15 238.79 13.15 239.03 13.13 239.11 13.12 239.35 13.1 239.43 13.09 239.67 13.07 239.75 13.07 239.99 13.05 240.07 13.04 240.31 13.02 240.39 13.02 240.63 13 240.71 12.99 240.95 12.97 241.03 12.96 241.27 12.95 241.35 12.94 241.59 12.92 241.67 12.91 241.91 12.89 241.99 12.89 242.23 12.87 242.31 12.86 242.55 12.84 242.63 12.83 242.87 12.81 242.95 12.81 243.19 12.79 243.27 12.78 243.51 12.76 243.59 12.76 243.83 12.74 243.91 12.73 244.15 12.71 244.23 12.7 244.47 12.69 244.55 12.68 244.79 12.66 244.87 12.65 245.11 12.63 245.19 12.63 245.43 12.61 245.51 12.6 245.75 12.58 245.83 12.57 246.07 12.55 246.15 12.55 246.39 12.53 246.47 12.52 246.71 12.5 246.79 12.5 247.03 12.48 247.11 12.47 247.35 12.45 247.43 12.44 247.67 12.43 247.75 12.42 247.99 12.4 248.07 12.39 248.31 12.37 248.39 12.37 248.63 12.35 248.71 12.34 248.95 12.32 249.03 12.31 249.27 12.29 249.35 12.29 249.59 12.27 249.67 12.26 249.91 12.24 249.99 12.24 250.23 12.22 250.31 12.21 250.55 12.19 250.63 12.18 250.87 12.16 250.95 12.16 251.19 12.14 251.27 12.13 251.51 12.11 251.59 12.11 251.83 12.09 251.91 12.08 252.15 12.06 252.23 12.05 252.47 12.04 252.54 12.03 252.78 12.01 252.87 12 253.1 11.98 253.19 11.98 253.43 11.96 253.5 11.95 253.75 11.93 253.82 11.93 254.06 11.9 254.15 11.9 254.38 11.88 254.47 11.87 254.71 11.85 254.78 11.85 255.02 11.83 255.1 11.82 255.34 11.8 255.42 11.79 255.66 11.78 255.74 11.77 255.98 11.75 256.06 11.74 256.3 11.72 256.38 11.72 256.62 11.7 256.7 11.69 256.94 11.67 257.02 11.66 257.26 11.64 257.34 11.64 257.58 11.62 257.66 11.61 257.9 11.59 257.98 11.59 258.22 11.57 258.3 11.56 258.54 11.54 258.62 11.54 258.86 11.52 258.94 11.51 259.18 11.49 259.26 11.48 259.5 11.46 259.58 11.46 259.82 11.44 259.9 11.43 260.14 11.41 260.22 11.4 260.46 11.38 260.54 11.38 260.78 11.36 260.86 11.35 261.1 11.33 261.18 11.33 261.5 11.3 261.5 11.26 261.18 11.29 261.1 11.29"/><polygon class="cls-10" points="261.24 13.11 261 13.13 260.92 13.14 260.68 13.16 260.6 13.16 260.36 13.18 260.28 13.19 260.04 13.21 259.96 13.22 259.72 13.23 259.64 13.24 259.4 13.26 259.32 13.27 259.08 13.29 259 13.29 258.76 13.31 258.68 13.32 258.44 13.34 258.36 13.35 258.12 13.37 258.04 13.37 257.8 13.39 257.72 13.4 257.48 13.42 257.4 13.42 257.16 13.44 257.08 13.45 256.84 13.47 256.76 13.48 256.52 13.49 256.44 13.5 256.2 13.52 256.12 13.53 255.88 13.55 255.8 13.55 255.56 13.57 255.48 13.58 255.24 13.6 255.16 13.61 254.92 13.63 254.84 13.63 254.6 13.65 254.52 13.66 254.28 13.68 254.2 13.68 253.96 13.7 253.88 13.71 253.64 13.73 253.56 13.74 253.32 13.76 253.24 13.76 253 13.78 252.92 13.79 252.68 13.81 252.6 13.81 252.36 13.83 252.28 13.84 252.04 13.86 251.96 13.87 251.72 13.88 251.64 13.89 251.4 13.91 251.32 13.92 251.08 13.94 251 13.94 250.76 13.96 250.68 13.97 250.44 13.99 250.36 14 250.12 14.02 250.04 14.02 249.8 14.04 249.72 14.05 249.48 14.07 249.4 14.07 249.16 14.09 249.08 14.1 248.84 14.12 248.76 14.13 248.52 14.14 248.44 14.15 248.2 14.17 248.12 14.18 247.88 14.2 247.8 14.2 247.56 14.22 247.48 14.23 247.24 14.25 247.16 14.26 246.92 14.28 246.84 14.28 246.6 14.3 246.52 14.31 246.28 14.33 246.2 14.33 245.96 14.35 245.88 14.36 245.64 14.38 245.56 14.39 245.32 14.4 245.24 14.41 245 14.43 244.92 14.44 244.68 14.46 244.6 14.46 244.36 14.48 244.28 14.49 244.04 14.51 243.97 14.52 243.72 14.54 243.65 14.54 243.41 14.56 243.32 14.57 243.09 14.59 243 14.59 242.76 14.61 242.69 14.62 242.44 14.64 242.37 14.64 242.13 14.66 242.04 14.67 241.81 14.69 241.72 14.7 241.49 14.72 241.41 14.72 241.17 14.74 241.09 14.75 240.85 14.77 240.77 14.78 240.53 14.79 240.45 14.8 240.21 14.82 240.13 14.83 239.89 14.85 239.81 14.85 239.57 14.87 239.49 14.88 239.25 14.9 239.17 14.9 238.93 14.93 238.85 14.93 238.61 14.95 238.53 14.96 238.21 14.98 238.21 15.03 238.53 15 238.61 14.99 238.85 14.97 238.93 14.97 239.17 14.95 239.25 14.94 239.49 14.92 239.57 14.91 239.81 14.89 239.89 14.89 240.13 14.87 240.21 14.86 240.45 14.84 240.53 14.84 240.77 14.82 240.85 14.81 241.09 14.79 241.17 14.78 241.41 14.77 241.49 14.76 241.73 14.74 241.81 14.73 242.05 14.71 242.13 14.71 242.37 14.69 242.45 14.68 242.69 14.66 242.77 14.65 243.01 14.63 243.09 14.63 243.33 14.61 243.41 14.6 243.65 14.58 243.73 14.58 243.97 14.56 244.05 14.55 244.29 14.53 244.37 14.52 244.61 14.51 244.69 14.5 244.93 14.48 245.01 14.47 245.25 14.45 245.33 14.45 245.57 14.43 245.65 14.42 245.89 14.4 245.97 14.39 246.21 14.38 246.29 14.37 246.53 14.35 246.61 14.34 246.85 14.32 246.93 14.32 247.17 14.3 247.25 14.29 247.49 14.27 247.57 14.26 247.81 14.24 247.89 14.24 248.13 14.22 248.21 14.21 248.45 14.19 248.53 14.19 248.77 14.17 248.84 14.16 249.09 14.14 249.16 14.13 249.41 14.12 249.49 14.11 249.72 14.09 249.81 14.08 250.04 14.06 250.13 14.06 250.37 14.04 250.44 14.03 250.69 14.01 250.76 14 251 13.98 251.08 13.98 251.32 13.96 251.4 13.95 251.64 13.93 251.72 13.93 251.96 13.91 252.04 13.9 252.28 13.88 252.36 13.87 252.6 13.86 252.68 13.85 252.92 13.83 253 13.82 253.24 13.8 253.32 13.8 253.56 13.78 253.64 13.77 253.88 13.75 253.96 13.74 254.2 13.72 254.28 13.72 254.52 13.7 254.6 13.69 254.84 13.67 254.92 13.67 255.16 13.65 255.24 13.64 255.48 13.62 255.56 13.62 255.8 13.6 255.88 13.59 256.12 13.57 256.2 13.56 256.44 13.54 256.52 13.54 256.76 13.52 256.84 13.51 257.08 13.49 257.16 13.48 257.4 13.46 257.48 13.46 257.72 13.44 257.8 13.43 258.04 13.41 258.12 13.41 258.36 13.39 258.44 13.38 258.68 13.36 258.76 13.36 259 13.34 259.08 13.33 259.32 13.31 259.4 13.3 259.64 13.28 259.72 13.28 259.96 13.26 260.04 13.25 260.28 13.23 260.36 13.22 260.6 13.21 260.68 13.2 260.92 13.18 261 13.17 261.24 13.15 261.32 13.15 261.64 13.12 261.64 13.08 261.32 13.11 261.24 13.11"/><polygon class="cls-10" points="261.38 14.93 261.13 14.95 261.06 14.96 260.82 14.98 260.74 14.98 260.5 15 260.42 15.01 260.18 15.03 260.1 15.04 259.86 15.06 259.78 15.06 259.54 15.08 259.46 15.09 259.22 15.11 259.14 15.11 258.9 15.13 258.82 15.14 258.58 15.16 258.5 15.17 258.26 15.19 258.18 15.19 257.94 15.21 257.86 15.22 257.62 15.24 257.54 15.24 257.3 15.26 257.22 15.27 256.98 15.29 256.9 15.3 256.66 15.31 256.58 15.32 256.34 15.34 256.26 15.35 256.02 15.37 255.94 15.37 255.7 15.39 255.62 15.4 255.38 15.42 255.3 15.43 255.06 15.45 254.98 15.45 254.74 15.47 254.66 15.48 254.42 15.5 254.34 15.5 254.1 15.52 254.02 15.53 253.78 15.55 253.7 15.56 253.46 15.57 253.38 15.58 253.14 15.6 253.06 15.61 252.82 15.63 252.74 15.63 252.5 15.65 252.42 15.66 252.18 15.68 252.1 15.69 251.86 15.71 251.78 15.71 251.54 15.73 251.46 15.74 251.22 15.76 251.14 15.76 250.9 15.78 250.82 15.79 250.58 15.81 250.5 15.82 250.26 15.84 250.18 15.84 249.94 15.86 249.86 15.87 249.62 15.89 249.54 15.89 249.3 15.91 249.22 15.92 248.98 15.94 248.9 15.95 248.66 15.96 248.58 15.97 248.34 15.99 248.26 16 248.02 16.02 247.94 16.02 247.7 16.04 247.62 16.05 247.38 16.07 247.3 16.08 247.06 16.09 246.98 16.1 246.74 16.12 246.66 16.13 246.42 16.15 246.34 16.15 246.1 16.17 246.02 16.18 245.78 16.2 245.7 16.21 245.46 16.23 245.38 16.23 245.14 16.25 245.06 16.26 244.82 16.28 244.74 16.28 244.5 16.3 244.42 16.31 244.18 16.33 244.1 16.34 243.86 16.36 243.78 16.36 243.54 16.38 243.46 16.39 243.22 16.41 243.14 16.41 242.9 16.43 242.82 16.44 242.58 16.46 242.5 16.47 242.26 16.48 242.18 16.49 241.94 16.51 241.86 16.52 241.62 16.54 241.54 16.54 241.3 16.56 241.22 16.57 240.98 16.59 240.9 16.59 240.66 16.61 240.58 16.62 240.34 16.64 240.26 16.65 240.02 16.67 239.94 16.67 239.71 16.69 239.63 16.7 239.38 16.72 239.31 16.73 239.06 16.75 238.99 16.75 238.75 16.77 238.66 16.78 238.34 16.8 238.35 16.84 238.67 16.82 238.75 16.81 238.99 16.79 239.07 16.79 239.31 16.77 239.39 16.76 239.63 16.74 239.71 16.73 239.95 16.71 240.03 16.71 240.27 16.69 240.35 16.68 240.59 16.66 240.67 16.66 240.91 16.64 240.99 16.63 241.23 16.61 241.31 16.6 241.55 16.59 241.63 16.58 241.87 16.56 241.95 16.55 242.19 16.53 242.27 16.53 242.51 16.51 242.59 16.5 242.83 16.48 242.91 16.47 243.15 16.45 243.23 16.45 243.47 16.43 243.55 16.42 243.79 16.4 243.87 16.4 244.11 16.38 244.19 16.37 244.43 16.35 244.51 16.34 244.75 16.32 244.83 16.32 245.07 16.3 245.15 16.29 245.38 16.27 245.47 16.27 245.71 16.25 245.78 16.24 246.03 16.22 246.1 16.21 246.34 16.2 246.43 16.19 246.66 16.17 246.75 16.16 246.99 16.14 247.06 16.14 247.31 16.12 247.38 16.11 247.62 16.09 247.7 16.08 247.94 16.07 248.02 16.06 248.26 16.04 248.34 16.03 248.58 16.01 248.66 16.01 248.9 15.99 248.98 15.98 249.22 15.96 249.3 15.96 249.54 15.94 249.62 15.93 249.86 15.91 249.94 15.9 250.18 15.88 250.26 15.88 250.5 15.86 250.58 15.85 250.82 15.83 250.9 15.82 251.14 15.8 251.22 15.8 251.46 15.78 251.54 15.77 251.78 15.75 251.86 15.75 252.1 15.73 252.18 15.72 252.42 15.7 252.5 15.7 252.74 15.68 252.82 15.67 253.06 15.65 253.14 15.64 253.38 15.62 253.46 15.62 253.7 15.6 253.78 15.59 254.02 15.57 254.1 15.56 254.34 15.54 254.42 15.54 254.66 15.52 254.74 15.51 254.98 15.49 255.06 15.49 255.3 15.47 255.38 15.46 255.62 15.44 255.7 15.44 255.94 15.41 256.02 15.41 256.26 15.39 256.34 15.38 256.58 15.36 256.66 15.36 256.9 15.34 256.98 15.33 257.22 15.31 257.3 15.3 257.54 15.29 257.62 15.28 257.86 15.26 257.94 15.25 258.18 15.23 258.26 15.23 258.5 15.21 258.58 15.2 258.82 15.18 258.9 15.18 259.14 15.15 259.22 15.15 259.46 15.13 259.54 15.12 259.78 15.1 259.86 15.1 260.1 15.08 260.18 15.07 260.42 15.05 260.5 15.04 260.74 15.03 260.82 15.02 261.06 15 261.14 14.99 261.38 14.97 261.46 14.97 261.78 14.94 261.77 14.9 261.45 14.93 261.38 14.93"/><polygon class="cls-10" points="261.51 16.75 261.27 16.77 261.19 16.78 260.95 16.8 260.87 16.8 260.63 16.82 260.55 16.83 260.31 16.85 260.23 16.86 259.99 16.88 259.91 16.88 259.67 16.9 259.6 16.91 259.36 16.93 259.27 16.93 259.04 16.95 258.95 16.96 258.71 16.98 258.63 16.99 258.39 17 258.31 17.01 258.07 17.03 258 17.04 257.75 17.06 257.68 17.06 257.44 17.08 257.36 17.09 257.12 17.11 257.04 17.12 256.8 17.14 256.72 17.14 256.48 17.16 256.4 17.17 256.16 17.19 256.08 17.19 255.84 17.21 255.76 17.22 255.52 17.24 255.44 17.25 255.2 17.27 255.12 17.27 254.88 17.29 254.8 17.3 254.56 17.32 254.48 17.32 254.24 17.34 254.16 17.35 253.92 17.37 253.84 17.38 253.6 17.39 253.52 17.4 253.28 17.42 253.2 17.43 252.96 17.45 252.88 17.45 252.64 17.47 252.56 17.48 252.32 17.5 252.24 17.51 252 17.52 251.92 17.53 251.68 17.55 251.6 17.56 251.36 17.58 251.28 17.58 251.04 17.6 250.96 17.61 250.72 17.63 250.64 17.64 250.4 17.66 250.32 17.66 250.08 17.68 250 17.69 249.76 17.71 249.68 17.71 249.44 17.73 249.36 17.74 249.12 17.76 249.04 17.77 248.8 17.79 248.72 17.79 248.48 17.81 248.4 17.82 248.16 17.84 248.08 17.84 247.84 17.86 247.76 17.87 247.52 17.89 247.44 17.9 247.2 17.91 247.12 17.92 246.88 17.94 246.8 17.95 246.56 17.97 246.48 17.97 246.24 17.99 246.16 18 245.92 18.02 245.84 18.03 245.6 18.05 245.52 18.05 245.28 18.07 245.2 18.08 244.96 18.1 244.88 18.1 244.64 18.12 244.56 18.13 244.32 18.15 244.24 18.16 244 18.18 243.92 18.18 243.68 18.2 243.6 18.21 243.36 18.23 243.28 18.23 243.04 18.25 242.96 18.26 242.72 18.28 242.64 18.29 242.4 18.3 242.32 18.31 242.08 18.33 242 18.34 241.76 18.36 241.68 18.36 241.44 18.38 241.36 18.39 241.12 18.41 241.04 18.42 240.8 18.43 240.72 18.44 240.48 18.46 240.4 18.47 240.16 18.49 240.08 18.49 239.84 18.51 239.76 18.52 239.52 18.54 239.44 18.55 239.2 18.57 239.12 18.57 238.88 18.59 238.8 18.6 238.48 18.62 238.49 18.66 238.81 18.64 238.89 18.63 239.13 18.61 239.21 18.61 239.45 18.59 239.53 18.58 239.77 18.56 239.85 18.55 240.09 18.54 240.17 18.53 240.41 18.51 240.49 18.5 240.73 18.48 240.81 18.48 241.05 18.46 241.13 18.45 241.37 18.43 241.44 18.42 241.69 18.41 241.76 18.4 242 18.38 242.09 18.37 242.32 18.35 242.41 18.35 242.65 18.33 242.72 18.32 242.97 18.3 243.04 18.29 243.28 18.27 243.37 18.27 243.6 18.25 243.68 18.24 243.92 18.22 244 18.22 244.24 18.2 244.32 18.19 244.56 18.17 244.64 18.16 244.88 18.14 244.96 18.14 245.2 18.12 245.28 18.11 245.52 18.09 245.6 18.09 245.84 18.07 245.92 18.06 246.16 18.04 246.24 18.03 246.48 18.02 246.56 18.01 246.8 17.99 246.88 17.98 247.12 17.96 247.2 17.96 247.44 17.94 247.52 17.93 247.76 17.91 247.84 17.9 248.08 17.89 248.16 17.88 248.4 17.86 248.48 17.85 248.72 17.83 248.8 17.83 249.04 17.81 249.12 17.8 249.36 17.78 249.44 17.77 249.68 17.75 249.76 17.75 250 17.73 250.08 17.72 250.32 17.7 250.4 17.7 250.64 17.68 250.72 17.67 250.96 17.65 251.04 17.64 251.28 17.63 251.36 17.62 251.6 17.6 251.68 17.59 251.92 17.57 252 17.57 252.24 17.55 252.32 17.54 252.56 17.52 252.64 17.52 252.88 17.5 252.96 17.49 253.2 17.47 253.28 17.46 253.52 17.44 253.6 17.44 253.84 17.42 253.92 17.41 254.16 17.39 254.24 17.39 254.48 17.36 254.56 17.36 254.8 17.34 254.88 17.33 255.12 17.31 255.2 17.31 255.44 17.29 255.52 17.28 255.76 17.26 255.84 17.25 256.08 17.23 256.16 17.23 256.4 17.21 256.48 17.2 256.72 17.18 256.8 17.18 257.04 17.16 257.12 17.15 257.36 17.13 257.44 17.13 257.68 17.11 257.76 17.1 258 17.08 258.08 17.07 258.32 17.05 258.4 17.05 258.64 17.03 258.72 17.02 258.96 17 259.04 17 259.28 16.98 259.36 16.97 259.6 16.95 259.68 16.94 259.92 16.92 260 16.92 260.24 16.9 260.32 16.89 260.56 16.87 260.64 16.86 260.88 16.84 260.96 16.84 261.2 16.82 261.28 16.81 261.52 16.79 261.6 16.79 261.92 16.76 261.91 16.72 261.59 16.75 261.51 16.75"/><polygon class="cls-10" points="261.65 18.57 261.41 18.59 261.33 18.6 261.09 18.62 261.01 18.62 260.77 18.64 260.69 18.65 260.45 18.67 260.37 18.68 260.13 18.7 260.05 18.7 259.81 18.72 259.73 18.73 259.49 18.75 259.41 18.75 259.17 18.77 259.09 18.78 258.85 18.8 258.77 18.81 258.53 18.83 258.45 18.83 258.21 18.85 258.13 18.86 257.89 18.88 257.81 18.88 257.57 18.9 257.49 18.91 257.25 18.93 257.17 18.94 256.93 18.96 256.85 18.96 256.61 18.98 256.53 18.99 256.29 19.01 256.21 19.01 255.97 19.03 255.89 19.04 255.66 19.06 255.57 19.07 255.34 19.09 255.25 19.09 255.01 19.11 254.94 19.12 254.69 19.14 254.62 19.14 254.38 19.16 254.29 19.17 254.06 19.19 253.97 19.2 253.74 19.21 253.66 19.22 253.41 19.24 253.34 19.25 253.1 19.27 253.02 19.27 252.78 19.29 252.7 19.3 252.46 19.32 252.38 19.33 252.14 19.34 252.06 19.35 251.82 19.37 251.74 19.38 251.5 19.4 251.42 19.4 251.18 19.42 251.1 19.43 250.86 19.45 250.78 19.46 250.54 19.48 250.46 19.48 250.22 19.5 250.14 19.51 249.9 19.53 249.82 19.53 249.58 19.55 249.5 19.56 249.26 19.58 249.18 19.59 248.94 19.61 248.86 19.61 248.62 19.63 248.54 19.64 248.3 19.66 248.22 19.66 247.98 19.68 247.9 19.69 247.66 19.71 247.58 19.72 247.34 19.73 247.26 19.74 247.02 19.76 246.94 19.77 246.7 19.79 246.62 19.79 246.38 19.81 246.3 19.82 246.06 19.84 245.98 19.85 245.74 19.86 245.66 19.87 245.42 19.89 245.34 19.9 245.1 19.92 245.02 19.92 244.78 19.94 244.7 19.95 244.46 19.97 244.38 19.98 244.14 20 244.06 20 243.82 20.02 243.74 20.03 243.5 20.05 243.42 20.05 243.18 20.07 243.1 20.08 242.86 20.1 242.78 20.11 242.54 20.13 242.46 20.13 242.22 20.15 242.14 20.16 241.9 20.18 241.82 20.18 241.58 20.2 241.5 20.21 241.26 20.23 241.18 20.24 240.94 20.25 240.86 20.26 240.62 20.28 240.54 20.29 240.3 20.31 240.22 20.31 239.98 20.33 239.9 20.34 239.66 20.36 239.58 20.37 239.34 20.39 239.26 20.39 239.02 20.41 238.94 20.42 238.62 20.44 238.63 20.48 238.94 20.46 239.03 20.45 239.26 20.43 239.34 20.43 239.59 20.41 239.66 20.4 239.91 20.38 239.98 20.37 240.22 20.36 240.3 20.35 240.54 20.33 240.62 20.32 240.86 20.3 240.94 20.3 241.18 20.28 241.26 20.27 241.5 20.25 241.58 20.24 241.82 20.23 241.9 20.22 242.14 20.2 242.22 20.19 242.46 20.17 242.54 20.17 242.78 20.15 242.86 20.14 243.1 20.12 243.18 20.11 243.42 20.09 243.5 20.09 243.74 20.07 243.82 20.06 244.06 20.04 244.14 20.04 244.38 20.02 244.46 20.01 244.7 19.99 244.78 19.98 245.02 19.96 245.1 19.96 245.34 19.94 245.42 19.93 245.66 19.91 245.74 19.91 245.98 19.89 246.06 19.88 246.3 19.86 246.38 19.86 246.62 19.84 246.7 19.83 246.94 19.81 247.02 19.8 247.26 19.78 247.34 19.78 247.58 19.76 247.66 19.75 247.9 19.73 247.98 19.73 248.22 19.7 248.3 19.7 248.54 19.68 248.62 19.67 248.86 19.65 248.94 19.65 249.18 19.63 249.26 19.62 249.5 19.6 249.58 19.59 249.82 19.57 249.9 19.57 250.14 19.55 250.22 19.54 250.46 19.52 250.54 19.52 250.78 19.5 250.86 19.49 251.1 19.47 251.18 19.46 251.42 19.45 251.5 19.44 251.74 19.42 251.82 19.41 252.06 19.39 252.14 19.39 252.38 19.37 252.46 19.36 252.7 19.34 252.78 19.34 253.02 19.32 253.1 19.31 253.34 19.29 253.42 19.28 253.66 19.26 253.74 19.26 253.98 19.24 254.06 19.23 254.3 19.21 254.38 19.2 254.62 19.18 254.7 19.18 254.94 19.16 255.02 19.15 255.26 19.13 255.34 19.13 255.58 19.11 255.66 19.1 255.9 19.08 255.98 19.07 256.22 19.05 256.3 19.05 256.54 19.03 256.62 19.02 256.86 19 256.94 19 257.18 18.98 257.26 18.97 257.5 18.95 257.58 18.95 257.82 18.93 257.9 18.92 258.14 18.9 258.22 18.89 258.46 18.87 258.54 18.87 258.78 18.85 258.86 18.84 259.1 18.82 259.18 18.82 259.42 18.8 259.5 18.79 259.74 18.77 259.82 18.76 260.06 18.74 260.14 18.74 260.38 18.72 260.46 18.71 260.7 18.69 260.77 18.68 261.01 18.66 261.1 18.66 261.33 18.64 261.42 18.63 261.65 18.61 261.74 18.61 262.06 18.58 262.05 18.54 261.73 18.57 261.65 18.57"/><polygon class="cls-10" points="261.79 20.39 261.55 20.41 261.47 20.42 261.23 20.44 261.15 20.44 260.91 20.46 260.83 20.47 260.59 20.49 260.51 20.5 260.27 20.52 260.19 20.52 259.95 20.54 259.87 20.55 259.63 20.57 259.55 20.57 259.31 20.59 259.23 20.6 258.99 20.62 258.91 20.63 258.67 20.65 258.59 20.65 258.35 20.67 258.27 20.68 258.03 20.7 257.95 20.7 257.71 20.72 257.63 20.73 257.39 20.75 257.31 20.76 257.07 20.78 256.99 20.78 256.75 20.8 256.67 20.81 256.43 20.83 256.35 20.83 256.11 20.85 256.03 20.86 255.79 20.88 255.71 20.89 255.47 20.91 255.39 20.91 255.15 20.93 255.07 20.94 254.83 20.96 254.75 20.96 254.51 20.98 254.43 20.99 254.19 21.01 254.11 21.02 253.87 21.04 253.79 21.04 253.55 21.06 253.47 21.07 253.23 21.09 253.15 21.09 252.91 21.11 252.83 21.12 252.59 21.14 252.51 21.15 252.27 21.16 252.19 21.17 251.95 21.19 251.88 21.2 251.63 21.22 251.56 21.22 251.31 21.24 251.24 21.25 251 21.27 250.91 21.28 250.68 21.3 250.59 21.3 250.35 21.32 250.28 21.33 250.03 21.35 249.96 21.35 249.72 21.37 249.64 21.38 249.4 21.4 249.32 21.41 249.08 21.43 249 21.43 248.76 21.45 248.68 21.46 248.44 21.48 248.36 21.48 248.12 21.5 248.04 21.51 247.8 21.53 247.72 21.54 247.48 21.55 247.4 21.56 247.16 21.58 247.08 21.59 246.84 21.61 246.76 21.61 246.52 21.63 246.44 21.64 246.2 21.66 246.12 21.67 245.88 21.68 245.8 21.69 245.56 21.71 245.48 21.72 245.24 21.74 245.16 21.74 244.92 21.76 244.84 21.77 244.6 21.79 244.52 21.8 244.28 21.82 244.2 21.82 243.96 21.84 243.88 21.85 243.64 21.87 243.56 21.87 243.32 21.89 243.24 21.9 243 21.92 242.92 21.93 242.68 21.95 242.6 21.95 242.36 21.97 242.28 21.98 242.04 22 241.96 22 241.72 22.02 241.64 22.03 241.4 22.05 241.32 22.06 241.08 22.07 241 22.08 240.76 22.1 240.68 22.11 240.44 22.13 240.36 22.13 240.12 22.15 240.04 22.16 239.8 22.18 239.72 22.19 239.48 22.2 239.4 22.21 239.16 22.23 239.08 22.24 238.76 22.26 238.76 22.3 239.08 22.28 239.16 22.27 239.4 22.25 239.48 22.25 239.72 22.23 239.8 22.22 240.04 22.2 240.12 22.19 240.36 22.18 240.44 22.17 240.68 22.15 240.76 22.14 241 22.12 241.08 22.12 241.32 22.1 241.4 22.09 241.64 22.07 241.72 22.06 241.96 22.05 242.04 22.04 242.28 22.02 242.36 22.01 242.6 21.99 242.68 21.99 242.92 21.97 243 21.96 243.24 21.94 243.32 21.93 243.56 21.91 243.64 21.91 243.88 21.89 243.96 21.88 244.2 21.86 244.28 21.86 244.52 21.84 244.6 21.83 244.84 21.81 244.92 21.8 245.16 21.79 245.24 21.78 245.48 21.76 245.56 21.75 245.8 21.73 245.88 21.73 246.12 21.71 246.2 21.7 246.44 21.68 246.52 21.68 246.76 21.66 246.84 21.65 247.08 21.63 247.16 21.62 247.4 21.6 247.48 21.6 247.72 21.58 247.8 21.57 248.04 21.55 248.12 21.55 248.36 21.52 248.44 21.52 248.68 21.5 248.76 21.49 249 21.47 249.08 21.47 249.32 21.45 249.4 21.44 249.64 21.42 249.72 21.41 249.96 21.39 250.04 21.39 250.28 21.37 250.36 21.36 250.6 21.34 250.68 21.34 250.92 21.32 251 21.31 251.24 21.29 251.32 21.29 251.56 21.27 251.64 21.26 251.88 21.24 251.96 21.23 252.2 21.21 252.28 21.21 252.52 21.19 252.6 21.18 252.84 21.16 252.92 21.16 253.16 21.14 253.24 21.13 253.48 21.11 253.56 21.1 253.8 21.08 253.88 21.08 254.12 21.06 254.2 21.05 254.44 21.03 254.52 21.02 254.76 21 254.84 21 255.08 20.98 255.16 20.97 255.4 20.95 255.48 20.95 255.72 20.93 255.8 20.92 256.04 20.9 256.12 20.89 256.36 20.88 256.44 20.87 256.68 20.85 256.76 20.84 257 20.82 257.07 20.82 257.31 20.8 257.39 20.79 257.63 20.77 257.71 20.77 257.95 20.75 258.04 20.74 258.27 20.72 258.36 20.71 258.6 20.69 258.68 20.69 258.92 20.67 259 20.66 259.24 20.64 259.31 20.64 259.55 20.61 259.63 20.61 259.87 20.59 259.95 20.58 260.19 20.56 260.27 20.56 260.51 20.54 260.59 20.53 260.83 20.51 260.91 20.5 261.15 20.48 261.23 20.48 261.47 20.46 261.55 20.45 261.79 20.43 261.87 20.43 262.19 20.4 262.19 20.36 261.87 20.39 261.79 20.39"/><polygon class="cls-10" points="261.93 22.21 261.69 22.23 261.61 22.24 261.37 22.26 261.29 22.26 261.05 22.28 260.97 22.29 260.73 22.31 260.65 22.32 260.41 22.34 260.33 22.34 260.09 22.36 260.01 22.37 259.77 22.39 259.69 22.39 259.45 22.41 259.37 22.42 259.13 22.44 259.05 22.45 258.81 22.47 258.73 22.47 258.49 22.49 258.41 22.5 258.17 22.52 258.09 22.52 257.85 22.54 257.77 22.55 257.53 22.57 257.45 22.58 257.21 22.6 257.13 22.6 256.89 22.62 256.81 22.63 256.57 22.65 256.49 22.65 256.25 22.67 256.17 22.68 255.93 22.7 255.85 22.71 255.61 22.73 255.53 22.73 255.29 22.75 255.21 22.76 254.97 22.78 254.89 22.78 254.65 22.8 254.57 22.81 254.33 22.83 254.25 22.84 254.01 22.86 253.93 22.86 253.69 22.88 253.61 22.89 253.37 22.91 253.29 22.91 253.05 22.93 252.97 22.94 252.73 22.96 252.65 22.97 252.41 22.99 252.33 22.99 252.09 23.01 252.01 23.02 251.77 23.04 251.69 23.04 251.45 23.06 251.37 23.07 251.13 23.09 251.05 23.1 250.81 23.11 250.73 23.12 250.49 23.14 250.41 23.15 250.17 23.17 250.09 23.17 249.85 23.19 249.77 23.2 249.53 23.22 249.45 23.23 249.21 23.25 249.13 23.25 248.89 23.27 248.81 23.28 248.57 23.3 248.49 23.3 248.25 23.32 248.18 23.33 247.94 23.35 247.85 23.36 247.62 23.38 247.53 23.38 247.29 23.4 247.22 23.41 246.97 23.43 246.9 23.43 246.66 23.45 246.57 23.46 246.34 23.48 246.25 23.49 246.01 23.5 245.94 23.51 245.7 23.53 245.62 23.54 245.38 23.56 245.3 23.56 245.06 23.58 244.98 23.59 244.74 23.61 244.66 23.62 244.42 23.64 244.34 23.64 244.1 23.66 244.02 23.67 243.78 23.69 243.7 23.69 243.46 23.71 243.38 23.72 243.14 23.74 243.06 23.75 242.82 23.77 242.74 23.77 242.5 23.79 242.42 23.8 242.18 23.82 242.1 23.82 241.86 23.84 241.78 23.85 241.54 23.87 241.46 23.88 241.22 23.89 241.14 23.9 240.9 23.92 240.82 23.93 240.58 23.95 240.5 23.95 240.26 23.97 240.18 23.98 239.94 24 239.86 24.01 239.62 24.02 239.54 24.03 239.3 24.05 239.22 24.06 238.9 24.08 238.9 24.13 239.22 24.1 239.3 24.09 239.54 24.07 239.62 24.07 239.86 24.05 239.94 24.04 240.18 24.02 240.26 24.01 240.5 24 240.58 23.99 240.82 23.97 240.9 23.96 241.14 23.94 241.22 23.94 241.46 23.92 241.54 23.91 241.78 23.89 241.86 23.89 242.1 23.86 242.18 23.86 242.42 23.84 242.5 23.83 242.74 23.81 242.82 23.81 243.06 23.79 243.14 23.78 243.38 23.76 243.46 23.75 243.7 23.73 243.78 23.73 244.02 23.71 244.1 23.7 244.34 23.68 244.42 23.68 244.66 23.66 244.74 23.65 244.98 23.63 245.06 23.63 245.3 23.61 245.38 23.6 245.62 23.58 245.7 23.57 245.94 23.55 246.02 23.55 246.26 23.53 246.34 23.52 246.58 23.5 246.66 23.5 246.9 23.48 246.98 23.47 247.22 23.45 247.3 23.44 247.54 23.42 247.62 23.42 247.86 23.4 247.94 23.39 248.18 23.37 248.26 23.36 248.5 23.34 248.58 23.34 248.82 23.32 248.9 23.31 249.14 23.29 249.22 23.29 249.46 23.27 249.54 23.26 249.78 23.24 249.86 23.23 250.1 23.21 250.18 23.21 250.42 23.19 250.5 23.18 250.74 23.16 250.82 23.16 251.06 23.14 251.14 23.13 251.38 23.11 251.46 23.11 251.7 23.09 251.78 23.08 252.02 23.06 252.1 23.05 252.34 23.03 252.42 23.03 252.66 23.01 252.74 23 252.98 22.98 253.06 22.98 253.3 22.95 253.38 22.95 253.62 22.93 253.69 22.92 253.94 22.9 254.01 22.9 254.25 22.88 254.34 22.87 254.57 22.85 254.66 22.84 254.9 22.82 254.97 22.82 255.22 22.8 255.29 22.79 255.53 22.77 255.61 22.77 255.85 22.75 255.93 22.74 256.17 22.72 256.25 22.71 256.49 22.7 256.57 22.69 256.81 22.67 256.89 22.66 257.13 22.64 257.21 22.64 257.45 22.62 257.53 22.61 257.77 22.59 257.85 22.59 258.09 22.57 258.17 22.56 258.41 22.54 258.49 22.53 258.73 22.51 258.81 22.51 259.05 22.49 259.13 22.48 259.37 22.46 259.45 22.45 259.69 22.44 259.77 22.43 260.01 22.41 260.09 22.4 260.33 22.38 260.41 22.38 260.65 22.36 260.73 22.35 260.97 22.33 261.05 22.32 261.29 22.31 261.37 22.3 261.61 22.28 261.69 22.27 261.93 22.25 262.01 22.25 262.33 22.22 262.33 22.18 262.01 22.21 261.93 22.21"/><polygon class="cls-10" points="262.07 24.03 261.83 24.05 261.75 24.06 261.51 24.08 261.43 24.08 261.19 24.1 261.11 24.11 260.87 24.13 260.79 24.14 260.55 24.16 260.47 24.16 260.23 24.18 260.15 24.19 259.91 24.21 259.83 24.21 259.59 24.23 259.51 24.24 259.27 24.26 259.19 24.27 258.95 24.29 258.87 24.29 258.63 24.31 258.55 24.32 258.31 24.34 258.23 24.34 257.99 24.36 257.91 24.37 257.67 24.39 257.59 24.4 257.35 24.42 257.27 24.42 257.03 24.44 256.95 24.45 256.71 24.47 256.63 24.47 256.39 24.49 256.31 24.5 256.07 24.52 255.99 24.53 255.75 24.55 255.67 24.55 255.43 24.57 255.35 24.58 255.11 24.6 255.03 24.6 254.79 24.62 254.71 24.63 254.47 24.65 254.39 24.66 254.15 24.68 254.07 24.68 253.83 24.7 253.75 24.71 253.51 24.73 253.43 24.73 253.19 24.75 253.11 24.76 252.87 24.78 252.79 24.79 252.55 24.81 252.47 24.81 252.23 24.83 252.15 24.84 251.91 24.86 251.83 24.86 251.59 24.88 251.51 24.89 251.27 24.91 251.19 24.92 250.95 24.93 250.87 24.94 250.63 24.96 250.55 24.97 250.31 24.99 250.23 24.99 249.99 25.01 249.91 25.02 249.67 25.04 249.59 25.05 249.35 25.07 249.27 25.07 249.03 25.09 248.95 25.1 248.71 25.12 248.63 25.12 248.39 25.14 248.31 25.15 248.07 25.17 247.99 25.18 247.75 25.2 247.67 25.2 247.43 25.22 247.35 25.23 247.11 25.25 247.03 25.25 246.79 25.27 246.71 25.28 246.47 25.3 246.39 25.31 246.15 25.32 246.07 25.33 245.83 25.35 245.75 25.36 245.51 25.38 245.43 25.38 245.19 25.4 245.11 25.41 244.87 25.43 244.79 25.44 244.55 25.45 244.47 25.46 244.24 25.48 244.16 25.49 243.91 25.51 243.84 25.51 243.59 25.53 243.51 25.54 243.28 25.56 243.19 25.57 242.96 25.59 242.88 25.59 242.63 25.61 242.56 25.62 242.31 25.64 242.24 25.64 242 25.66 241.92 25.67 241.68 25.69 241.6 25.7 241.36 25.71 241.28 25.72 241.04 25.74 240.96 25.75 240.72 25.77 240.64 25.77 240.4 25.79 240.32 25.8 240.08 25.82 240 25.83 239.76 25.84 239.68 25.85 239.44 25.87 239.36 25.88 239.04 25.9 239.04 25.95 239.36 25.92 239.44 25.91 239.68 25.89 239.76 25.89 240 25.87 240.08 25.86 240.32 25.84 240.4 25.83 240.64 25.82 240.72 25.81 240.96 25.79 241.04 25.78 241.28 25.76 241.36 25.76 241.6 25.74 241.68 25.73 241.92 25.71 242 25.7 242.24 25.68 242.32 25.68 242.56 25.66 242.64 25.65 242.88 25.63 242.96 25.63 243.2 25.61 243.28 25.6 243.52 25.58 243.6 25.57 243.84 25.55 243.92 25.55 244.16 25.53 244.24 25.52 244.48 25.5 244.56 25.5 244.8 25.48 244.88 25.47 245.12 25.45 245.2 25.45 245.44 25.43 245.52 25.42 245.76 25.4 245.84 25.39 246.08 25.37 246.16 25.37 246.4 25.35 246.48 25.34 246.72 25.32 246.8 25.32 247.04 25.3 247.12 25.29 247.36 25.27 247.44 25.26 247.68 25.24 247.76 25.24 248 25.22 248.08 25.21 248.32 25.19 248.4 25.18 248.64 25.16 248.72 25.16 248.96 25.14 249.04 25.13 249.28 25.11 249.35 25.11 249.59 25.09 249.68 25.08 249.91 25.06 250 25.05 250.24 25.04 250.31 25.03 250.56 25.01 250.63 25 250.88 24.98 250.96 24.98 251.19 24.96 251.28 24.95 251.51 24.93 251.59 24.93 251.84 24.91 251.91 24.9 252.15 24.88 252.23 24.87 252.47 24.85 252.55 24.85 252.79 24.83 252.87 24.82 253.11 24.8 253.19 24.8 253.43 24.77 253.51 24.77 253.75 24.75 253.83 24.74 254.07 24.72 254.15 24.72 254.39 24.7 254.47 24.69 254.71 24.67 254.79 24.66 255.03 24.64 255.11 24.64 255.35 24.62 255.43 24.61 255.67 24.59 255.75 24.59 255.99 24.57 256.07 24.56 256.31 24.54 256.39 24.54 256.63 24.52 256.71 24.51 256.95 24.49 257.03 24.48 257.27 24.46 257.35 24.46 257.59 24.44 257.67 24.43 257.91 24.41 257.99 24.41 258.23 24.39 258.31 24.38 258.55 24.36 258.63 24.35 258.87 24.33 258.95 24.33 259.19 24.31 259.27 24.3 259.51 24.28 259.59 24.27 259.83 24.26 259.91 24.25 260.15 24.23 260.23 24.22 260.47 24.2 260.55 24.2 260.79 24.18 260.87 24.17 261.11 24.15 261.19 24.14 261.43 24.13 261.51 24.12 261.75 24.1 261.83 24.09 262.07 24.07 262.15 24.07 262.47 24.04 262.47 24 262.15 24.03 262.07 24.03"/><polygon class="cls-10" points="262.2 25.85 261.96 25.87 261.88 25.88 261.64 25.9 261.57 25.9 261.33 25.92 261.25 25.93 261.01 25.95 260.93 25.96 260.69 25.98 260.61 25.98 260.37 26 260.29 26.01 260.05 26.03 259.97 26.03 259.73 26.05 259.65 26.06 259.41 26.08 259.33 26.09 259.09 26.11 259.01 26.11 258.77 26.13 258.69 26.14 258.45 26.16 258.37 26.16 258.13 26.18 258.05 26.19 257.81 26.21 257.73 26.22 257.49 26.24 257.41 26.24 257.17 26.26 257.09 26.27 256.85 26.29 256.77 26.29 256.53 26.31 256.45 26.32 256.21 26.34 256.13 26.35 255.89 26.37 255.81 26.37 255.57 26.39 255.49 26.4 255.25 26.42 255.17 26.42 254.93 26.44 254.85 26.45 254.61 26.47 254.53 26.48 254.29 26.5 254.21 26.5 253.97 26.52 253.89 26.53 253.65 26.55 253.57 26.55 253.33 26.57 253.25 26.58 253.01 26.6 252.93 26.61 252.69 26.63 252.61 26.63 252.37 26.65 252.29 26.66 252.05 26.68 251.97 26.68 251.73 26.7 251.65 26.71 251.41 26.73 251.33 26.74 251.09 26.76 251.01 26.76 250.77 26.78 250.69 26.79 250.45 26.81 250.37 26.81 250.13 26.83 250.05 26.84 249.81 26.86 249.73 26.87 249.49 26.89 249.41 26.89 249.17 26.91 249.09 26.92 248.85 26.94 248.77 26.94 248.53 26.96 248.45 26.97 248.21 26.99 248.13 27 247.89 27.02 247.81 27.02 247.57 27.04 247.49 27.05 247.25 27.07 247.17 27.07 246.93 27.09 246.85 27.1 246.61 27.12 246.53 27.13 246.29 27.14 246.21 27.15 245.97 27.17 245.89 27.18 245.65 27.2 245.57 27.2 245.33 27.22 245.25 27.23 245.01 27.25 244.93 27.26 244.69 27.27 244.61 27.28 244.37 27.3 244.29 27.31 244.05 27.33 243.97 27.33 243.73 27.35 243.65 27.36 243.41 27.38 243.33 27.39 243.09 27.41 243.01 27.41 242.77 27.43 242.69 27.44 242.45 27.46 242.37 27.46 242.13 27.48 242.05 27.49 241.81 27.51 241.73 27.52 241.49 27.54 241.41 27.54 241.17 27.56 241.09 27.57 240.85 27.59 240.78 27.59 240.53 27.61 240.46 27.62 240.22 27.64 240.13 27.65 239.9 27.66 239.81 27.67 239.57 27.69 239.5 27.7 239.18 27.72 239.18 27.77 239.5 27.74 239.58 27.73 239.82 27.71 239.9 27.71 240.14 27.69 240.22 27.68 240.46 27.66 240.54 27.66 240.78 27.64 240.86 27.63 241.1 27.61 241.18 27.6 241.42 27.58 241.5 27.58 241.74 27.56 241.82 27.55 242.06 27.53 242.14 27.52 242.38 27.5 242.46 27.5 242.7 27.48 242.78 27.47 243.02 27.45 243.1 27.45 243.34 27.43 243.42 27.42 243.66 27.4 243.74 27.39 243.98 27.38 244.06 27.37 244.3 27.35 244.38 27.34 244.62 27.32 244.7 27.32 244.94 27.3 245.02 27.29 245.26 27.27 245.34 27.27 245.58 27.25 245.66 27.24 245.9 27.22 245.97 27.21 246.22 27.19 246.29 27.19 246.53 27.17 246.62 27.16 246.85 27.14 246.94 27.14 247.18 27.11 247.25 27.11 247.5 27.09 247.57 27.08 247.81 27.06 247.89 27.06 248.13 27.04 248.21 27.03 248.45 27.01 248.53 27 248.77 26.98 248.85 26.98 249.09 26.96 249.17 26.95 249.41 26.93 249.49 26.93 249.73 26.91 249.81 26.9 250.05 26.88 250.13 26.88 250.37 26.86 250.45 26.85 250.69 26.83 250.77 26.82 251.01 26.8 251.09 26.8 251.33 26.78 251.41 26.77 251.65 26.75 251.73 26.75 251.97 26.73 252.05 26.72 252.29 26.7 252.37 26.69 252.61 26.67 252.69 26.67 252.93 26.65 253.01 26.64 253.25 26.62 253.33 26.61 253.57 26.59 253.65 26.59 253.89 26.57 253.97 26.56 254.21 26.54 254.29 26.54 254.53 26.52 254.61 26.51 254.85 26.49 254.93 26.48 255.17 26.46 255.25 26.46 255.49 26.44 255.57 26.43 255.81 26.41 255.89 26.41 256.13 26.39 256.21 26.38 256.45 26.36 256.53 26.36 256.77 26.34 256.85 26.33 257.09 26.31 257.17 26.3 257.41 26.28 257.49 26.28 257.73 26.26 257.81 26.25 258.05 26.23 258.13 26.23 258.37 26.21 258.45 26.2 258.69 26.18 258.77 26.17 259.01 26.15 259.09 26.15 259.33 26.13 259.41 26.12 259.65 26.1 259.73 26.09 259.97 26.08 260.05 26.07 260.29 26.05 260.37 26.04 260.61 26.02 260.69 26.02 260.93 26 261.01 25.99 261.25 25.97 261.33 25.96 261.57 25.95 261.65 25.94 261.89 25.92 261.97 25.91 262.21 25.89 262.29 25.89 262.61 25.86 262.61 25.82 262.29 25.85 262.2 25.85"/><polygon class="cls-11" points="243.34 27.94 243.4 27.93 241.56 3.71 241.5 3.71 243.34 27.94"/><path class="cls-12" d="M239.7,6.47a2.7,2.7,0,0,0,.72-.26,3.12,3.12,0,0,1,.87-.4L240,1.37c-.12,0-.27.08-.38.12l-.92.31-1,.3L239,6.71l.3-.15A1.62,1.62,0,0,1,239.7,6.47Z"/><path class="cls-12" d="M257.46,0,257,4.78a6.77,6.77,0,0,1,1,.08,1.2,1.2,0,0,0,.42,0,.49.49,0,0,1,.17,0l.12,0a.52.52,0,0,0,.18,0,1.74,1.74,0,0,1,.51,0L259.89,0a13.26,13.26,0,0,0-1.41,0A3.86,3.86,0,0,1,257.46,0Z"/><polygon class="cls-2" points="256.04 97.63 233.19 95.94 234.72 70.6 257.56 72.29 256.04 97.63"/><polygon class="cls-3" points="255.73 97.19 232.88 95.5 234.41 70.17 257.25 71.86 255.73 97.19"/><polygon class="cls-13" points="255.74 97.19 255.72 97.19 257.24 71.86 257.26 71.86 255.74 97.19"/><path class="cls-13" d="M255.74,97.2h0l1.52-25.35h0Zm0,0,.41-6.92Z"/><polygon class="cls-13" points="254.74 97.12 254.72 97.12 256.25 71.79 256.27 71.79 254.74 97.12"/><path class="cls-13" d="M254.75,97.13h0l1.53-25.36h0Zm0,0,1.53-25.31Z"/><polygon class="cls-13" points="253.75 97.05 253.73 97.04 255.25 71.71 255.27 71.71 253.75 97.05"/><path class="cls-13" d="M253.76,97.06h0l1.52-25.35h0Zm0,0,1.52-25.31Z"/><polygon class="cls-13" points="252.76 96.97 252.74 96.97 254.26 71.64 254.28 71.64 252.76 96.97"/><path class="cls-13" d="M252.77,97h0l1.52-25.35h0Zm0,0,.61-10.12Z"/><polygon class="cls-13" points="251.76 96.9 251.74 96.9 253.27 71.57 253.29 71.57 251.76 96.9"/><path class="cls-13" d="M251.77,96.91h0l1.53-25.36h0Zm1.51-25.33-.42,6.92Z"/><polygon class="cls-13" points="250.77 96.83 250.75 96.82 252.27 71.49 252.29 71.49 250.77 96.83"/><path class="cls-13" d="M250.78,96.84h0l1.52-25.35h0Zm0,0,1.52-25.31Z"/><polygon class="cls-13" points="249.78 96.75 249.76 96.75 251.28 71.42 251.3 71.42 249.78 96.75"/><path class="cls-13" d="M249.79,96.76h0l1.52-25.35h0Zm0,0,.41-6.81Z"/><polygon class="cls-13" points="248.78 96.68 248.76 96.68 250.29 71.34 250.31 71.35 248.78 96.68"/><path class="cls-13" d="M248.79,96.69h0l1.53-25.36h0Zm1.51-25.33-.42,6.92Z"/><polygon class="cls-13" points="247.79 96.61 247.77 96.6 249.29 71.27 249.31 71.27 247.79 96.61"/><path class="cls-13" d="M247.8,96.62h0l1.53-25.35h0Zm0,0,1.52-25.31Z"/><polygon class="cls-13" points="246.8 96.53 246.78 96.53 248.3 71.2 248.32 71.2 246.8 96.53"/><path class="cls-13" d="M246.81,96.54h0l1.52-25.35h0Zm0,0,1.52-25.31Z"/><polygon class="cls-13" points="245.8 96.46 245.78 96.46 247.31 71.13 247.33 71.13 245.8 96.46"/><path class="cls-13" d="M245.81,96.47h0l1.53-25.36h0Zm1.51-25.33L246.91,78Z"/><polygon class="cls-13" points="244.81 96.39 244.79 96.38 246.31 71.05 246.33 71.05 244.81 96.39"/><path class="cls-13" d="M244.82,96.4h0L246.31,71h0Zm0,0,1.52-25.31Z"/><polygon class="cls-13" points="243.82 96.31 243.8 96.31 245.32 70.98 245.34 70.98 243.82 96.31"/><path class="cls-13" d="M243.83,96.32h0L245.31,71h0Zm0,0L245.33,71Z"/><polygon class="cls-13" points="242.82 96.24 242.8 96.24 244.33 70.9 244.35 70.91 242.82 96.24"/><path class="cls-13" d="M242.83,96.25h0l1.53-25.36h0Zm1.51-25.33-.54,9Z"/><polygon class="cls-13" points="241.83 96.16 241.81 96.16 243.34 70.83 243.35 70.83 241.83 96.16"/><path class="cls-13" d="M241.84,96.18h0l1.53-25.35h0Zm0,0,.54-9Z"/><polygon class="cls-13" points="240.84 96.09 240.82 96.09 242.34 70.76 242.36 70.76 240.84 96.09"/><path class="cls-13" d="M240.85,96.1h0l1.52-25.35h0Zm0,0,1.52-25.31Z"/><polygon class="cls-13" points="239.84 96.02 239.82 96.02 241.35 70.68 241.37 70.69 239.84 96.02"/><path class="cls-13" d="M239.85,96h0l1.53-25.36h0Zm1.51-25.33-.42,6.92Z"/><polygon class="cls-13" points="238.85 95.94 238.83 95.94 240.35 70.61 240.38 70.61 238.85 95.94"/><path class="cls-13" d="M238.86,96h0l1.53-25.35h0Zm0,0,.41-6.81Z"/><polygon class="cls-13" points="237.86 95.87 237.84 95.87 239.36 70.54 239.38 70.54 237.86 95.87"/><path class="cls-13" d="M237.87,95.88h0l1.52-25.35h0Zm0,0,1.52-25.31Z"/><polygon class="cls-13" points="236.86 95.8 236.84 95.8 238.37 70.46 238.39 70.47 236.86 95.8"/><path class="cls-13" d="M236.87,95.81h0l1.53-25.36h0Zm1.51-25.33-.55,9.06Z"/><polygon class="cls-13" points="235.87 95.72 235.85 95.72 237.38 70.39 237.4 70.39 235.87 95.72"/><path class="cls-13" d="M235.88,95.74h0l1.53-25.35h0Zm0,0,.42-6.92Z"/><polygon class="cls-13" points="234.88 95.65 234.86 95.65 236.38 70.32 236.4 70.32 234.88 95.65"/><path class="cls-13" d="M234.89,95.66h0l1.52-25.35h0Zm0,0,1.52-25.31Z"/><polygon class="cls-13" points="233.88 95.58 233.87 95.58 235.39 70.24 235.41 70.25 233.88 95.58"/><path class="cls-13" d="M233.89,95.59h0l1.53-25.36h0Zm1.51-25.34L235,77.06Z"/><polygon class="cls-13" points="232.89 95.5 232.87 95.5 234.4 70.17 234.41 70.17 232.89 95.5"/><path class="cls-13" d="M232.9,95.51h0l1.53-25.35h0Zm0,0,.42-6.92Z"/><polygon class="cls-13" points="255.72 97.2 232.88 95.51 232.88 95.49 255.73 97.18 255.72 97.2"/><path class="cls-13" d="M255.73,97.21h0l-22.85-1.69v0h0l22.86,1.69ZM232.89,95.5l3,.23-3-.23Z"/><polygon class="cls-13" points="255.79 96.1 232.95 94.41 232.95 94.39 255.79 96.08 255.79 96.1"/><path class="cls-13" d="M255.8,96.11l-22.86-1.69v0h0l22.85,1.69ZM233,94.4l22.82,1.69h0L233,94.4Z"/><polygon class="cls-13" points="255.86 95 233.01 93.31 233.01 93.29 255.86 94.98 255.86 95"/><path class="cls-13" d="M255.87,95h0L233,93.32v0h0L255.87,95ZM233,93.3,255.85,95h0L233,93.3Z"/><polygon class="cls-13" points="255.92 93.9 233.08 92.21 233.08 92.19 255.93 93.88 255.92 93.9"/><path class="cls-13" d="M255.93,93.91h0l-22.85-1.69v0h0l22.86,1.69ZM233.09,92.2l22.82,1.69h0L233.09,92.2Z"/><polygon class="cls-13" points="255.99 92.8 233.15 91.11 233.15 91.09 255.99 92.78 255.99 92.8"/><path class="cls-13" d="M256,92.81h0l-22.85-1.69v-.05L256,92.77ZM233.16,91.1,256,92.79h0L233.16,91.1Z"/><polygon class="cls-13" points="256.06 91.7 233.21 90.01 233.21 89.98 256.06 91.67 256.06 91.7"/><path class="cls-13" d="M256.07,91.71h0L233.2,90v0h0l22.86,1.69ZM233.22,90l22.83,1.68h0L233.22,90Z"/><polygon class="cls-13" points="256.12 90.59 233.28 88.91 233.28 88.88 256.12 90.57 256.12 90.59"/><path class="cls-13" d="M256.13,90.61h0l-22.85-1.69v0h0l22.85,1.69Zm-22.84-1.72,3,.23-3-.23Z"/><polygon class="cls-13" points="256.19 89.49 233.34 87.8 233.35 87.78 256.19 89.47 256.19 89.49"/><path class="cls-13" d="M256.2,89.5h0l-22.86-1.69v0l22.86,1.69ZM253,89.25l3.14.23h0Z"/><polygon class="cls-13" points="256.25 88.39 233.41 86.7 233.41 86.68 256.26 88.37 256.25 88.39"/><path class="cls-13" d="M256.26,88.4h0L233.4,86.71v0h0l22.86,1.69Zm-22.84-1.71,22.83,1.69h0l-22.83-1.69Z"/><polygon class="cls-13" points="256.32 87.29 233.48 85.6 233.48 85.58 256.32 87.27 256.32 87.29"/><path class="cls-13" d="M256.33,87.3l-22.86-1.69v0h0l22.85,1.69Zm-22.84-1.71,22.82,1.69h0l-22.82-1.69Z"/><polygon class="cls-13" points="256.39 86.19 233.54 84.5 233.54 84.48 256.39 86.17 256.39 86.19"/><path class="cls-13" d="M256.4,86.2h0l-22.86-1.69v0h0l22.85,1.69Zm-22.85-1.71,22.83,1.69h0l-22.83-1.69Z"/><polygon class="cls-13" points="256.45 85.09 233.61 83.4 233.61 83.38 256.45 85.07 256.45 85.09"/><path class="cls-13" d="M256.46,85.1h0L233.6,83.41v0h0l22.86,1.69Zm-22.84-1.71,22.82,1.69h0l-22.82-1.69Z"/><polygon class="cls-13" points="256.52 83.99 233.68 82.3 233.68 82.28 256.52 83.97 256.52 83.99"/><path class="cls-13" d="M256.53,84h0l-22.85-1.69v0L256.53,84Zm-22.84-1.71,3.67.27-3.67-.27Z"/><polygon class="cls-13" points="256.59 82.89 233.74 81.19 233.74 81.17 256.59 82.86 256.59 82.89"/><path class="cls-13" d="M256.6,82.9h0l-22.86-1.69v0h0l22.86,1.69Zm-3.06-.25,3,.22h0Z"/><polygon class="cls-13" points="256.65 81.78 233.81 80.09 233.81 80.07 256.65 81.76 256.65 81.78"/><path class="cls-13" d="M256.66,81.8h0L233.8,80.1v0h0l22.85,1.69Zm-22.84-1.72,22.82,1.69h0l-22.82-1.69Z"/><polygon class="cls-13" points="256.72 80.68 233.88 78.99 233.88 78.97 256.72 80.66 256.72 80.68"/><path class="cls-13" d="M256.73,80.69h0L233.86,79v0l22.86,1.69ZM233.89,79l22.82,1.69h0L233.89,79Z"/><polygon class="cls-13" points="256.79 79.58 233.94 77.89 233.94 77.87 256.79 79.56 256.79 79.58"/><path class="cls-13" d="M256.79,79.59h0L233.93,77.9v0h0l22.86,1.69ZM234,77.88l22.83,1.69h0L234,77.88Z"/><polygon class="cls-13" points="256.85 78.48 234.01 76.79 234.01 76.77 256.85 78.46 256.85 78.48"/><path class="cls-13" d="M256.86,78.49h0L234,76.8v0h0l22.85,1.69ZM234,76.78l22.82,1.69h0L234,76.78Z"/><polygon class="cls-13" points="256.92 77.38 234.07 75.69 234.07 75.67 256.92 77.36 256.92 77.38"/><path class="cls-13" d="M256.93,77.39h0L234.06,75.7v0h0l22.85,1.69Zm-22.85-1.71,3,.22-3-.22Z"/><polygon class="cls-13" points="256.98 76.28 234.14 74.59 234.14 74.56 256.99 76.25 256.98 76.28"/><path class="cls-13" d="M257,76.29h0L234.13,74.6v0h0L257,76.24ZM253.94,76l3,.23h0Z"/><polygon class="cls-13" points="257.05 75.17 234.21 73.48 234.21 73.46 257.05 75.15 257.05 75.17"/><path class="cls-13" d="M257.06,75.19,234.2,73.5v0l22.86,1.69Zm-22.84-1.71L257,75.16h0l-22.82-1.68Z"/><polygon class="cls-13" points="257.12 74.07 234.27 72.38 234.27 72.36 257.12 74.05 257.12 74.07"/><path class="cls-13" d="M257.13,74.09h0l-22.86-1.69v0h0L257.13,74Zm-22.85-1.72,22.83,1.69h0l-22.83-1.69Z"/><polygon class="cls-13" points="257.18 72.97 234.34 71.28 234.34 71.26 257.18 72.95 257.18 72.97"/><path class="cls-13" d="M257.19,73h0l-22.85-1.69v0h0l22.85,1.69Zm-22.84-1.71L257.17,73h0l-22.82-1.69Z"/><polygon class="cls-13" points="257.25 71.87 234.41 70.18 234.41 70.16 257.25 71.85 257.25 71.87"/><path class="cls-13" d="M257.26,71.88l-22.87-1.69v0l22.86,1.69Zm-22.84-1.71,22.82,1.69h0l-22.82-1.69Z"/><path class="cls-14" d="M250.1,70.76c0-.32,0-.64,0-1a2.56,2.56,0,0,1,0-.39l-7.5-.35a3.74,3.74,0,0,1,0,.82c0,.59,0,1.19-.05,1.79L250,72A8.87,8.87,0,0,1,250.1,70.76Z"/><polygon class="cls-2" points="124.04 32.63 101.19 30.94 102.72 5.6 125.56 7.29 124.04 32.63"/><polygon class="cls-3" points="123.73 32.19 100.88 30.5 102.41 5.17 125.25 6.86 123.73 32.19"/><polygon class="cls-13" points="123.74 32.19 123.72 32.19 125.24 6.86 125.26 6.86 123.74 32.19"/><path class="cls-13" d="M123.74,32.2h0l1.52-25.35h0Zm0,0,.41-6.92Z"/><polygon class="cls-13" points="122.74 32.12 122.72 32.12 124.25 6.79 124.27 6.79 122.74 32.12"/><path class="cls-13" d="M122.75,32.13h0l1.53-25.36h0Zm0,0L124.26,6.8Z"/><polygon class="cls-13" points="121.75 32.05 121.73 32.04 123.25 6.71 123.27 6.71 121.75 32.05"/><path class="cls-13" d="M121.76,32.06h0L123.24,6.7h0Zm0,0,1.52-25.31Z"/><polygon class="cls-13" points="120.76 31.97 120.74 31.97 122.26 6.64 122.28 6.64 120.76 31.97"/><path class="cls-13" d="M120.77,32h0l1.52-25.35h0Zm0,0,.61-10.12Z"/><polygon class="cls-13" points="119.76 31.9 119.74 31.9 121.27 6.57 121.29 6.57 119.76 31.9"/><path class="cls-13" d="M119.77,31.91h0l1.53-25.36h0Zm1.51-25.33-.42,6.92Z"/><polygon class="cls-13" points="118.77 31.83 118.75 31.82 120.27 6.49 120.29 6.49 118.77 31.83"/><path class="cls-13" d="M118.78,31.84h0l1.52-25.35h0Zm0,0L120.28,6.5Z"/><polygon class="cls-13" points="117.78 31.75 117.76 31.75 119.28 6.42 119.3 6.42 117.78 31.75"/><path class="cls-13" d="M117.79,31.76h0l1.52-25.35h0Zm0,0,.41-6.81Z"/><polygon class="cls-13" points="116.78 31.68 116.76 31.68 118.29 6.34 118.31 6.35 116.78 31.68"/><path class="cls-13" d="M116.79,31.69h0l1.53-25.36h0ZM118.3,6.36l-.42,6.92Z"/><polygon class="cls-13" points="115.79 31.61 115.77 31.6 117.29 6.27 117.31 6.27 115.79 31.61"/><path class="cls-13" d="M115.8,31.62h0l1.53-25.35h0Zm0,0L117.3,6.28Z"/><polygon class="cls-13" points="114.8 31.53 114.78 31.53 116.3 6.2 116.32 6.2 114.8 31.53"/><path class="cls-13" d="M114.81,31.54h0l1.52-25.35h0Zm0,0,1.52-25.31Z"/><polygon class="cls-13" points="113.8 31.46 113.78 31.46 115.31 6.13 115.33 6.13 113.8 31.46"/><path class="cls-13" d="M113.81,31.47h0L115.3,6.11h0Zm1.51-25.33L114.91,13Z"/><polygon class="cls-13" points="112.81 31.39 112.79 31.38 114.31 6.05 114.33 6.05 112.81 31.39"/><path class="cls-13" d="M112.82,31.4h0L114.31,6h0Zm0,0,1.52-25.31Z"/><polygon class="cls-13" points="111.82 31.31 111.8 31.31 113.32 5.98 113.34 5.98 111.82 31.31"/><path class="cls-13" d="M111.83,31.32h0L113.31,6h0Zm0,0L113.33,6Z"/><polygon class="cls-13" points="110.82 31.24 110.8 31.24 112.33 5.9 112.35 5.91 110.82 31.24"/><path class="cls-13" d="M110.83,31.25h0l1.53-25.36h0Zm1.51-25.33-.54,9Z"/><polygon class="cls-13" points="109.83 31.16 109.81 31.16 111.33 5.83 111.35 5.83 109.83 31.16"/><path class="cls-13" d="M109.84,31.18h0l1.53-25.35h0Zm0,0,.54-9Z"/><polygon class="cls-13" points="108.84 31.09 108.82 31.09 110.34 5.76 110.36 5.76 108.84 31.09"/><path class="cls-13" d="M108.85,31.1h0l1.52-25.35h0Zm0,0,1.52-25.31Z"/><polygon class="cls-13" points="107.84 31.02 107.83 31.02 109.35 5.68 109.37 5.69 107.84 31.02"/><path class="cls-13" d="M107.85,31h0l1.53-25.36h0ZM109.36,5.7l-.42,6.92Z"/><polygon class="cls-13" points="106.85 30.94 106.83 30.94 108.36 5.61 108.38 5.61 106.85 30.94"/><path class="cls-13" d="M106.86,31h0L108.35,5.6h0Zm0,0,.41-6.81Z"/><polygon class="cls-13" points="105.86 30.87 105.84 30.87 107.36 5.54 107.38 5.54 105.86 30.87"/><path class="cls-13" d="M105.87,30.88h0l1.52-25.35h0Zm0,0,1.52-25.31Z"/><polygon class="cls-13" points="104.86 30.8 104.84 30.8 106.37 5.46 106.39 5.46 104.86 30.8"/><path class="cls-13" d="M104.87,30.81h0l1.53-25.36h0Zm1.51-25.33-.55,9.06Z"/><polygon class="cls-13" points="103.87 30.72 103.85 30.72 105.38 5.39 105.39 5.39 103.87 30.72"/><path class="cls-13" d="M103.88,30.74h0l1.53-25.35h0Zm0,0,.42-6.92Z"/><polygon class="cls-13" points="102.88 30.65 102.86 30.65 104.38 5.32 104.4 5.32 102.88 30.65"/><path class="cls-13" d="M102.89,30.66h0l1.52-25.35h0Zm0,0,1.52-25.31Z"/><polygon class="cls-13" points="101.89 30.58 101.86 30.57 103.39 5.24 103.41 5.25 101.89 30.58"/><path class="cls-13" d="M101.89,30.59h0l1.53-25.36h0ZM103.4,5.25,103,12.06Z"/><polygon class="cls-13" points="100.89 30.5 100.87 30.5 102.4 5.17 102.42 5.17 100.89 30.5"/><path class="cls-13" d="M100.9,30.51h0l1.53-25.35h0Zm0,0,.42-6.92Z"/><polygon class="cls-13" points="123.72 32.2 100.88 30.51 100.88 30.49 123.73 32.18 123.72 32.2"/><path class="cls-13" d="M123.73,32.21h0l-22.85-1.69v0h0l22.86,1.69ZM100.89,30.5l3,.23-3-.23Z"/><polygon class="cls-13" points="123.79 31.1 100.95 29.41 100.95 29.39 123.79 31.08 123.79 31.1"/><path class="cls-13" d="M123.8,31.11l-22.86-1.69v0h0l22.85,1.69ZM101,29.4l22.82,1.69h0L101,29.4Z"/><polygon class="cls-13" points="123.86 30 101.01 28.31 101.02 28.29 123.86 29.98 123.86 30"/><path class="cls-13" d="M123.87,30h0L101,28.32v0h0L123.87,30ZM101,28.3,123.85,30h0L101,28.3Z"/><polygon class="cls-13" points="123.92 28.9 101.08 27.21 101.08 27.19 123.92 28.88 123.92 28.9"/><path class="cls-13" d="M123.93,28.91h0l-22.85-1.69v0h0l22.86,1.69ZM101.09,27.2l22.82,1.69h0L101.09,27.2Z"/><polygon class="cls-13" points="123.99 27.8 101.15 26.11 101.15 26.09 123.99 27.78 123.99 27.8"/><path class="cls-13" d="M124,27.81h0l-22.85-1.69v-.05L124,27.77ZM101.16,26.1,124,27.79h0L101.16,26.1Z"/><polygon class="cls-13" points="124.06 26.7 101.21 25.01 101.21 24.98 124.06 26.67 124.06 26.7"/><path class="cls-13" d="M124.07,26.71h0L101.2,25V25h0l22.86,1.69ZM101.22,25l22.83,1.68h0L101.22,25Z"/><polygon class="cls-13" points="124.12 25.59 101.28 23.91 101.28 23.88 124.12 25.57 124.12 25.59"/><path class="cls-13" d="M124.13,25.61h0l-22.85-1.69v-.05h0l22.85,1.69Zm-22.84-1.72,3,.23-3-.23Z"/><polygon class="cls-13" points="124.19 24.49 101.34 22.8 101.35 22.78 124.19 24.47 124.19 24.49"/><path class="cls-13" d="M124.2,24.5h0l-22.86-1.69v0l22.86,1.69ZM121,24.25l3.14.23h0Z"/><polygon class="cls-13" points="124.25 23.39 101.41 21.7 101.41 21.68 124.26 23.37 124.25 23.39"/><path class="cls-13" d="M124.26,23.4h0L101.4,21.71v0h0l22.86,1.69Zm-22.84-1.71,22.83,1.69h0l-22.83-1.69Z"/><polygon class="cls-13" points="124.32 22.29 101.48 20.6 101.48 20.58 124.32 22.27 124.32 22.29"/><path class="cls-13" d="M124.33,22.3l-22.86-1.69v0h0l22.85,1.69Zm-22.84-1.71,22.82,1.69h0l-22.82-1.69Z"/><polygon class="cls-13" points="124.39 21.19 101.54 19.5 101.55 19.48 124.39 21.17 124.39 21.19"/><path class="cls-13" d="M124.4,21.2h0l-22.86-1.69v0h0l22.85,1.69Zm-22.85-1.71,22.83,1.69h0l-22.83-1.69Z"/><polygon class="cls-13" points="124.45 20.09 101.61 18.4 101.61 18.38 124.45 20.07 124.45 20.09"/><path class="cls-13" d="M124.46,20.1h0L101.6,18.41v-.05h0l22.86,1.69Zm-22.84-1.71,22.82,1.69h0l-22.82-1.69Z"/><polygon class="cls-13" points="124.52 18.99 101.68 17.3 101.68 17.27 124.52 18.96 124.52 18.99"/><path class="cls-13" d="M124.53,19h0l-22.85-1.69v0L124.53,19Zm-22.84-1.71,3.67.27-3.67-.27Z"/><polygon class="cls-13" points="124.59 17.89 101.74 16.2 101.74 16.17 124.59 17.86 124.59 17.89"/><path class="cls-13" d="M124.6,17.9h0l-22.86-1.69v-.05h0l22.86,1.69Zm-3.06-.25,3,.22h0Z"/><polygon class="cls-13" points="124.65 16.78 101.81 15.09 101.81 15.07 124.65 16.76 124.65 16.78"/><path class="cls-13" d="M124.66,16.8h0L101.8,15.1v0h0l22.85,1.69Zm-22.84-1.72,22.82,1.69h0l-22.82-1.69Z"/><polygon class="cls-13" points="124.72 15.68 101.88 13.99 101.88 13.97 124.72 15.66 124.72 15.68"/><path class="cls-13" d="M124.73,15.69h0L101.86,14v0l22.86,1.69ZM101.89,14l22.82,1.69h0L101.89,14Z"/><polygon class="cls-13" points="124.78 14.58 101.94 12.89 101.94 12.87 124.79 14.56 124.78 14.58"/><path class="cls-13" d="M124.79,14.59h0L101.93,12.9v0h0l22.86,1.69ZM102,12.88l22.83,1.69h0L102,12.88Z"/><polygon class="cls-13" points="124.85 13.48 102.01 11.79 102.01 11.77 124.85 13.46 124.85 13.48"/><path class="cls-13" d="M124.86,13.49h0L102,11.8v0h0l22.85,1.69ZM102,11.78l22.82,1.69h0L102,11.78Z"/><polygon class="cls-13" points="124.92 12.38 102.07 10.69 102.08 10.67 124.92 12.36 124.92 12.38"/><path class="cls-13" d="M124.93,12.39h0L102.06,10.7v0h0l22.85,1.69Zm-22.85-1.71,3,.22-3-.22Z"/><polygon class="cls-13" points="124.98 11.28 102.14 9.59 102.14 9.56 124.98 11.26 124.98 11.28"/><path class="cls-13" d="M125,11.29h0L102.13,9.6v0h0L125,11.24Zm-3-.25,3,.23h0Z"/><polygon class="cls-13" points="125.05 10.18 102.21 8.48 102.21 8.46 125.05 10.15 125.05 10.18"/><path class="cls-13" d="M125.06,10.19,102.2,8.5V8.45l22.86,1.69ZM102.22,8.48,125,10.16h0L102.22,8.48Z"/><polygon class="cls-13" points="125.12 9.07 102.27 7.38 102.27 7.36 125.12 9.05 125.12 9.07"/><path class="cls-13" d="M125.13,9.09h0L102.26,7.39v0h0L125.13,9ZM102.28,7.37l22.83,1.69h0L102.28,7.37Z"/><polygon class="cls-13" points="125.18 7.97 102.34 6.28 102.34 6.26 125.18 7.95 125.18 7.97"/><path class="cls-13" d="M125.19,8h0L102.33,6.29v0h0l22.85,1.69ZM102.35,6.27,125.17,8h0L102.35,6.27Z"/><polygon class="cls-13" points="125.25 6.87 102.41 5.18 102.41 5.16 125.25 6.85 125.25 6.87"/><path class="cls-13" d="M125.26,6.88,102.39,5.19v0l22.86,1.69ZM102.42,5.17l22.82,1.69h0L102.42,5.17Z"/><path class="cls-14" d="M118.1,5.76c0-.32,0-.64,0-1a2.56,2.56,0,0,1,0-.39l-7.5-.35a3.74,3.74,0,0,1,0,.82c0,.59,0,1.19,0,1.79L118,7A8.87,8.87,0,0,1,118.1,5.76Z"/><path class="cls-2" d="M66.76,89.09l28.16,1.22,1.22-28.23L68,60.86Zm3-8.19a.89.89,0,1,1-.89-.89A.89.89,0,0,1,69.8,80.9Zm.51-11.79a.89.89,0,1,1-.89-.89A.89.89,0,0,1,70.31,69.11Z"/><path class="cls-3" d="M66.28,88.6l28.16,1.23L95.66,61.6,67.5,60.37Zm3-8.18a.89.89,0,1,1-.89-.89A.89.89,0,0,1,69.32,80.42Zm.51-11.79a.89.89,0,1,1-.89-.89A.89.89,0,0,1,69.83,68.63Z"/><path class="cls-15" d="M66.28,88.6l3.59.16,1.22-28.23-3.59-.16Zm3-8.18a.89.89,0,1,1-.89-.89A.89.89,0,0,1,69.32,80.42Zm.51-11.79a.89.89,0,1,1-.89-.89A.89.89,0,0,1,69.83,68.63Z"/></g></g></g></svg>