<svg xmlns="http://www.w3.org/2000/svg" viewBox="0 0 622.16 126.63"><defs><style>.cls-1{isolation:isolate;}.cls-2{fill:#cfd0d2;mix-blend-mode:multiply;}.cls-3{fill:#fff;}.cls-12,.cls-14,.cls-4,.cls-5{opacity:0.8;}.cls-5{fill:#5ac5d2;}.cls-6{fill:#fff6d5;}.cls-7{fill:#eee6c8;}.cls-8{fill:#5f96b6;}.cls-9{fill:#f5f5f6;}.cls-10{fill:#a5a8aa;}.cls-11{fill:#bc1f2d;}.cls-12{fill:#677b9f;}.cls-13{fill:#cce4f3;}.cls-14{fill:#c57c72;}.cls-15{fill:#c9bedd;}</style></defs><g class="cls-1"><g id="Layer_2" data-name="Layer 2"><g id="Layer_1-2" data-name="Layer 1"><path class="cls-2" d="M22,69.75.41,72.22l2.42,22,21.6-2.47ZM1.57,73.65A.52.52,0,0,1,2,73.07a.51.51,0,0,1,.57.46.53.53,0,0,1-.46.59A.52.52,0,0,1,1.57,73.65Zm.26,2.4a.54.54,0,0,1,.46-.59.53.53,0,0,1,.58.47.54.54,0,0,1-.46.59A.53.53,0,0,1,1.83,76.05Zm.27,2.4a.52.52,0,0,1,.45-.59.53.53,0,0,1,.58.47.52.52,0,0,1-.46.58A.51.51,0,0,1,2.1,78.45Zm.26,2.39a.52.52,0,0,1,.46-.58.51.51,0,0,1,.57.46.52.52,0,0,1-.46.59A.52.52,0,0,1,2.36,80.84Zm.26,2.4a.54.54,0,0,1,.46-.59.53.53,0,0,1,.58.47.52.52,0,1,1-1,.12Zm.27,2.4a.53.53,0,0,1,.46-.59.52.52,0,0,1,.57.47.54.54,0,0,1-.46.59A.52.52,0,0,1,2.89,85.64ZM3.15,88a.52.52,0,1,1,.58.46A.51.51,0,0,1,3.15,88Zm.27,2.39a.52.52,0,1,1,1-.12A.53.53,0,0,1,4,90.9.52.52,0,0,1,3.42,90.43Zm.83,2.87a.52.52,0,0,1-.57-.47.54.54,0,0,1,.46-.59.53.53,0,0,1,.11,1.06Z"/><path class="cls-3" d="M21.6,69.41,0,71.88l2.43,22L24,91.44ZM1.16,73.31a.53.53,0,0,1,.46-.58.5.5,0,0,1,.57.46.52.52,0,0,1-.45.59A.53.53,0,0,1,1.16,73.31Zm.27,2.4a.52.52,0,1,1,1-.12.54.54,0,0,1-.46.59A.52.52,0,0,1,1.43,75.71Zm.26,2.4a.53.53,0,0,1,.46-.59.53.53,0,0,1,.11,1A.51.51,0,0,1,1.69,78.11ZM2,80.5a.53.53,0,0,1,.46-.58.53.53,0,0,1,.58.47.52.52,0,1,1-1,.11Zm.27,2.4a.52.52,0,0,1,.46-.58.51.51,0,0,1,.57.46.53.53,0,0,1-.46.59A.52.52,0,0,1,2.22,82.9Zm.26,2.4a.54.54,0,0,1,.46-.59.52.52,0,0,1,.57.47.52.52,0,1,1-1,.12Zm.27,2.4a.52.52,0,0,1,.45-.59.53.53,0,0,1,.58.47.52.52,0,0,1-.46.58A.51.51,0,0,1,2.75,87.7ZM3,90.09a.52.52,0,0,1,.46-.58A.51.51,0,0,1,4,90a.52.52,0,1,1-1,.11ZM3.85,93a.53.53,0,0,1-.58-.47.54.54,0,0,1,.46-.59A.53.53,0,0,1,3.85,93Z"/><g class="cls-4"><path class="cls-5" d="M2.46,71.15c.07.3.13.59.19.89s.12.66.18,1l8.57-1.65c-.08-.31-.14-.63-.19-.94a1.24,1.24,0,0,0-.09-.39.39.39,0,0,1,0-.14.25.25,0,0,1,0-.12,1.13,1.13,0,0,0,0-.18,1.86,1.86,0,0,1-.13-.46L2.39,70.78A2.66,2.66,0,0,1,2.46,71.15Z"/></g><path class="cls-2" d="M132,6.75,110.41,9.22l2.42,22,21.6-2.47Zm-20.43,3.9a.52.52,0,0,1,.46-.58.51.51,0,0,1,.57.46.53.53,0,0,1-.46.59A.52.52,0,0,1,111.57,10.65Zm.26,2.4a.54.54,0,0,1,.46-.59.53.53,0,0,1,.58.47.54.54,0,0,1-.46.59A.53.53,0,0,1,111.83,13.05Zm.27,2.4a.52.52,0,0,1,.45-.59.53.53,0,0,1,.58.47.52.52,0,0,1-.46.58A.51.51,0,0,1,112.1,15.45Zm.26,2.39a.52.52,0,0,1,.46-.58.51.51,0,0,1,.57.46.52.52,0,0,1-.46.59A.52.52,0,0,1,112.36,17.84Zm.26,2.4a.54.54,0,0,1,.46-.59.53.53,0,0,1,.58.47.52.52,0,1,1-1,.12Zm.27,2.4a.53.53,0,0,1,.46-.59.52.52,0,0,1,.57.47.54.54,0,0,1-.46.59A.52.52,0,0,1,112.89,22.64Zm.26,2.4a.52.52,0,1,1,.58.46A.51.51,0,0,1,113.15,25Zm.27,2.39a.52.52,0,1,1,1-.12.53.53,0,0,1-.46.59A.52.52,0,0,1,113.42,27.43Zm.83,2.87a.52.52,0,0,1-.57-.47.54.54,0,0,1,.46-.59.53.53,0,0,1,.11,1.06Z"/><path class="cls-3" d="M131.6,6.41,110,8.88l2.43,22L134,28.44Zm-20.44,3.9a.53.53,0,0,1,.46-.58.5.5,0,0,1,.57.46.52.52,0,0,1-.45.59A.53.53,0,0,1,111.16,10.31Zm.27,2.4a.52.52,0,1,1,1-.12.54.54,0,0,1-.46.59A.52.52,0,0,1,111.43,12.71Zm.26,2.4a.53.53,0,0,1,.46-.59.53.53,0,0,1,.11,1.05A.51.51,0,0,1,111.69,15.11ZM112,17.5a.53.53,0,0,1,.46-.58.53.53,0,0,1,.58.47.52.52,0,1,1-1,.11Zm.27,2.4a.52.52,0,0,1,.46-.58.51.51,0,0,1,.57.46.53.53,0,0,1-.46.59A.52.52,0,0,1,112.22,19.9Zm.26,2.4a.54.54,0,0,1,.46-.59.52.52,0,0,1,.57.47.52.52,0,1,1-1,.12Zm.27,2.4a.52.52,0,0,1,.45-.59.53.53,0,0,1,.58.47.52.52,0,0,1-.46.58A.51.51,0,0,1,112.75,24.7Zm.26,2.39a.52.52,0,0,1,.46-.58A.51.51,0,0,1,114,27a.52.52,0,1,1-1,.11Zm.84,2.87a.53.53,0,0,1-.58-.47.54.54,0,0,1,.46-.59.53.53,0,0,1,.12,1.06Z"/><g class="cls-4"><path class="cls-5" d="M112.46,8.15c.07.3.13.59.19.89s.12.66.18,1l8.57-1.65c-.08-.31-.14-.63-.19-.94a1.24,1.24,0,0,0-.09-.39.39.39,0,0,1-.05-.14.25.25,0,0,1,0-.12,1.13,1.13,0,0,0,0-.18,1.86,1.86,0,0,1-.13-.46l-8.53,1.64A2.66,2.66,0,0,1,112.46,8.15Z"/></g><path class="cls-2" d="M513,78.75l-21.59,2.47,2.42,22,21.6-2.47Zm-20.43,3.9a.52.52,0,0,1,.46-.58.51.51,0,0,1,.57.46.53.53,0,0,1-.46.59A.52.52,0,0,1,492.57,82.65Zm.26,2.4a.54.54,0,0,1,.46-.59.53.53,0,0,1,.58.47.54.54,0,0,1-.46.59A.53.53,0,0,1,492.83,85.05Zm.27,2.4a.52.52,0,0,1,.45-.59.53.53,0,0,1,.58.47.52.52,0,0,1-.46.58A.51.51,0,0,1,493.1,87.45Zm.26,2.39a.52.52,0,0,1,.46-.58.51.51,0,0,1,.57.46.52.52,0,0,1-.46.59A.52.52,0,0,1,493.36,89.84Zm.26,2.4a.54.54,0,0,1,.46-.59.53.53,0,0,1,.58.47.52.52,0,1,1-1,.12Zm.27,2.4a.53.53,0,0,1,.46-.59.52.52,0,0,1,.57.47.54.54,0,0,1-.46.59A.52.52,0,0,1,493.89,94.64Zm.26,2.4a.52.52,0,1,1,.58.46A.51.51,0,0,1,494.15,97Zm.27,2.39a.52.52,0,1,1,1-.12.53.53,0,0,1-.46.59A.52.52,0,0,1,494.42,99.43Zm.83,2.87a.52.52,0,0,1-.57-.47.54.54,0,0,1,.46-.59.53.53,0,0,1,.11,1.06Z"/><path class="cls-3" d="M512.6,78.41,491,80.88l2.43,22L515,100.44Zm-20.44,3.9a.53.53,0,0,1,.46-.58.5.5,0,0,1,.57.46.52.52,0,0,1-.45.59A.53.53,0,0,1,492.16,82.31Zm.27,2.4a.52.52,0,1,1,1-.12.54.54,0,0,1-.46.59A.52.52,0,0,1,492.43,84.71Zm.26,2.4a.53.53,0,0,1,.46-.59.53.53,0,0,1,.11,1A.51.51,0,0,1,492.69,87.11ZM493,89.5a.53.53,0,0,1,.46-.58.53.53,0,0,1,.58.47.52.52,0,1,1-1,.11Zm.27,2.4a.52.52,0,0,1,.46-.58.51.51,0,0,1,.57.46.53.53,0,0,1-.46.59A.52.52,0,0,1,493.22,91.9Zm.26,2.4a.54.54,0,0,1,.46-.59.52.52,0,0,1,.57.47.52.52,0,1,1-1,.12Zm.27,2.4a.52.52,0,0,1,.45-.59.53.53,0,0,1,.58.47.52.52,0,0,1-.46.58A.51.51,0,0,1,493.75,96.7Zm.26,2.39a.52.52,0,0,1,.46-.58A.51.51,0,0,1,495,99a.52.52,0,1,1-1,.11Zm.84,2.87a.53.53,0,0,1-.58-.47.54.54,0,0,1,.46-.59.53.53,0,0,1,.12,1.06Z"/><g class="cls-4"><path class="cls-5" d="M493.46,80.15c.07.3.13.59.19.89s.12.66.18,1l8.57-1.65c-.08-.31-.14-.63-.19-.94a1.24,1.24,0,0,0-.09-.39.39.39,0,0,1-.05-.14.25.25,0,0,1,0-.12,1.13,1.13,0,0,0,0-.18,1.86,1.86,0,0,1-.13-.46l-8.53,1.64A2.66,2.66,0,0,1,493.46,80.15Z"/></g><path class="cls-2" d="M393.11,93.34l-21.6,2.47,2.43,22,21.6-2.47Zm-20.43,3.9a.52.52,0,1,1,1-.12.54.54,0,0,1-.46.59A.52.52,0,0,1,372.68,97.24Zm.26,2.4a.53.53,0,0,1,.46-.59.52.52,0,0,1,.57.47.52.52,0,1,1-1,.12Zm.26,2.39a.52.52,0,1,1,.58.47A.53.53,0,0,1,373.2,102Zm.27,2.4a.52.52,0,0,1,.46-.58.51.51,0,0,1,.57.46.53.53,0,0,1-.46.59A.52.52,0,0,1,373.47,104.43Zm.26,2.4a.54.54,0,0,1,.46-.59.53.53,0,0,1,.58.47.54.54,0,0,1-.46.59A.53.53,0,0,1,373.73,106.83Zm.27,2.4a.52.52,0,1,1,.57.46A.51.51,0,0,1,374,109.23Zm.26,2.39a.52.52,0,0,1,.46-.58.53.53,0,0,1,.12,1A.53.53,0,0,1,374.26,111.62Zm.26,2.4a.54.54,0,0,1,.46-.59.53.53,0,0,1,.58.47.52.52,0,1,1-1,.12Zm.84,2.87a.52.52,0,0,1-.57-.47.53.53,0,0,1,.46-.59.52.52,0,0,1,.57.47A.54.54,0,0,1,375.36,116.89Z"/><path class="cls-3" d="M392.7,93l-21.59,2.47,2.42,22,21.6-2.47Zm-20.43,3.9a.52.52,0,0,1,.46-.58.51.51,0,0,1,.57.46.52.52,0,0,1-.45.59A.53.53,0,0,1,372.27,96.9Zm.26,2.4a.54.54,0,0,1,.46-.59.53.53,0,0,1,.58.47.54.54,0,0,1-.46.59A.53.53,0,0,1,372.53,99.3Zm.27,2.4a.52.52,0,1,1,.57.46A.51.51,0,0,1,372.8,101.7Zm.26,2.39a.53.53,0,0,1,.46-.58.52.52,0,0,1,.58.46.52.52,0,1,1-1,.12Zm.27,2.4a.52.52,0,1,1,.57.47A.53.53,0,0,1,373.33,106.49Zm.26,2.4a.53.53,0,0,1,.46-.59.53.53,0,1,1-.46.59Zm.26,2.39a.52.52,0,1,1,.58.47A.52.52,0,0,1,373.85,111.28Zm.27,2.4a.52.52,0,0,1,.46-.58.51.51,0,0,1,.57.46.53.53,0,0,1-.46.59A.52.52,0,0,1,374.12,113.68Zm.84,2.87a.53.53,0,0,1-.58-.47.54.54,0,0,1,.46-.59.53.53,0,0,1,.58.47A.54.54,0,0,1,375,116.55Z"/><g class="cls-4"><path class="cls-5" d="M373.57,94.74c.07.29.13.59.19.89l.18,1L382.51,95a7.3,7.3,0,0,1-.19-.93,1.24,1.24,0,0,0-.09-.39.67.67,0,0,1-.06-.15s0-.07,0-.11a.55.55,0,0,0,0-.18,1.86,1.86,0,0,1-.13-.46l-8.53,1.64A2.66,2.66,0,0,1,373.57,94.74Z"/></g><polygon class="cls-2" points="190.35 37.08 189.51 58.89 189.51 58.89 189.51 58.89 192.76 62.56 212.56 63.47 213.53 38.15 190.35 37.08"/><polygon class="cls-6" points="213.14 37.72 189.95 36.65 189.11 58.46 192.37 62.13 212.16 63.04 213.14 37.72"/><polygon class="cls-7" points="192.37 62.13 189.11 58.46 192.5 58.61 192.37 62.13"/><g class="cls-4"><path class="cls-8" d="M209.85,35.73l-11.53-.63c0,.19-.08.39-.09.5a14.84,14.84,0,0,0-.09,2.11l11.7.64c0-.59,0-1.17,0-1.75C209.86,36.33,209.83,36,209.85,35.73Z"/></g><polygon class="cls-2" points="559.35 21.08 558.51 42.89 558.51 42.89 558.51 42.89 561.76 46.56 581.56 47.47 582.53 22.15 559.35 21.08"/><polygon class="cls-6" points="582.14 21.72 558.95 20.65 558.11 42.46 561.37 46.13 581.16 47.04 582.14 21.72"/><polygon class="cls-7" points="561.37 46.13 558.11 42.46 561.5 42.61 561.37 46.13"/><g class="cls-4"><path class="cls-8" d="M578.85,19.73l-11.53-.63c0,.19-.08.39-.09.5a14.84,14.84,0,0,0-.09,2.11l11.7.64c0-.59,0-1.17,0-1.75C578.86,20.33,578.83,20,578.85,19.73Z"/></g><polygon class="cls-2" points="622.16 124.73 598.73 126.63 596.89 102.4 620.32 100.5 622.16 124.73"/><polygon class="cls-9" points="621.76 124.31 598.33 126.22 596.49 101.99 619.92 100.08 621.76 124.31"/><polygon class="cls-10" points="619.74 101.95 619.66 101.95 619.42 101.97 619.34 101.98 619.1 102 619.02 102 618.78 102.03 618.7 102.03 618.46 102.05 618.38 102.06 618.14 102.08 618.06 102.08 617.82 102.1 617.74 102.11 617.5 102.13 617.42 102.14 617.18 102.16 617.1 102.16 616.86 102.18 616.78 102.19 616.54 102.21 616.46 102.21 616.22 102.23 616.14 102.24 615.9 102.26 615.82 102.27 615.58 102.28 615.5 102.29 615.26 102.31 615.18 102.32 614.94 102.34 614.86 102.34 614.62 102.36 614.54 102.37 614.3 102.39 614.22 102.39 613.98 102.42 613.9 102.42 613.66 102.44 613.58 102.45 613.34 102.47 613.26 102.47 613.02 102.49 612.94 102.5 612.7 102.52 612.62 102.53 612.38 102.55 612.3 102.55 612.06 102.57 611.98 102.58 611.74 102.6 611.66 102.6 611.42 102.62 611.34 102.63 611.1 102.65 611.02 102.66 610.78 102.67 610.7 102.68 610.46 102.7 610.38 102.71 610.14 102.73 610.06 102.73 609.82 102.75 609.74 102.76 609.5 102.78 609.42 102.78 609.18 102.8 609.1 102.81 608.86 102.83 608.78 102.84 608.54 102.86 608.46 102.86 608.22 102.88 608.14 102.89 607.9 102.91 607.82 102.92 607.58 102.93 607.5 102.94 607.26 102.96 607.18 102.97 606.94 102.99 606.86 102.99 606.62 103.01 606.54 103.02 606.3 103.04 606.22 103.05 605.98 103.06 605.9 103.07 605.66 103.09 605.58 103.1 605.34 103.12 605.26 103.12 605.02 103.14 604.94 103.15 604.7 103.17 604.62 103.17 604.38 103.19 604.3 103.2 604.06 103.22 603.98 103.23 603.74 103.25 603.66 103.25 603.42 103.27 603.34 103.28 603.1 103.3 603.02 103.31 602.78 103.32 602.7 103.33 602.46 103.35 602.38 103.36 602.14 103.38 602.06 103.38 601.82 103.4 601.74 103.41 601.5 103.43 601.42 103.44 601.18 103.45 601.1 103.46 600.86 103.48 600.78 103.49 600.54 103.51 600.47 103.51 600.23 103.53 600.14 103.54 599.9 103.56 599.83 103.56 599.59 103.58 599.5 103.59 599.26 103.61 599.18 103.62 598.95 103.64 598.87 103.64 598.63 103.66 598.54 103.67 598.3 103.69 598.23 103.69 597.99 103.71 597.91 103.72 597.67 103.74 597.59 103.75 597.35 103.77 597.27 103.77 597.03 103.79 596.95 103.8 596.63 103.83 596.63 103.87 596.95 103.84 597.03 103.83 597.27 103.81 597.35 103.81 597.59 103.79 597.67 103.78 597.91 103.76 597.99 103.75 598.23 103.74 598.31 103.73 598.55 103.71 598.63 103.7 598.87 103.68 598.95 103.68 599.19 103.66 599.27 103.65 599.51 103.63 599.59 103.63 599.83 103.61 599.91 103.6 600.15 103.58 600.23 103.57 600.47 103.55 600.55 103.55 600.79 103.53 600.87 103.52 601.11 103.5 601.19 103.5 601.43 103.48 601.51 103.47 601.75 103.45 601.83 103.44 602.07 103.42 602.15 103.42 602.39 103.4 602.47 103.39 602.71 103.37 602.79 103.37 603.03 103.35 603.11 103.34 603.35 103.32 603.43 103.31 603.67 103.29 603.75 103.29 603.99 103.27 604.07 103.26 604.31 103.24 604.39 103.24 604.63 103.22 604.71 103.21 604.95 103.19 605.03 103.18 605.27 103.16 605.35 103.16 605.59 103.14 605.66 103.13 605.9 103.11 605.99 103.11 606.23 103.09 606.3 103.08 606.54 103.06 606.63 103.05 606.87 103.03 606.95 103.03 607.18 103.01 607.26 103 607.5 102.98 607.59 102.98 607.83 102.96 607.9 102.95 608.14 102.93 608.22 102.92 608.46 102.9 608.54 102.9 608.78 102.88 608.86 102.87 609.1 102.85 609.18 102.85 609.42 102.83 609.5 102.82 609.74 102.8 609.82 102.79 610.06 102.77 610.14 102.77 610.38 102.75 610.46 102.74 610.7 102.72 610.78 102.72 611.02 102.7 611.1 102.69 611.34 102.67 611.42 102.66 611.66 102.64 611.74 102.64 611.98 102.62 612.06 102.61 612.3 102.59 612.38 102.59 612.62 102.57 612.7 102.56 612.94 102.54 613.02 102.53 613.26 102.51 613.34 102.51 613.58 102.49 613.66 102.48 613.9 102.46 613.98 102.46 614.22 102.44 614.3 102.43 614.54 102.41 614.62 102.4 614.86 102.38 614.94 102.38 615.18 102.36 615.26 102.35 615.5 102.33 615.58 102.33 615.82 102.31 615.9 102.3 616.14 102.28 616.22 102.27 616.46 102.25 616.54 102.25 616.78 102.23 616.86 102.22 617.1 102.2 617.18 102.2 617.42 102.18 617.5 102.17 617.74 102.15 617.82 102.14 618.06 102.13 618.14 102.12 618.38 102.1 618.46 102.09 618.7 102.07 618.78 102.07 619.02 102.05 619.1 102.04 619.34 102.02 619.42 102.01 619.66 102 619.74 101.99 620.06 101.96 620.06 101.92 619.74 101.95"/><polygon class="cls-10" points="619.79 103.77 619.55 103.79 619.48 103.8 619.24 103.82 619.15 103.83 618.91 103.84 618.84 103.85 618.6 103.87 618.51 103.88 618.27 103.9 618.2 103.9 617.96 103.92 617.88 103.93 617.63 103.95 617.56 103.95 617.32 103.97 617.24 103.98 617 104 616.92 104.01 616.68 104.03 616.6 104.03 616.36 104.05 616.28 104.06 616.04 104.08 615.96 104.08 615.72 104.11 615.64 104.11 615.4 104.13 615.32 104.14 615.08 104.16 615 104.16 614.76 104.18 614.68 104.19 614.44 104.21 614.36 104.22 614.12 104.23 614.04 104.24 613.8 104.26 613.72 104.27 613.48 104.29 613.4 104.29 613.16 104.31 613.08 104.32 612.84 104.34 612.76 104.34 612.52 104.36 612.44 104.37 612.2 104.39 612.12 104.4 611.88 104.42 611.8 104.42 611.56 104.44 611.48 104.45 611.24 104.47 611.16 104.47 610.92 104.5 610.84 104.5 610.6 104.52 610.52 104.53 610.28 104.55 610.2 104.55 609.96 104.57 609.88 104.58 609.64 104.6 609.56 104.61 609.32 104.63 609.24 104.63 609 104.65 608.92 104.66 608.68 104.68 608.6 104.68 608.36 104.7 608.28 104.71 608.04 104.73 607.96 104.73 607.72 104.75 607.64 104.76 607.4 104.78 607.32 104.79 607.08 104.81 607 104.81 606.76 104.83 606.68 104.84 606.44 104.86 606.36 104.86 606.12 104.88 606.04 104.89 605.8 104.91 605.72 104.92 605.48 104.94 605.4 104.94 605.16 104.96 605.08 104.97 604.84 104.99 604.76 105 604.52 105.01 604.44 105.02 604.2 105.04 604.12 105.05 603.88 105.07 603.8 105.07 603.56 105.09 603.48 105.1 603.24 105.12 603.16 105.13 602.92 105.14 602.84 105.15 602.6 105.17 602.52 105.18 602.28 105.2 602.2 105.2 601.96 105.22 601.88 105.23 601.64 105.25 601.56 105.25 601.32 105.27 601.24 105.28 601 105.3 600.92 105.31 600.68 105.33 600.6 105.33 600.36 105.35 600.28 105.36 600.04 105.38 599.96 105.39 599.72 105.4 599.64 105.41 599.4 105.43 599.32 105.44 599.08 105.46 599 105.46 598.76 105.48 598.68 105.49 598.44 105.51 598.36 105.52 598.12 105.53 598.04 105.54 597.8 105.56 597.72 105.57 597.48 105.59 597.4 105.59 597.16 105.61 597.08 105.62 596.76 105.64 596.77 105.69 597.09 105.66 597.17 105.65 597.41 105.63 597.49 105.63 597.73 105.61 597.81 105.6 598.05 105.58 598.13 105.58 598.37 105.56 598.45 105.55 598.69 105.53 598.77 105.52 599.01 105.5 599.09 105.5 599.33 105.48 599.41 105.47 599.65 105.45 599.73 105.45 599.97 105.43 600.05 105.42 600.29 105.4 600.37 105.39 600.61 105.37 600.69 105.37 600.93 105.35 601.01 105.34 601.25 105.32 601.33 105.32 601.57 105.3 601.64 105.29 601.88 105.27 601.97 105.26 602.21 105.24 602.28 105.24 602.52 105.22 602.61 105.21 602.85 105.19 602.92 105.19 603.16 105.17 603.25 105.16 603.49 105.14 603.57 105.13 603.8 105.11 603.88 105.11 604.13 105.09 604.2 105.08 604.44 105.06 604.52 105.06 604.76 105.04 604.84 105.03 605.08 105.01 605.16 105 605.4 104.98 605.48 104.98 605.72 104.96 605.8 104.95 606.04 104.93 606.12 104.93 606.36 104.91 606.44 104.9 606.68 104.88 606.76 104.87 607 104.85 607.08 104.85 607.32 104.83 607.4 104.82 607.64 104.8 607.72 104.8 607.96 104.78 608.04 104.77 608.28 104.75 608.36 104.74 608.6 104.72 608.68 104.72 608.92 104.7 609 104.69 609.24 104.67 609.32 104.67 609.56 104.65 609.64 104.64 609.88 104.62 609.96 104.61 610.2 104.59 610.28 104.59 610.52 104.57 610.6 104.56 610.84 104.54 610.92 104.54 611.16 104.52 611.24 104.51 611.48 104.49 611.56 104.48 611.8 104.46 611.88 104.46 612.12 104.44 612.2 104.43 612.44 104.41 612.52 104.41 612.76 104.39 612.84 104.38 613.08 104.36 613.16 104.35 613.4 104.33 613.48 104.33 613.72 104.31 613.8 104.3 614.04 104.28 614.12 104.28 614.36 104.26 614.44 104.25 614.68 104.23 614.76 104.22 615 104.2 615.08 104.2 615.32 104.18 615.4 104.17 615.64 104.15 615.72 104.15 615.96 104.13 616.04 104.12 616.28 104.1 616.36 104.09 616.6 104.08 616.68 104.07 616.92 104.05 617 104.04 617.24 104.02 617.32 104.02 617.56 104 617.64 103.99 617.88 103.97 617.96 103.96 618.2 103.94 618.28 103.94 618.52 103.92 618.6 103.91 618.84 103.89 618.92 103.89 619.16 103.87 619.24 103.86 619.48 103.84 619.56 103.83 619.8 103.81 619.88 103.81 620.2 103.78 620.19 103.74 619.87 103.77 619.79 103.77"/><polygon class="cls-10" points="619.93 105.59 619.69 105.61 619.61 105.62 619.37 105.64 619.29 105.64 619.05 105.67 618.97 105.67 618.73 105.69 618.65 105.7 618.41 105.72 618.33 105.72 618.09 105.74 618.01 105.75 617.77 105.77 617.69 105.78 617.45 105.8 617.37 105.8 617.13 105.82 617.05 105.83 616.81 105.85 616.73 105.85 616.49 105.87 616.41 105.88 616.17 105.9 616.1 105.91 615.86 105.92 615.77 105.93 615.53 105.95 615.46 105.96 615.22 105.98 615.13 105.98 614.89 106 614.82 106.01 614.58 106.03 614.5 106.03 614.25 106.06 614.17 106.06 613.93 106.08 613.86 106.09 613.62 106.11 613.54 106.11 613.3 106.13 613.22 106.14 612.98 106.16 612.9 106.17 612.66 106.19 612.58 106.19 612.34 106.21 612.26 106.22 612.02 106.24 611.94 106.24 611.7 106.26 611.62 106.27 611.38 106.29 611.3 106.3 611.06 106.31 610.98 106.32 610.74 106.34 610.66 106.35 610.42 106.37 610.34 106.37 610.1 106.39 610.02 106.4 609.78 106.42 609.7 106.42 609.46 106.44 609.38 106.45 609.14 106.47 609.06 106.48 608.82 106.5 608.74 106.5 608.5 106.52 608.42 106.53 608.18 106.55 608.1 106.56 607.86 106.58 607.78 106.58 607.54 106.6 607.46 106.61 607.22 106.63 607.14 106.63 606.9 106.65 606.82 106.66 606.58 106.68 606.5 106.69 606.26 106.7 606.18 106.71 605.94 106.73 605.86 106.74 605.62 106.76 605.54 106.76 605.3 106.78 605.22 106.79 604.98 106.81 604.9 106.81 604.66 106.83 604.58 106.84 604.34 106.86 604.26 106.87 604.02 106.89 603.94 106.89 603.7 106.91 603.62 106.92 603.38 106.94 603.3 106.94 603.06 106.96 602.98 106.97 602.74 106.99 602.66 107 602.42 107.02 602.34 107.02 602.1 107.04 602.02 107.05 601.78 107.07 601.7 107.08 601.46 107.09 601.38 107.1 601.14 107.12 601.06 107.13 600.82 107.15 600.74 107.15 600.5 107.17 600.42 107.18 600.18 107.2 600.1 107.2 599.86 107.22 599.78 107.23 599.54 107.25 599.46 107.26 599.22 107.28 599.14 107.28 598.9 107.3 598.82 107.31 598.58 107.33 598.5 107.33 598.26 107.35 598.18 107.36 597.94 107.38 597.86 107.39 597.62 107.41 597.54 107.41 597.3 107.43 597.22 107.44 596.9 107.47 596.91 107.51 597.23 107.48 597.31 107.47 597.55 107.45 597.63 107.45 597.87 107.43 597.95 107.42 598.18 107.4 598.26 107.4 598.5 107.38 598.59 107.37 598.83 107.35 598.9 107.34 599.14 107.32 599.23 107.32 599.47 107.3 599.54 107.29 599.78 107.27 599.87 107.27 600.11 107.25 600.18 107.24 600.42 107.22 600.5 107.21 600.74 107.19 600.82 107.19 601.06 107.17 601.14 107.16 601.38 107.14 601.46 107.14 601.7 107.12 601.78 107.11 602.02 107.09 602.1 107.08 602.34 107.06 602.42 107.06 602.66 107.04 602.74 107.03 602.98 107.01 603.06 107.01 603.3 106.99 603.38 106.98 603.62 106.96 603.7 106.95 603.94 106.93 604.02 106.93 604.26 106.91 604.34 106.9 604.58 106.88 604.66 106.88 604.9 106.86 604.98 106.85 605.22 106.83 605.3 106.82 605.54 106.8 605.62 106.8 605.86 106.78 605.94 106.77 606.18 106.75 606.26 106.75 606.5 106.73 606.58 106.72 606.82 106.7 606.9 106.69 607.14 106.67 607.22 106.67 607.46 106.65 607.54 106.64 607.78 106.62 607.86 106.62 608.1 106.6 608.18 106.59 608.42 106.57 608.5 106.56 608.74 106.54 608.82 106.54 609.06 106.52 609.14 106.51 609.38 106.49 609.46 106.49 609.7 106.47 609.78 106.46 610.02 106.44 610.1 106.43 610.34 106.41 610.42 106.41 610.66 106.39 610.74 106.38 610.98 106.36 611.06 106.36 611.3 106.34 611.38 106.33 611.62 106.31 611.7 106.3 611.94 106.28 612.02 106.28 612.26 106.26 612.34 106.25 612.58 106.23 612.66 106.23 612.9 106.21 612.98 106.2 613.22 106.18 613.3 106.17 613.54 106.16 613.62 106.15 613.86 106.13 613.94 106.12 614.18 106.1 614.26 106.1 614.5 106.08 614.58 106.07 614.82 106.05 614.9 106.04 615.14 106.03 615.22 106.02 615.46 106 615.54 105.99 615.78 105.97 615.86 105.97 616.1 105.95 616.18 105.94 616.42 105.92 616.5 105.91 616.74 105.89 616.82 105.89 617.06 105.87 617.14 105.86 617.38 105.84 617.46 105.84 617.7 105.82 617.78 105.81 618.02 105.79 618.1 105.78 618.34 105.77 618.42 105.76 618.66 105.74 618.74 105.73 618.98 105.71 619.06 105.71 619.3 105.69 619.38 105.68 619.62 105.66 619.7 105.65 619.94 105.64 620.02 105.63 620.34 105.6 620.33 105.56 620.01 105.59 619.93 105.59"/><polygon class="cls-10" points="620.07 107.41 619.83 107.43 619.75 107.44 619.51 107.46 619.43 107.47 619.19 107.48 619.11 107.49 618.87 107.51 618.79 107.52 618.55 107.54 618.47 107.54 618.23 107.56 618.15 107.57 617.91 107.59 617.83 107.59 617.59 107.61 617.51 107.62 617.27 107.64 617.19 107.65 616.95 107.67 616.87 107.67 616.63 107.69 616.55 107.7 616.31 107.72 616.23 107.72 615.99 107.75 615.91 107.75 615.67 107.77 615.59 107.78 615.35 107.8 615.27 107.8 615.03 107.82 614.95 107.83 614.71 107.85 614.63 107.86 614.39 107.88 614.31 107.88 614.07 107.9 613.99 107.91 613.75 107.93 613.67 107.93 613.43 107.95 613.35 107.96 613.11 107.98 613.03 107.98 612.79 108 612.71 108.01 612.47 108.03 612.39 108.04 612.15 108.06 612.08 108.06 611.84 108.08 611.75 108.09 611.51 108.11 611.43 108.11 611.2 108.14 611.12 108.14 610.88 108.16 610.79 108.17 610.55 108.19 610.48 108.19 610.24 108.21 610.16 108.22 609.91 108.24 609.84 108.25 609.6 108.27 609.52 108.27 609.28 108.29 609.2 108.3 608.96 108.32 608.88 108.32 608.64 108.34 608.56 108.35 608.32 108.37 608.24 108.38 608 108.39 607.92 108.4 607.68 108.42 607.6 108.43 607.36 108.45 607.28 108.45 607.04 108.47 606.96 108.48 606.72 108.5 606.64 108.5 606.4 108.53 606.32 108.53 606.08 108.55 606 108.56 605.76 108.58 605.68 108.58 605.44 108.6 605.36 108.61 605.12 108.63 605.04 108.64 604.8 108.66 604.72 108.66 604.48 108.68 604.4 108.69 604.16 108.71 604.08 108.71 603.84 108.73 603.76 108.74 603.52 108.76 603.44 108.77 603.2 108.78 603.12 108.79 602.88 108.81 602.8 108.82 602.56 108.84 602.48 108.84 602.24 108.86 602.16 108.87 601.92 108.89 601.84 108.89 601.6 108.91 601.52 108.92 601.28 108.94 601.2 108.95 600.96 108.97 600.88 108.97 600.64 108.99 600.56 109 600.32 109.02 600.24 109.03 600 109.04 599.92 109.05 599.68 109.07 599.6 109.08 599.36 109.1 599.28 109.1 599.04 109.12 598.96 109.13 598.72 109.15 598.64 109.16 598.4 109.17 598.32 109.18 598.08 109.2 598 109.21 597.76 109.23 597.68 109.23 597.44 109.25 597.36 109.26 597.04 109.28 597.04 109.33 597.36 109.3 597.44 109.29 597.68 109.27 597.76 109.27 598 109.25 598.08 109.24 598.32 109.22 598.4 109.22 598.64 109.2 598.72 109.19 598.96 109.17 599.04 109.16 599.28 109.14 599.36 109.14 599.6 109.12 599.68 109.11 599.92 109.09 600 109.09 600.24 109.07 600.32 109.06 600.56 109.04 600.64 109.03 600.88 109.01 600.96 109.01 601.2 108.99 601.28 108.98 601.52 108.96 601.6 108.96 601.84 108.94 601.92 108.93 602.16 108.91 602.24 108.9 602.48 108.88 602.56 108.88 602.8 108.86 602.88 108.85 603.12 108.83 603.2 108.83 603.44 108.81 603.52 108.8 603.76 108.78 603.84 108.77 604.08 108.75 604.16 108.75 604.4 108.73 604.48 108.72 604.72 108.7 604.8 108.7 605.04 108.68 605.12 108.67 605.36 108.65 605.44 108.64 605.68 108.62 605.76 108.62 606 108.6 606.08 108.59 606.32 108.57 606.4 108.57 606.64 108.55 606.72 108.54 606.96 108.52 607.04 108.51 607.28 108.49 607.36 108.49 607.6 108.47 607.68 108.46 607.92 108.44 608 108.44 608.24 108.42 608.32 108.41 608.56 108.39 608.64 108.38 608.88 108.36 608.96 108.36 609.2 108.34 609.28 108.33 609.52 108.31 609.6 108.31 609.84 108.29 609.92 108.28 610.16 108.26 610.24 108.25 610.48 108.23 610.56 108.23 610.8 108.21 610.88 108.2 611.12 108.18 611.2 108.18 611.44 108.16 611.52 108.15 611.76 108.13 611.84 108.12 612.08 108.1 612.16 108.1 612.4 108.08 612.48 108.07 612.72 108.05 612.8 108.05 613.04 108.03 613.12 108.02 613.36 108 613.44 107.99 613.68 107.97 613.76 107.97 614 107.95 614.08 107.94 614.32 107.92 614.4 107.92 614.64 107.9 614.72 107.89 614.96 107.87 615.04 107.86 615.28 107.84 615.36 107.84 615.6 107.82 615.68 107.81 615.92 107.79 616 107.79 616.24 107.77 616.32 107.76 616.56 107.74 616.64 107.73 616.88 107.72 616.96 107.71 617.2 107.69 617.28 107.68 617.51 107.66 617.6 107.66 617.84 107.64 617.91 107.63 618.15 107.61 618.24 107.6 618.48 107.58 618.55 107.58 618.79 107.56 618.88 107.55 619.12 107.53 619.2 107.53 619.43 107.51 619.51 107.5 619.75 107.48 619.83 107.47 620.07 107.45 620.15 107.45 620.47 107.42 620.47 107.38 620.15 107.41 620.07 107.41"/><polygon class="cls-10" points="620.21 109.23 619.97 109.25 619.89 109.26 619.65 109.28 619.57 109.29 619.33 109.31 619.25 109.31 619.01 109.33 618.93 109.34 618.69 109.36 618.61 109.36 618.37 109.38 618.29 109.39 618.05 109.41 617.97 109.42 617.73 109.44 617.65 109.44 617.41 109.46 617.33 109.47 617.09 109.49 617.01 109.49 616.77 109.51 616.69 109.52 616.45 109.54 616.37 109.55 616.13 109.56 616.05 109.57 615.81 109.59 615.73 109.6 615.49 109.62 615.41 109.62 615.17 109.64 615.09 109.65 614.85 109.67 614.77 109.67 614.53 109.69 614.45 109.7 614.21 109.72 614.13 109.73 613.89 109.75 613.81 109.75 613.57 109.77 613.49 109.78 613.25 109.8 613.17 109.81 612.93 109.83 612.85 109.83 612.61 109.85 612.53 109.86 612.29 109.88 612.21 109.88 611.97 109.9 611.89 109.91 611.65 109.93 611.57 109.94 611.33 109.95 611.25 109.96 611.01 109.98 610.93 109.99 610.69 110.01 610.61 110.01 610.37 110.03 610.29 110.04 610.05 110.06 609.97 110.06 609.73 110.08 609.65 110.09 609.41 110.11 609.33 110.12 609.09 110.14 609.01 110.14 608.77 110.16 608.7 110.17 608.46 110.19 608.38 110.19 608.13 110.22 608.05 110.22 607.82 110.24 607.74 110.25 607.5 110.27 607.41 110.27 607.17 110.29 607.1 110.3 606.86 110.32 606.77 110.33 606.53 110.34 606.46 110.35 606.22 110.37 606.14 110.38 605.9 110.4 605.82 110.4 605.58 110.42 605.5 110.43 605.26 110.45 605.18 110.45 604.94 110.47 604.86 110.48 604.62 110.5 604.54 110.51 604.3 110.53 604.22 110.53 603.98 110.55 603.9 110.56 603.66 110.58 603.58 110.58 603.34 110.61 603.26 110.61 603.02 110.63 602.94 110.64 602.7 110.66 602.62 110.66 602.38 110.68 602.3 110.69 602.06 110.71 601.98 110.72 601.74 110.73 601.66 110.74 601.42 110.76 601.34 110.77 601.1 110.79 601.02 110.79 600.78 110.81 600.7 110.82 600.46 110.84 600.38 110.84 600.14 110.86 600.06 110.87 599.82 110.89 599.74 110.9 599.5 110.92 599.42 110.92 599.18 110.94 599.1 110.95 598.86 110.97 598.78 110.97 598.54 110.99 598.46 111 598.22 111.02 598.14 111.03 597.9 111.05 597.82 111.05 597.58 111.07 597.5 111.08 597.18 111.11 597.18 111.15 597.5 111.12 597.58 111.11 597.82 111.09 597.9 111.09 598.14 111.07 598.22 111.06 598.46 111.04 598.54 111.04 598.78 111.02 598.86 111.01 599.1 110.99 599.18 110.98 599.42 110.96 599.5 110.96 599.74 110.94 599.82 110.93 600.06 110.91 600.14 110.91 600.38 110.89 600.46 110.88 600.7 110.86 600.78 110.85 601.02 110.83 601.1 110.83 601.34 110.81 601.42 110.8 601.66 110.78 601.74 110.78 601.98 110.76 602.06 110.75 602.3 110.73 602.38 110.72 602.62 110.7 602.7 110.7 602.94 110.68 603.02 110.67 603.26 110.65 603.34 110.65 603.58 110.63 603.66 110.62 603.9 110.6 603.98 110.59 604.22 110.57 604.3 110.57 604.54 110.55 604.62 110.54 604.86 110.52 604.94 110.52 605.18 110.5 605.26 110.49 605.5 110.47 605.58 110.46 605.82 110.44 605.9 110.44 606.14 110.42 606.22 110.41 606.46 110.39 606.54 110.39 606.78 110.37 606.86 110.36 607.1 110.34 607.18 110.33 607.42 110.31 607.5 110.31 607.74 110.29 607.82 110.28 608.06 110.26 608.14 110.26 608.38 110.24 608.46 110.23 608.7 110.21 608.78 110.2 609.02 110.19 609.1 110.18 609.34 110.16 609.42 110.15 609.66 110.13 609.74 110.13 609.98 110.11 610.06 110.1 610.3 110.08 610.38 110.07 610.62 110.06 610.7 110.05 610.94 110.03 611.02 110.02 611.26 110 611.34 110 611.58 109.98 611.66 109.97 611.9 109.95 611.98 109.94 612.22 109.92 612.3 109.92 612.54 109.9 612.62 109.89 612.86 109.87 612.94 109.87 613.18 109.85 613.26 109.84 613.5 109.82 613.58 109.81 613.82 109.8 613.89 109.79 614.13 109.77 614.22 109.76 614.46 109.74 614.53 109.74 614.77 109.72 614.86 109.71 615.1 109.69 615.17 109.68 615.41 109.67 615.5 109.66 615.74 109.64 615.82 109.63 616.05 109.61 616.13 109.61 616.37 109.59 616.45 109.58 616.69 109.56 616.77 109.55 617.01 109.53 617.09 109.53 617.33 109.51 617.41 109.5 617.65 109.48 617.73 109.48 617.97 109.46 618.05 109.45 618.29 109.43 618.37 109.42 618.61 109.41 618.69 109.4 618.93 109.38 619.01 109.37 619.25 109.35 619.33 109.35 619.57 109.33 619.65 109.32 619.89 109.3 619.97 109.29 620.21 109.28 620.29 109.27 620.61 109.24 620.61 109.2 620.29 109.23 620.21 109.23"/><polygon class="cls-10" points="620.35 111.05 620.11 111.07 620.03 111.08 619.79 111.1 619.71 111.11 619.47 111.13 619.39 111.13 619.15 111.15 619.07 111.16 618.83 111.18 618.75 111.18 618.51 111.2 618.43 111.21 618.19 111.23 618.11 111.24 617.87 111.25 617.79 111.26 617.55 111.28 617.47 111.29 617.23 111.31 617.15 111.31 616.91 111.33 616.83 111.34 616.59 111.36 616.51 111.36 616.27 111.39 616.19 111.39 615.95 111.41 615.87 111.42 615.63 111.44 615.55 111.44 615.31 111.46 615.23 111.47 614.99 111.49 614.91 111.5 614.67 111.52 614.59 111.52 614.35 111.54 614.27 111.55 614.03 111.57 613.95 111.57 613.71 111.59 613.63 111.6 613.39 111.62 613.31 111.63 613.07 111.64 612.99 111.65 612.75 111.67 612.67 111.68 612.43 111.7 612.35 111.7 612.11 111.72 612.03 111.73 611.79 111.75 611.71 111.75 611.47 111.78 611.39 111.78 611.15 111.8 611.07 111.81 610.83 111.83 610.75 111.83 610.51 111.85 610.43 111.86 610.19 111.88 610.11 111.89 609.87 111.91 609.79 111.91 609.55 111.93 609.47 111.94 609.23 111.96 609.15 111.96 608.91 111.98 608.83 111.99 608.59 112.01 608.51 112.02 608.27 112.03 608.19 112.04 607.95 112.06 607.87 112.07 607.63 112.09 607.55 112.09 607.31 112.11 607.23 112.12 606.99 112.14 606.91 112.14 606.67 112.17 606.59 112.17 606.35 112.19 606.27 112.2 606.03 112.22 605.95 112.22 605.71 112.24 605.63 112.25 605.39 112.27 605.31 112.28 605.07 112.3 605 112.3 604.75 112.32 604.67 112.33 604.43 112.35 604.36 112.35 604.12 112.37 604.03 112.38 603.79 112.4 603.72 112.41 603.48 112.42 603.39 112.43 603.15 112.45 603.08 112.46 602.84 112.48 602.75 112.48 602.51 112.5 602.44 112.51 602.2 112.53 602.12 112.53 601.88 112.56 601.8 112.56 601.56 112.58 601.48 112.59 601.24 112.61 601.16 112.61 600.92 112.63 600.84 112.64 600.6 112.66 600.52 112.67 600.28 112.69 600.2 112.69 599.96 112.71 599.88 112.72 599.64 112.74 599.56 112.74 599.32 112.76 599.24 112.77 599 112.79 598.92 112.8 598.68 112.81 598.6 112.82 598.36 112.84 598.28 112.85 598.04 112.87 597.96 112.87 597.72 112.89 597.64 112.9 597.32 112.92 597.32 112.97 597.64 112.94 597.72 112.93 597.96 112.91 598.04 112.91 598.28 112.89 598.36 112.88 598.6 112.86 598.68 112.86 598.92 112.84 599 112.83 599.24 112.81 599.32 112.8 599.56 112.78 599.64 112.78 599.88 112.76 599.96 112.75 600.2 112.73 600.28 112.73 600.52 112.71 600.6 112.7 600.84 112.68 600.92 112.67 601.16 112.65 601.24 112.65 601.48 112.63 601.56 112.62 601.8 112.6 601.88 112.6 602.12 112.58 602.2 112.57 602.44 112.55 602.52 112.54 602.76 112.52 602.84 112.52 603.08 112.5 603.16 112.49 603.4 112.47 603.48 112.47 603.72 112.45 603.8 112.44 604.04 112.42 604.12 112.41 604.36 112.39 604.44 112.39 604.68 112.37 604.76 112.36 605 112.34 605.08 112.34 605.32 112.32 605.4 112.31 605.64 112.29 605.72 112.28 605.96 112.26 606.04 112.26 606.28 112.24 606.36 112.23 606.6 112.21 606.68 112.21 606.92 112.19 607 112.18 607.24 112.16 607.32 112.15 607.56 112.13 607.64 112.13 607.88 112.11 607.96 112.1 608.2 112.08 608.28 112.08 608.52 112.06 608.6 112.05 608.84 112.03 608.92 112.02 609.16 112 609.24 112 609.48 111.98 609.56 111.97 609.8 111.95 609.88 111.95 610.12 111.93 610.2 111.92 610.43 111.9 610.51 111.89 610.75 111.88 610.84 111.87 611.08 111.85 611.15 111.84 611.39 111.82 611.48 111.82 611.72 111.8 611.79 111.79 612.03 111.77 612.11 111.76 612.35 111.75 612.43 111.74 612.67 111.72 612.75 111.71 612.99 111.69 613.07 111.69 613.31 111.67 613.39 111.66 613.63 111.64 613.71 111.63 613.95 111.61 614.03 111.61 614.27 111.59 614.35 111.58 614.59 111.56 614.67 111.56 614.91 111.54 614.99 111.53 615.23 111.51 615.31 111.5 615.55 111.48 615.63 111.48 615.87 111.46 615.95 111.45 616.19 111.43 616.27 111.43 616.51 111.41 616.59 111.4 616.83 111.38 616.91 111.37 617.15 111.36 617.23 111.35 617.47 111.33 617.55 111.32 617.79 111.3 617.87 111.3 618.11 111.28 618.19 111.27 618.43 111.25 618.51 111.24 618.75 111.22 618.83 111.22 619.07 111.2 619.15 111.19 619.39 111.17 619.47 111.17 619.71 111.15 619.79 111.14 620.03 111.12 620.11 111.11 620.35 111.09 620.43 111.09 620.75 111.06 620.75 111.02 620.43 111.05 620.35 111.05"/><polygon class="cls-10" points="620.49 112.87 620.25 112.89 620.17 112.9 619.93 112.92 619.85 112.93 619.61 112.94 619.53 112.95 619.29 112.97 619.21 112.98 618.97 113 618.89 113 618.65 113.02 618.57 113.03 618.33 113.05 618.25 113.06 618.01 113.08 617.93 113.08 617.69 113.1 617.61 113.11 617.37 113.13 617.29 113.13 617.05 113.15 616.97 113.16 616.73 113.18 616.65 113.19 616.41 113.2 616.33 113.21 616.09 113.23 616.01 113.24 615.77 113.26 615.69 113.26 615.45 113.28 615.37 113.29 615.13 113.31 615.05 113.32 614.81 113.33 614.73 113.34 614.49 113.36 614.41 113.37 614.17 113.39 614.09 113.39 613.85 113.41 613.77 113.42 613.53 113.44 613.45 113.44 613.21 113.47 613.13 113.47 612.89 113.49 612.81 113.5 612.57 113.52 612.49 113.52 612.25 113.54 612.17 113.55 611.93 113.57 611.85 113.58 611.61 113.59 611.53 113.6 611.29 113.62 611.21 113.63 610.97 113.65 610.89 113.65 610.65 113.67 610.57 113.68 610.33 113.7 610.25 113.7 610.01 113.72 609.93 113.73 609.69 113.75 609.61 113.76 609.37 113.78 609.29 113.78 609.05 113.8 608.97 113.81 608.73 113.83 608.65 113.83 608.41 113.86 608.33 113.86 608.09 113.88 608.01 113.89 607.77 113.91 607.69 113.91 607.45 113.93 607.37 113.94 607.13 113.96 607.05 113.97 606.81 113.98 606.73 113.99 606.49 114.01 606.41 114.02 606.17 114.04 606.09 114.04 605.85 114.06 605.77 114.07 605.53 114.09 605.45 114.09 605.21 114.11 605.13 114.12 604.89 114.14 604.81 114.15 604.57 114.17 604.49 114.17 604.25 114.19 604.17 114.2 603.93 114.22 603.85 114.22 603.61 114.25 603.53 114.25 603.29 114.27 603.21 114.28 602.97 114.3 602.89 114.3 602.65 114.32 602.57 114.33 602.33 114.35 602.25 114.36 602.01 114.38 601.93 114.38 601.69 114.4 601.61 114.41 601.37 114.43 601.29 114.43 601.05 114.45 600.98 114.46 600.74 114.48 600.65 114.48 600.41 114.5 600.34 114.51 600.1 114.53 600.01 114.54 599.77 114.56 599.7 114.56 599.46 114.58 599.38 114.59 599.13 114.61 599.05 114.61 598.82 114.64 598.74 114.64 598.5 114.66 598.42 114.67 598.18 114.69 598.1 114.69 597.86 114.71 597.78 114.72 597.46 114.75 597.46 114.79 597.78 114.76 597.86 114.75 598.1 114.73 598.18 114.73 598.42 114.71 598.5 114.7 598.74 114.68 598.82 114.68 599.06 114.66 599.14 114.65 599.38 114.63 599.46 114.62 599.7 114.6 599.78 114.6 600.02 114.58 600.1 114.57 600.34 114.55 600.42 114.55 600.66 114.53 600.74 114.52 600.98 114.5 601.06 114.49 601.3 114.47 601.38 114.47 601.62 114.45 601.7 114.44 601.94 114.42 602.02 114.42 602.26 114.4 602.34 114.39 602.58 114.37 602.66 114.36 602.9 114.34 602.98 114.34 603.22 114.32 603.3 114.31 603.54 114.29 603.62 114.29 603.86 114.27 603.94 114.26 604.18 114.24 604.26 114.23 604.5 114.21 604.58 114.21 604.82 114.19 604.9 114.18 605.14 114.16 605.22 114.16 605.46 114.14 605.54 114.13 605.78 114.11 605.86 114.1 606.1 114.08 606.17 114.08 606.41 114.06 606.5 114.05 606.74 114.03 606.82 114.03 607.05 114.01 607.13 114 607.38 113.98 607.46 113.97 607.7 113.95 607.77 113.95 608.01 113.93 608.1 113.92 608.34 113.9 608.41 113.9 608.65 113.88 608.73 113.87 608.97 113.85 609.05 113.84 609.29 113.83 609.37 113.82 609.61 113.8 609.69 113.79 609.93 113.77 610.01 113.77 610.25 113.75 610.33 113.74 610.57 113.72 610.65 113.71 610.89 113.69 610.97 113.69 611.21 113.67 611.29 113.66 611.53 113.64 611.61 113.64 611.85 113.62 611.93 113.61 612.17 113.59 612.25 113.58 612.49 113.56 612.57 113.56 612.81 113.54 612.89 113.53 613.13 113.51 613.21 113.51 613.45 113.49 613.53 113.48 613.77 113.46 613.85 113.45 614.09 113.44 614.17 113.43 614.41 113.41 614.49 113.4 614.73 113.38 614.81 113.38 615.05 113.36 615.13 113.35 615.37 113.33 615.45 113.32 615.69 113.31 615.77 113.3 616.01 113.28 616.09 113.27 616.33 113.25 616.41 113.25 616.65 113.23 616.73 113.22 616.97 113.2 617.05 113.19 617.29 113.17 617.37 113.17 617.61 113.15 617.69 113.14 617.93 113.12 618.01 113.12 618.25 113.1 618.33 113.09 618.57 113.07 618.65 113.06 618.89 113.05 618.97 113.04 619.21 113.02 619.29 113.01 619.53 112.99 619.61 112.99 619.85 112.97 619.93 112.96 620.17 112.94 620.25 112.93 620.49 112.92 620.57 112.91 620.89 112.88 620.89 112.84 620.57 112.87 620.49 112.87"/><polygon class="cls-10" points="620.62 114.69 620.38 114.71 620.3 114.72 620.07 114.74 619.99 114.75 619.75 114.77 619.66 114.77 619.42 114.79 619.35 114.8 619.11 114.82 619.02 114.82 618.78 114.84 618.71 114.85 618.47 114.87 618.38 114.88 618.14 114.89 618.07 114.9 617.83 114.92 617.75 114.93 617.51 114.95 617.43 114.95 617.19 114.97 617.11 114.98 616.87 115 616.79 115.01 616.55 115.03 616.47 115.03 616.23 115.05 616.15 115.06 615.91 115.08 615.83 115.08 615.59 115.1 615.51 115.11 615.27 115.13 615.19 115.14 614.95 115.16 614.87 115.16 614.63 115.18 614.55 115.19 614.31 115.21 614.23 115.21 613.99 115.23 613.91 115.24 613.67 115.26 613.59 115.27 613.35 115.28 613.27 115.29 613.03 115.31 612.95 115.32 612.71 115.34 612.63 115.34 612.39 115.36 612.31 115.37 612.07 115.39 611.99 115.39 611.75 115.42 611.67 115.42 611.43 115.44 611.35 115.45 611.11 115.47 611.03 115.47 610.79 115.49 610.71 115.5 610.47 115.52 610.39 115.53 610.15 115.55 610.07 115.55 609.83 115.57 609.75 115.58 609.51 115.6 609.43 115.6 609.19 115.62 609.11 115.63 608.87 115.65 608.79 115.66 608.55 115.67 608.47 115.68 608.23 115.7 608.15 115.71 607.91 115.73 607.83 115.73 607.59 115.75 607.51 115.76 607.27 115.78 607.19 115.78 606.95 115.81 606.87 115.81 606.63 115.83 606.55 115.84 606.31 115.86 606.23 115.86 605.99 115.88 605.91 115.89 605.67 115.91 605.59 115.92 605.35 115.94 605.27 115.94 605.03 115.96 604.95 115.97 604.71 115.99 604.63 115.99 604.39 116.01 604.31 116.02 604.07 116.04 603.99 116.05 603.75 116.06 603.67 116.07 603.43 116.09 603.35 116.1 603.11 116.12 603.03 116.12 602.79 116.14 602.71 116.15 602.47 116.17 602.39 116.17 602.15 116.19 602.07 116.2 601.83 116.22 601.75 116.23 601.51 116.25 601.43 116.25 601.19 116.27 601.11 116.28 600.87 116.3 600.79 116.31 600.55 116.33 600.47 116.33 600.23 116.35 600.15 116.36 599.91 116.38 599.83 116.38 599.59 116.4 599.51 116.41 599.27 116.43 599.19 116.44 598.95 116.45 598.87 116.46 598.63 116.48 598.55 116.49 598.31 116.51 598.23 116.51 597.99 116.53 597.91 116.54 597.59 116.56 597.6 116.61 597.92 116.58 598 116.57 598.24 116.55 598.32 116.55 598.56 116.53 598.64 116.52 598.88 116.5 598.96 116.5 599.2 116.48 599.28 116.47 599.52 116.45 599.6 116.44 599.84 116.42 599.92 116.42 600.16 116.4 600.24 116.39 600.48 116.37 600.56 116.37 600.8 116.35 600.88 116.34 601.12 116.32 601.2 116.31 601.44 116.29 601.52 116.29 601.76 116.27 601.84 116.26 602.08 116.24 602.15 116.24 602.4 116.22 602.48 116.21 602.72 116.19 602.79 116.18 603.03 116.16 603.12 116.16 603.36 116.14 603.43 116.13 603.67 116.11 603.75 116.11 604 116.09 604.08 116.08 604.32 116.06 604.39 116.05 604.63 116.03 604.71 116.03 604.95 116.01 605.03 116 605.27 115.98 605.35 115.98 605.59 115.96 605.67 115.95 605.91 115.93 605.99 115.92 606.23 115.91 606.31 115.9 606.55 115.88 606.63 115.87 606.87 115.85 606.95 115.85 607.19 115.83 607.27 115.82 607.51 115.8 607.59 115.79 607.83 115.78 607.91 115.77 608.15 115.75 608.23 115.74 608.47 115.72 608.55 115.72 608.79 115.7 608.87 115.69 609.11 115.67 609.19 115.66 609.43 115.64 609.51 115.64 609.75 115.62 609.83 115.61 610.07 115.59 610.15 115.59 610.39 115.57 610.47 115.56 610.71 115.54 610.79 115.53 611.03 115.52 611.11 115.51 611.35 115.49 611.43 115.48 611.67 115.46 611.75 115.46 611.99 115.44 612.07 115.43 612.31 115.41 612.39 115.4 612.63 115.39 612.71 115.38 612.95 115.36 613.03 115.35 613.27 115.33 613.35 115.33 613.59 115.31 613.67 115.3 613.91 115.28 613.99 115.27 614.23 115.25 614.31 115.25 614.55 115.23 614.63 115.22 614.87 115.2 614.95 115.2 615.19 115.18 615.27 115.17 615.51 115.15 615.59 115.14 615.83 115.13 615.91 115.12 616.15 115.1 616.23 115.09 616.47 115.07 616.55 115.07 616.79 115.05 616.87 115.04 617.11 115.02 617.19 115.01 617.43 115 617.51 114.99 617.75 114.97 617.83 114.96 618.07 114.94 618.15 114.94 618.39 114.92 618.47 114.91 618.71 114.89 618.79 114.88 619.03 114.86 619.11 114.86 619.35 114.84 619.43 114.83 619.67 114.81 619.75 114.81 619.99 114.79 620.07 114.78 620.31 114.76 620.39 114.75 620.63 114.73 620.71 114.73 621.03 114.7 621.02 114.66 620.7 114.69 620.62 114.69"/><polygon class="cls-10" points="620.76 116.51 620.52 116.53 620.44 116.54 620.2 116.56 620.12 116.57 619.88 116.58 619.8 116.59 619.56 116.61 619.48 116.62 619.24 116.64 619.16 116.64 618.92 116.66 618.84 116.67 618.6 116.69 618.52 116.7 618.28 116.72 618.2 116.72 617.96 116.74 617.88 116.75 617.64 116.77 617.56 116.77 617.32 116.79 617.24 116.8 617 116.82 616.92 116.83 616.68 116.84 616.61 116.85 616.37 116.87 616.28 116.88 616.04 116.9 615.97 116.9 615.73 116.92 615.64 116.93 615.4 116.95 615.33 116.96 615.09 116.97 615 116.98 614.76 117 614.68 117.01 614.45 117.03 614.37 117.03 614.13 117.05 614.05 117.06 613.81 117.08 613.73 117.09 613.49 117.11 613.41 117.11 613.17 117.13 613.09 117.14 612.85 117.16 612.77 117.16 612.53 117.18 612.45 117.19 612.21 117.21 612.13 117.22 611.89 117.23 611.81 117.24 611.57 117.26 611.49 117.27 611.25 117.29 611.17 117.29 610.93 117.31 610.85 117.32 610.61 117.34 610.53 117.34 610.29 117.36 610.21 117.37 609.97 117.39 609.89 117.4 609.65 117.42 609.57 117.42 609.33 117.44 609.25 117.45 609.01 117.47 608.93 117.47 608.69 117.5 608.61 117.5 608.37 117.52 608.29 117.53 608.05 117.55 607.97 117.55 607.73 117.57 607.65 117.58 607.41 117.6 607.33 117.61 607.09 117.63 607.01 117.63 606.77 117.65 606.69 117.66 606.45 117.68 606.37 117.68 606.13 117.7 606.05 117.71 605.81 117.73 605.73 117.73 605.49 117.75 605.41 117.76 605.17 117.78 605.09 117.79 604.85 117.81 604.77 117.81 604.53 117.83 604.45 117.84 604.21 117.86 604.13 117.86 603.89 117.89 603.81 117.89 603.57 117.91 603.49 117.92 603.25 117.94 603.17 117.94 602.93 117.96 602.85 117.97 602.61 117.99 602.53 118 602.29 118.02 602.21 118.02 601.97 118.04 601.89 118.05 601.65 118.07 601.57 118.07 601.33 118.09 601.25 118.1 601.01 118.12 600.93 118.13 600.69 118.14 600.61 118.15 600.37 118.17 600.29 118.18 600.05 118.2 599.97 118.2 599.73 118.22 599.65 118.23 599.41 118.25 599.33 118.25 599.09 118.28 599.01 118.28 598.77 118.3 598.69 118.31 598.45 118.33 598.37 118.33 598.13 118.35 598.05 118.36 597.73 118.39 597.74 118.43 598.06 118.4 598.14 118.39 598.38 118.37 598.46 118.37 598.7 118.35 598.77 118.34 599.01 118.32 599.1 118.32 599.34 118.3 599.41 118.29 599.65 118.27 599.74 118.26 599.98 118.24 600.05 118.24 600.29 118.22 600.38 118.21 600.62 118.19 600.7 118.19 600.93 118.17 601.01 118.16 601.25 118.14 601.33 118.13 601.57 118.11 601.65 118.11 601.89 118.09 601.97 118.08 602.21 118.06 602.29 118.06 602.53 118.04 602.61 118.03 602.85 118.01 602.93 118 603.17 117.98 603.25 117.98 603.49 117.96 603.57 117.95 603.81 117.93 603.89 117.93 604.13 117.91 604.21 117.9 604.45 117.88 604.53 117.87 604.77 117.86 604.85 117.85 605.09 117.83 605.17 117.82 605.41 117.8 605.49 117.8 605.73 117.78 605.81 117.77 606.05 117.75 606.13 117.74 606.37 117.72 606.45 117.72 606.69 117.7 606.77 117.69 607.01 117.67 607.09 117.67 607.33 117.65 607.41 117.64 607.65 117.62 607.73 117.61 607.97 117.59 608.05 117.59 608.29 117.57 608.37 117.56 608.61 117.54 608.69 117.54 608.93 117.52 609.01 117.51 609.25 117.49 609.33 117.48 609.57 117.47 609.65 117.46 609.89 117.44 609.97 117.43 610.21 117.41 610.29 117.41 610.53 117.39 610.61 117.38 610.85 117.36 610.93 117.35 611.17 117.33 611.25 117.33 611.49 117.31 611.57 117.3 611.81 117.28 611.89 117.28 612.13 117.26 612.21 117.25 612.45 117.23 612.53 117.22 612.77 117.2 612.85 117.2 613.09 117.18 613.17 117.17 613.41 117.15 613.49 117.15 613.73 117.13 613.81 117.12 614.05 117.1 614.13 117.09 614.37 117.08 614.45 117.07 614.69 117.05 614.77 117.04 615.01 117.02 615.09 117.02 615.33 117 615.41 116.99 615.65 116.97 615.73 116.96 615.97 116.94 616.05 116.94 616.29 116.92 616.37 116.91 616.61 116.89 616.69 116.89 616.93 116.87 617.01 116.86 617.25 116.84 617.33 116.83 617.57 116.81 617.65 116.81 617.89 116.79 617.97 116.78 618.21 116.76 618.29 116.76 618.53 116.74 618.61 116.73 618.85 116.71 618.93 116.7 619.17 116.69 619.25 116.68 619.49 116.66 619.57 116.65 619.81 116.63 619.89 116.63 620.13 116.61 620.21 116.6 620.45 116.58 620.53 116.58 620.77 116.56 620.85 116.55 621.17 116.52 621.16 116.48 620.84 116.51 620.76 116.51"/><polygon class="cls-10" points="620.9 118.33 620.66 118.35 620.58 118.36 620.34 118.38 620.26 118.39 620.02 118.41 619.94 118.41 619.7 118.43 619.62 118.44 619.38 118.46 619.3 118.46 619.06 118.48 618.98 118.49 618.74 118.51 618.66 118.52 618.42 118.53 618.34 118.54 618.1 118.56 618.02 118.57 617.78 118.59 617.7 118.59 617.46 118.61 617.38 118.62 617.14 118.64 617.06 118.65 616.82 118.67 616.74 118.67 616.5 118.69 616.42 118.7 616.18 118.72 616.1 118.72 615.86 118.74 615.78 118.75 615.54 118.77 615.46 118.78 615.22 118.8 615.14 118.8 614.9 118.82 614.82 118.83 614.58 118.85 614.5 118.85 614.26 118.87 614.18 118.88 613.94 118.9 613.86 118.91 613.62 118.92 613.54 118.93 613.3 118.95 613.22 118.96 612.98 118.98 612.9 118.98 612.66 119 612.59 119.01 612.35 119.03 612.26 119.04 612.02 119.06 611.95 119.06 611.71 119.08 611.63 119.09 611.38 119.11 611.3 119.11 611.07 119.13 610.99 119.14 610.75 119.16 610.67 119.17 610.43 119.19 610.35 119.19 610.11 119.21 610.03 119.22 609.79 119.24 609.71 119.24 609.47 119.26 609.39 119.27 609.15 119.29 609.07 119.3 608.83 119.31 608.75 119.32 608.51 119.34 608.43 119.35 608.19 119.37 608.11 119.37 607.87 119.39 607.79 119.4 607.55 119.42 607.47 119.42 607.23 119.44 607.15 119.45 606.91 119.47 606.83 119.48 606.59 119.5 606.51 119.5 606.27 119.52 606.19 119.53 605.95 119.55 605.87 119.56 605.63 119.58 605.55 119.58 605.31 119.6 605.23 119.61 604.99 119.63 604.91 119.63 604.67 119.65 604.59 119.66 604.35 119.68 604.27 119.69 604.03 119.7 603.95 119.71 603.71 119.73 603.63 119.74 603.39 119.76 603.31 119.76 603.07 119.78 602.99 119.79 602.75 119.81 602.67 119.81 602.43 119.83 602.35 119.84 602.11 119.86 602.03 119.87 601.79 119.89 601.71 119.89 601.47 119.91 601.39 119.92 601.15 119.94 601.07 119.94 600.83 119.97 600.75 119.97 600.51 119.99 600.43 120 600.19 120.02 600.11 120.02 599.87 120.04 599.79 120.05 599.55 120.07 599.47 120.08 599.23 120.09 599.15 120.1 598.91 120.12 598.83 120.13 598.59 120.15 598.51 120.15 598.27 120.17 598.19 120.18 597.87 120.2 597.87 120.25 598.19 120.22 598.27 120.21 598.51 120.19 598.59 120.19 598.83 120.17 598.91 120.16 599.15 120.14 599.23 120.14 599.47 120.12 599.55 120.11 599.79 120.09 599.87 120.08 600.11 120.06 600.19 120.06 600.43 120.04 600.51 120.03 600.75 120.01 600.83 120.01 601.07 119.99 601.15 119.98 601.39 119.96 601.47 119.95 601.71 119.94 601.79 119.93 602.03 119.91 602.11 119.9 602.35 119.88 602.43 119.88 602.67 119.86 602.75 119.85 602.99 119.83 603.07 119.82 603.31 119.81 603.39 119.8 603.63 119.78 603.71 119.77 603.95 119.75 604.03 119.75 604.27 119.73 604.35 119.72 604.59 119.7 604.67 119.69 604.91 119.67 604.99 119.67 605.23 119.65 605.31 119.64 605.55 119.62 605.63 119.62 605.87 119.6 605.95 119.59 606.19 119.57 606.27 119.56 606.51 119.55 606.59 119.54 606.83 119.52 606.91 119.51 607.15 119.49 607.23 119.49 607.47 119.47 607.55 119.46 607.79 119.44 607.87 119.43 608.11 119.42 608.19 119.41 608.43 119.39 608.51 119.38 608.75 119.36 608.83 119.36 609.07 119.34 609.15 119.33 609.39 119.31 609.47 119.3 609.71 119.28 609.79 119.28 610.03 119.26 610.11 119.25 610.35 119.23 610.43 119.23 610.67 119.21 610.75 119.2 610.99 119.18 611.07 119.17 611.31 119.16 611.39 119.15 611.63 119.13 611.71 119.12 611.95 119.1 612.03 119.1 612.27 119.08 612.35 119.07 612.59 119.05 612.67 119.04 612.91 119.03 612.99 119.02 613.23 119 613.31 118.99 613.55 118.97 613.63 118.97 613.87 118.95 613.95 118.94 614.19 118.92 614.27 118.91 614.51 118.89 614.59 118.89 614.83 118.87 614.91 118.86 615.15 118.84 615.23 118.84 615.47 118.82 615.55 118.81 615.79 118.79 615.87 118.78 616.11 118.77 616.19 118.76 616.43 118.74 616.51 118.73 616.75 118.71 616.83 118.71 617.07 118.69 617.15 118.68 617.39 118.66 617.47 118.65 617.71 118.64 617.78 118.63 618.02 118.61 618.11 118.6 618.35 118.58 618.42 118.58 618.66 118.56 618.75 118.55 618.99 118.53 619.07 118.53 619.3 118.5 619.38 118.5 619.63 118.48 619.71 118.47 619.95 118.45 620.02 118.45 620.26 118.43 620.34 118.42 620.58 118.4 620.66 118.39 620.9 118.38 620.98 118.37 621.3 118.34 621.3 118.3 620.98 118.33 620.9 118.33"/><polygon class="cls-10" points="621.04 120.15 620.8 120.17 620.72 120.18 620.48 120.2 620.4 120.21 620.16 120.22 620.08 120.23 619.84 120.25 619.76 120.26 619.52 120.28 619.44 120.28 619.2 120.3 619.12 120.31 618.88 120.33 618.8 120.34 618.56 120.36 618.48 120.36 618.24 120.38 618.16 120.39 617.92 120.41 617.84 120.41 617.6 120.43 617.52 120.44 617.28 120.46 617.2 120.47 616.96 120.48 616.88 120.49 616.64 120.51 616.56 120.52 616.32 120.54 616.24 120.54 616 120.56 615.92 120.57 615.68 120.59 615.6 120.6 615.36 120.61 615.28 120.62 615.04 120.64 614.96 120.65 614.72 120.67 614.64 120.67 614.4 120.69 614.32 120.7 614.08 120.72 614 120.73 613.76 120.75 613.68 120.75 613.44 120.77 613.36 120.78 613.12 120.8 613.04 120.8 612.8 120.82 612.72 120.83 612.48 120.85 612.4 120.86 612.16 120.88 612.08 120.88 611.84 120.9 611.76 120.91 611.52 120.93 611.44 120.93 611.2 120.95 611.12 120.96 610.88 120.98 610.8 120.99 610.56 121 610.48 121.01 610.24 121.03 610.16 121.04 609.92 121.06 609.84 121.06 609.6 121.08 609.52 121.09 609.28 121.11 609.21 121.12 608.97 121.14 608.88 121.14 608.64 121.16 608.57 121.17 608.33 121.19 608.25 121.19 608 121.21 607.92 121.22 607.68 121.24 607.61 121.25 607.37 121.27 607.28 121.27 607.04 121.29 606.97 121.3 606.73 121.32 606.65 121.32 606.41 121.34 606.33 121.35 606.09 121.37 606.01 121.38 605.77 121.39 605.69 121.4 605.45 121.42 605.37 121.43 605.13 121.45 605.05 121.45 604.81 121.47 604.73 121.48 604.49 121.5 604.41 121.5 604.17 121.53 604.09 121.53 603.85 121.55 603.77 121.56 603.53 121.58 603.45 121.58 603.21 121.6 603.13 121.61 602.89 121.63 602.81 121.64 602.57 121.66 602.49 121.66 602.25 121.68 602.17 121.69 601.93 121.71 601.85 121.71 601.61 121.73 601.53 121.74 601.29 121.76 601.21 121.77 600.97 121.78 600.89 121.79 600.65 121.81 600.57 121.82 600.33 121.84 600.25 121.84 600.01 121.86 599.93 121.87 599.69 121.89 599.61 121.89 599.37 121.92 599.29 121.92 599.05 121.94 598.97 121.95 598.73 121.97 598.65 121.97 598.41 121.99 598.33 122 598.01 122.03 598.01 122.07 598.33 122.04 598.41 122.03 598.65 122.02 598.73 122.01 598.97 121.99 599.05 121.98 599.29 121.96 599.37 121.96 599.61 121.94 599.69 121.93 599.93 121.91 600.01 121.9 600.25 121.89 600.33 121.88 600.57 121.86 600.65 121.85 600.89 121.83 600.97 121.83 601.21 121.81 601.29 121.8 601.53 121.78 601.61 121.77 601.85 121.75 601.93 121.75 602.17 121.73 602.25 121.72 602.49 121.7 602.57 121.7 602.81 121.68 602.89 121.67 603.13 121.65 603.21 121.64 603.45 121.63 603.53 121.62 603.77 121.6 603.85 121.59 604.09 121.57 604.17 121.57 604.41 121.55 604.49 121.54 604.73 121.52 604.81 121.51 605.05 121.5 605.13 121.49 605.37 121.47 605.45 121.46 605.69 121.44 605.77 121.44 606.01 121.42 606.09 121.41 606.33 121.39 606.41 121.38 606.65 121.36 606.73 121.36 606.97 121.34 607.05 121.33 607.29 121.31 607.37 121.31 607.61 121.29 607.69 121.28 607.93 121.26 608.01 121.25 608.25 121.23 608.33 121.23 608.57 121.21 608.65 121.2 608.89 121.18 608.97 121.18 609.21 121.16 609.29 121.15 609.53 121.13 609.61 121.12 609.85 121.11 609.93 121.1 610.17 121.08 610.25 121.07 610.49 121.05 610.57 121.05 610.81 121.03 610.89 121.02 611.13 121 611.21 120.99 611.45 120.97 611.53 120.97 611.77 120.95 611.85 120.94 612.09 120.92 612.17 120.92 612.41 120.9 612.49 120.89 612.73 120.87 612.81 120.86 613.05 120.84 613.13 120.84 613.37 120.82 613.45 120.81 613.69 120.79 613.77 120.79 614.01 120.77 614.09 120.76 614.33 120.74 614.4 120.73 614.64 120.72 614.73 120.71 614.97 120.69 615.04 120.68 615.28 120.66 615.37 120.66 615.61 120.64 615.68 120.63 615.92 120.61 616 120.61 616.25 120.58 616.32 120.58 616.56 120.56 616.64 120.55 616.88 120.53 616.96 120.53 617.2 120.51 617.28 120.5 617.52 120.48 617.6 120.47 617.84 120.45 617.92 120.45 618.16 120.43 618.24 120.42 618.48 120.4 618.56 120.4 618.8 120.38 618.88 120.37 619.12 120.35 619.2 120.34 619.44 120.33 619.52 120.32 619.76 120.3 619.84 120.29 620.08 120.27 620.16 120.27 620.4 120.25 620.48 120.24 620.72 120.22 620.8 120.22 621.04 120.19 621.12 120.19 621.44 120.16 621.44 120.12 621.12 120.15 621.04 120.15"/><polygon class="cls-10" points="621.18 121.97 620.94 121.99 620.86 122 620.62 122.02 620.54 122.03 620.3 122.05 620.22 122.05 619.98 122.07 619.9 122.08 619.66 122.1 619.58 122.1 619.34 122.12 619.26 122.13 619.02 122.15 618.94 122.16 618.7 122.17 618.62 122.18 618.38 122.2 618.3 122.21 618.06 122.23 617.98 122.23 617.74 122.25 617.66 122.26 617.42 122.28 617.34 122.29 617.1 122.31 617.02 122.31 616.78 122.33 616.7 122.34 616.46 122.36 616.38 122.36 616.14 122.38 616.06 122.39 615.82 122.41 615.74 122.42 615.5 122.44 615.42 122.44 615.18 122.46 615.1 122.47 614.86 122.49 614.78 122.49 614.54 122.51 614.46 122.52 614.22 122.54 614.14 122.55 613.9 122.56 613.82 122.57 613.58 122.59 613.5 122.6 613.26 122.62 613.18 122.62 612.94 122.64 612.86 122.65 612.62 122.67 612.54 122.68 612.3 122.69 612.22 122.7 611.98 122.72 611.9 122.73 611.66 122.75 611.58 122.75 611.34 122.77 611.26 122.78 611.02 122.8 610.94 122.81 610.7 122.83 610.62 122.83 610.38 122.85 610.3 122.86 610.06 122.88 609.98 122.88 609.74 122.9 609.66 122.91 609.42 122.93 609.34 122.94 609.1 122.95 609.02 122.96 608.78 122.98 608.7 122.99 608.46 123.01 608.38 123.01 608.14 123.03 608.06 123.04 607.82 123.06 607.74 123.07 607.5 123.08 607.42 123.09 607.18 123.11 607.1 123.12 606.86 123.14 606.78 123.14 606.54 123.16 606.46 123.17 606.22 123.19 606.14 123.19 605.9 123.22 605.82 123.22 605.58 123.24 605.5 123.25 605.26 123.27 605.18 123.27 604.95 123.29 604.87 123.3 604.63 123.32 604.54 123.33 604.3 123.34 604.23 123.35 603.99 123.37 603.9 123.38 603.66 123.4 603.59 123.4 603.35 123.42 603.26 123.43 603.02 123.45 602.95 123.45 602.71 123.47 602.63 123.48 602.39 123.5 602.31 123.51 602.07 123.53 601.99 123.53 601.75 123.55 601.67 123.56 601.43 123.58 601.35 123.58 601.11 123.61 601.03 123.61 600.79 123.63 600.71 123.64 600.47 123.66 600.39 123.66 600.15 123.68 600.07 123.69 599.83 123.71 599.75 123.72 599.51 123.73 599.43 123.74 599.19 123.76 599.11 123.77 598.87 123.79 598.79 123.79 598.55 123.81 598.47 123.82 598.15 123.84 598.15 123.89 598.47 123.86 598.55 123.85 598.79 123.83 598.87 123.83 599.11 123.81 599.19 123.8 599.43 123.78 599.51 123.78 599.75 123.76 599.83 123.75 600.07 123.73 600.15 123.72 600.39 123.7 600.47 123.7 600.71 123.68 600.79 123.67 601.03 123.65 601.11 123.65 601.35 123.63 601.43 123.62 601.67 123.6 601.75 123.59 601.99 123.58 602.07 123.57 602.31 123.55 602.39 123.54 602.63 123.52 602.71 123.52 602.95 123.5 603.03 123.49 603.27 123.47 603.35 123.46 603.59 123.44 603.67 123.44 603.91 123.42 603.99 123.41 604.23 123.39 604.31 123.39 604.55 123.37 604.63 123.36 604.87 123.34 604.95 123.33 605.19 123.31 605.27 123.31 605.51 123.29 605.59 123.28 605.83 123.26 605.91 123.26 606.15 123.24 606.23 123.23 606.47 123.21 606.55 123.2 606.79 123.19 606.87 123.18 607.11 123.16 607.19 123.15 607.43 123.13 607.51 123.13 607.75 123.11 607.83 123.1 608.07 123.08 608.15 123.07 608.39 123.06 608.47 123.05 608.71 123.03 608.79 123.02 609.03 123 609.11 123 609.35 122.98 609.43 122.97 609.67 122.95 609.75 122.94 609.99 122.92 610.07 122.92 610.31 122.9 610.38 122.89 610.63 122.87 610.71 122.87 610.95 122.85 611.02 122.84 611.26 122.82 611.35 122.81 611.59 122.8 611.66 122.79 611.9 122.77 611.99 122.76 612.23 122.74 612.3 122.74 612.54 122.72 612.62 122.71 612.86 122.69 612.94 122.68 613.18 122.67 613.26 122.66 613.5 122.64 613.58 122.63 613.82 122.61 613.9 122.61 614.14 122.59 614.22 122.58 614.46 122.56 614.54 122.56 614.78 122.53 614.86 122.53 615.1 122.51 615.18 122.5 615.42 122.48 615.5 122.48 615.74 122.46 615.82 122.45 616.06 122.43 616.14 122.42 616.38 122.41 616.46 122.4 616.7 122.38 616.78 122.37 617.02 122.35 617.1 122.35 617.34 122.33 617.42 122.32 617.66 122.3 617.74 122.3 617.98 122.28 618.06 122.27 618.3 122.25 618.38 122.24 618.62 122.22 618.7 122.22 618.94 122.2 619.02 122.19 619.26 122.17 619.34 122.17 619.58 122.14 619.66 122.14 619.9 122.12 619.98 122.11 620.22 122.09 620.3 122.09 620.54 122.07 620.62 122.06 620.86 122.04 620.94 122.03 621.18 122.02 621.26 122.01 621.58 121.98 621.58 121.94 621.26 121.97 621.18 121.97"/><polygon class="cls-10" points="621.32 123.79 621.08 123.81 621 123.82 620.76 123.84 620.68 123.85 620.44 123.86 620.36 123.87 620.12 123.89 620.04 123.9 619.8 123.92 619.72 123.92 619.48 123.94 619.4 123.95 619.16 123.97 619.08 123.98 618.84 124 618.76 124 618.52 124.02 618.44 124.03 618.2 124.05 618.12 124.05 617.88 124.07 617.8 124.08 617.56 124.1 617.48 124.11 617.24 124.13 617.16 124.13 616.92 124.15 616.84 124.16 616.6 124.18 616.52 124.18 616.28 124.2 616.2 124.21 615.96 124.23 615.88 124.24 615.64 124.25 615.56 124.26 615.32 124.28 615.24 124.29 615 124.31 614.92 124.31 614.68 124.33 614.6 124.34 614.36 124.36 614.28 124.37 614.04 124.39 613.96 124.39 613.72 124.41 613.64 124.42 613.4 124.44 613.32 124.44 613.08 124.46 613 124.47 612.76 124.49 612.68 124.5 612.44 124.52 612.36 124.52 612.12 124.54 612.04 124.55 611.8 124.57 611.72 124.57 611.48 124.59 611.4 124.6 611.16 124.62 611.08 124.63 610.84 124.64 610.76 124.65 610.52 124.67 610.44 124.68 610.2 124.7 610.12 124.7 609.88 124.72 609.8 124.73 609.56 124.75 609.48 124.76 609.24 124.78 609.16 124.78 608.92 124.8 608.84 124.81 608.6 124.83 608.52 124.83 608.28 124.85 608.2 124.86 607.96 124.88 607.88 124.89 607.64 124.91 607.56 124.91 607.32 124.93 607.24 124.94 607 124.96 606.92 124.96 606.68 124.98 606.6 124.99 606.36 125.01 606.28 125.02 606.04 125.03 605.96 125.04 605.72 125.06 605.64 125.07 605.4 125.09 605.32 125.09 605.08 125.11 605 125.12 604.76 125.14 604.68 125.15 604.44 125.17 604.36 125.17 604.12 125.19 604.04 125.2 603.8 125.22 603.72 125.22 603.48 125.24 603.4 125.25 603.16 125.27 603.08 125.28 602.84 125.3 602.76 125.3 602.52 125.32 602.44 125.33 602.2 125.35 602.12 125.35 601.88 125.37 601.8 125.38 601.56 125.4 601.49 125.41 601.25 125.42 601.16 125.43 600.92 125.45 600.85 125.46 600.61 125.48 600.52 125.48 600.28 125.5 600.21 125.51 599.97 125.53 599.88 125.53 599.64 125.56 599.57 125.56 599.33 125.58 599.25 125.59 599.01 125.61 598.93 125.61 598.69 125.63 598.61 125.64 598.29 125.67 598.29 125.71 598.61 125.68 598.69 125.67 598.93 125.66 599.01 125.65 599.25 125.63 599.33 125.62 599.57 125.6 599.65 125.6 599.89 125.58 599.97 125.57 600.21 125.55 600.29 125.54 600.53 125.53 600.61 125.52 600.85 125.5 600.93 125.49 601.17 125.47 601.25 125.47 601.49 125.45 601.57 125.44 601.81 125.42 601.89 125.41 602.13 125.39 602.21 125.39 602.45 125.37 602.53 125.36 602.77 125.34 602.85 125.34 603.09 125.32 603.17 125.31 603.41 125.29 603.49 125.28 603.73 125.27 603.81 125.26 604.05 125.24 604.13 125.23 604.37 125.21 604.45 125.21 604.69 125.19 604.77 125.18 605.01 125.16 605.09 125.15 605.33 125.14 605.41 125.13 605.65 125.11 605.73 125.1 605.97 125.08 606.05 125.08 606.29 125.06 606.37 125.05 606.61 125.03 606.68 125.02 606.92 125 607 125 607.25 124.98 607.33 124.97 607.57 124.95 607.64 124.95 607.88 124.93 607.97 124.92 608.21 124.9 608.28 124.89 608.52 124.88 608.61 124.87 608.85 124.85 608.92 124.84 609.16 124.82 609.24 124.82 609.48 124.8 609.56 124.79 609.8 124.77 609.88 124.76 610.12 124.75 610.2 124.74 610.44 124.72 610.52 124.71 610.76 124.69 610.84 124.69 611.08 124.67 611.16 124.66 611.4 124.64 611.48 124.64 611.72 124.61 611.8 124.61 612.04 124.59 612.12 124.58 612.36 124.56 612.44 124.56 612.68 124.54 612.76 124.53 613 124.51 613.08 124.5 613.32 124.48 613.4 124.48 613.64 124.46 613.72 124.45 613.96 124.43 614.04 124.43 614.28 124.41 614.36 124.4 614.6 124.38 614.68 124.38 614.92 124.36 615 124.35 615.24 124.33 615.32 124.32 615.56 124.3 615.64 124.3 615.88 124.28 615.96 124.27 616.2 124.25 616.28 124.25 616.52 124.22 616.6 124.22 616.84 124.2 616.92 124.19 617.16 124.17 617.24 124.17 617.48 124.15 617.56 124.14 617.8 124.12 617.88 124.11 618.12 124.09 618.2 124.09 618.44 124.07 618.52 124.06 618.76 124.04 618.84 124.04 619.08 124.02 619.16 124.01 619.4 123.99 619.48 123.98 619.72 123.97 619.8 123.96 620.04 123.94 620.12 123.93 620.36 123.91 620.44 123.91 620.68 123.89 620.76 123.88 621 123.86 621.08 123.86 621.32 123.83 621.4 123.83 621.72 123.8 621.72 123.76 621.4 123.79 621.32 123.79"/><polygon class="cls-11" points="602.46 125.88 602.51 125.88 600.67 101.65 600.62 101.65 602.46 125.88"/><path class="cls-12" d="M598.81,104.41a2.7,2.7,0,0,0,.72-.26,3.44,3.44,0,0,1,.87-.4l-1.28-4.44a3.3,3.3,0,0,1-.38.12l-.92.31-1,.31,1.32,4.6c.1,0,.2-.11.3-.15A2.34,2.34,0,0,1,598.81,104.41Z"/><path class="cls-12" d="M616.57,97.94l-.46,4.78a6.77,6.77,0,0,1,1,.08,1.56,1.56,0,0,0,.43,0,.41.41,0,0,1,.16,0l.12,0a.55.55,0,0,0,.18,0c.15,0,.37,0,.51,0L619,98a11.06,11.06,0,0,0-1.41,0A3.86,3.86,0,0,1,616.57,97.94Z"/><polygon class="cls-2" points="329.15 62.57 306.31 60.88 307.83 35.55 330.67 37.23 329.15 62.57"/><polygon class="cls-3" points="328.84 62.13 305.99 60.44 307.52 35.11 330.36 36.8 328.84 62.13"/><polygon class="cls-13" points="328.85 62.13 328.83 62.13 330.35 36.8 330.37 36.8 328.85 62.13"/><path class="cls-13" d="M328.86,62.15h0l1.52-25.35h0Zm0,0,.41-6.92Z"/><polygon class="cls-13" points="327.85 62.06 327.83 62.06 329.36 36.73 329.38 36.73 327.85 62.06"/><path class="cls-13" d="M327.86,62.07h0l1.53-25.35h0Zm0,0,1.53-25.31Z"/><polygon class="cls-13" points="326.86 61.99 326.84 61.99 328.36 36.65 328.38 36.66 326.86 61.99"/><path class="cls-13" d="M326.87,62h0l1.53-25.36h0Zm0,0,1.52-25.31Z"/><polygon class="cls-13" points="325.87 61.91 325.85 61.91 327.37 36.58 327.39 36.58 325.87 61.91"/><path class="cls-13" d="M325.88,61.93h0l1.52-25.35h0Zm0,0,.61-10.12Z"/><polygon class="cls-13" points="324.87 61.84 324.85 61.84 326.38 36.51 326.4 36.51 324.87 61.84"/><path class="cls-13" d="M324.88,61.85h0l1.53-25.35h0Zm1.51-25.33L326,43.44Z"/><polygon class="cls-13" points="323.88 61.77 323.86 61.77 325.38 36.43 325.4 36.44 323.88 61.77"/><path class="cls-13" d="M323.89,61.78h0l1.53-25.36h0Zm0,0,1.52-25.31Z"/><polygon class="cls-13" points="322.89 61.69 322.87 61.69 324.39 36.36 324.41 36.36 322.89 61.69"/><path class="cls-13" d="M322.9,61.71h0l1.52-25.35h0Zm0,0,.41-6.81Z"/><polygon class="cls-13" points="321.89 61.62 321.87 61.62 323.4 36.29 323.42 36.29 321.89 61.62"/><path class="cls-13" d="M321.9,61.63h0l1.53-25.35h0Zm1.51-25.33L323,43.22Z"/><polygon class="cls-13" points="320.9 61.55 320.88 61.55 322.4 36.21 322.42 36.22 320.9 61.55"/><path class="cls-13" d="M320.91,61.56h0L322.4,36.2h0Zm0,0,1.52-25.32Z"/><polygon class="cls-13" points="319.91 61.47 319.89 61.47 321.41 36.14 321.43 36.14 319.91 61.47"/><path class="cls-13" d="M319.92,61.48h0l1.52-25.35h0Zm0,0,1.52-25.31Z"/><polygon class="cls-13" points="318.91 61.4 318.89 61.4 320.42 36.07 320.44 36.07 318.91 61.4"/><path class="cls-13" d="M318.92,61.41h0l1.53-25.36h0Zm1.51-25.33L320,42.89Z"/><polygon class="cls-13" points="317.92 61.33 317.9 61.33 319.43 35.99 319.44 35.99 317.92 61.33"/><path class="cls-13" d="M317.93,61.34h0L319.42,36h0Zm0,0L319.43,36Z"/><polygon class="cls-13" points="316.93 61.25 316.91 61.25 318.43 35.92 318.45 35.92 316.93 61.25"/><path class="cls-13" d="M316.94,61.26h0l1.52-25.35h0Zm0,0,1.52-25.31Z"/><polygon class="cls-13" points="315.94 61.18 315.92 61.18 317.44 35.85 317.46 35.85 315.94 61.18"/><path class="cls-13" d="M315.94,61.19h0l1.53-25.36h0Zm1.51-25.33-.54,9Z"/><polygon class="cls-13" points="314.94 61.11 314.92 61.1 316.45 35.77 316.46 35.77 314.94 61.11"/><path class="cls-13" d="M315,61.12h0l1.53-25.35h0Zm0,0,.54-9Z"/><polygon class="cls-13" points="313.95 61.03 313.93 61.03 315.45 35.7 315.47 35.7 313.95 61.03"/><path class="cls-13" d="M314,61h0l1.52-25.35h0Zm0,0,1.52-25.31Z"/><polygon class="cls-13" points="312.95 60.96 312.94 60.96 314.46 35.63 314.48 35.63 312.95 60.96"/><path class="cls-13" d="M313,61h0l1.52-25.36h0Zm1.51-25.33-.42,6.92Z"/><polygon class="cls-13" points="311.96 60.89 311.94 60.88 313.47 35.55 313.49 35.55 311.96 60.89"/><path class="cls-13" d="M312,60.9h0l1.53-25.35h0Zm0,0,.41-6.81Z"/><polygon class="cls-13" points="310.97 60.81 310.95 60.81 312.47 35.48 312.49 35.48 310.97 60.81"/><path class="cls-13" d="M311,60.82h0l1.52-25.35h0Zm0,0,1.52-25.31Z"/><polygon class="cls-13" points="309.98 60.74 309.96 60.74 311.48 35.41 311.5 35.41 309.98 60.74"/><path class="cls-13" d="M310,60.75h0l1.52-25.36h0Zm1.51-25.33-.55,9.06Z"/><polygon class="cls-13" points="308.98 60.66 308.96 60.66 310.49 35.33 310.51 35.33 308.98 60.66"/><path class="cls-13" d="M309,60.68h0l1.53-25.35h0Zm0,0,.42-6.92Z"/><polygon class="cls-13" points="307.99 60.59 307.97 60.59 309.49 35.26 309.51 35.26 307.99 60.59"/><path class="cls-13" d="M308,60.6h0l1.52-25.35h0Zm0,0,1.52-25.31Z"/><polygon class="cls-13" points="307 60.52 306.98 60.52 308.5 35.19 308.52 35.19 307 60.52"/><path class="cls-13" d="M307,60.53h0l1.52-25.36h0Zm1.51-25.33L308.1,42Z"/><polygon class="cls-13" points="306 60.45 305.98 60.44 307.51 35.11 307.53 35.11 306 60.45"/><path class="cls-13" d="M306,60.46h0L307.5,35.1h0Zm0,0,.42-6.92Z"/><polygon class="cls-13" points="328.84 62.15 305.99 60.45 305.99 60.43 328.84 62.12 328.84 62.15"/><path class="cls-13" d="M328.85,62.16h0L306,60.46v0h0l22.86,1.69ZM306,60.44l3,.23-3-.23Z"/><polygon class="cls-13" points="328.9 61.04 306.06 59.35 306.06 59.33 328.9 61.02 328.9 61.04"/><path class="cls-13" d="M328.91,61.05l-22.86-1.69v0h0L328.91,61Zm-22.84-1.71L328.89,61h0l-22.82-1.69Z"/><polygon class="cls-13" points="328.97 59.94 306.12 58.25 306.13 58.23 328.97 59.92 328.97 59.94"/><path class="cls-13" d="M329,60h0l-22.86-1.69v0h0L329,59.91Zm-22.85-1.71L329,59.93h0l-22.83-1.69Z"/><polygon class="cls-13" points="329.04 58.84 306.19 57.15 306.19 57.13 329.04 58.82 329.04 58.84"/><path class="cls-13" d="M329,58.85h0l-22.85-1.69v0h0l22.86,1.69ZM306.2,57.14,329,58.83h0L306.2,57.14Z"/><polygon class="cls-13" points="329.1 57.74 306.26 56.05 306.26 56.03 329.1 57.72 329.1 57.74"/><path class="cls-13" d="M329.11,57.75h0l-22.85-1.69v0l22.86,1.69ZM306.27,56l22.82,1.69h0L306.27,56Z"/><polygon class="cls-13" points="329.17 56.64 306.32 54.95 306.32 54.93 329.17 56.62 329.17 56.64"/><path class="cls-13" d="M329.18,56.65h0L306.31,55v-.05h0l22.85,1.69Zm-22.85-1.71,22.83,1.69h0l-22.83-1.69Z"/><polygon class="cls-13" points="329.23 55.54 306.39 53.85 306.39 53.83 329.24 55.52 329.23 55.54"/><path class="cls-13" d="M329.24,55.55h0l-22.85-1.69v0h0l22.86,1.69ZM306.4,53.84l3,.22-3-.22Z"/><polygon class="cls-13" points="329.3 54.44 306.46 52.74 306.46 52.72 329.3 54.41 329.3 54.44"/><path class="cls-13" d="M329.31,54.45h0l-22.85-1.69v0l22.86,1.69Zm-3.16-.26,3.14.23h0Z"/><polygon class="cls-13" points="329.37 53.33 306.52 51.64 306.52 51.62 329.37 53.31 329.37 53.33"/><path class="cls-13" d="M329.38,53.35h0l-22.86-1.69v0h0l22.86,1.69Zm-22.85-1.72,22.83,1.69h0l-22.83-1.69Z"/><polygon class="cls-13" points="329.43 52.23 306.59 50.54 306.59 50.52 329.43 52.21 329.43 52.23"/><path class="cls-13" d="M329.44,52.24l-22.86-1.69v0h0l22.85,1.69ZM306.6,50.53l22.82,1.69h0L306.6,50.53Z"/><polygon class="cls-13" points="329.5 51.13 306.65 49.44 306.66 49.42 329.5 51.11 329.5 51.13"/><path class="cls-13" d="M329.51,51.14h0l-22.86-1.69v0h0l22.85,1.69Zm-22.85-1.71,22.83,1.69h0l-22.83-1.69Z"/><polygon class="cls-13" points="329.56 50.03 306.72 48.34 306.72 48.32 329.57 50.01 329.56 50.03"/><path class="cls-13" d="M329.57,50h0l-22.85-1.69v0h0L329.58,50Zm-22.84-1.71L329.56,50h0l-22.83-1.69Z"/><polygon class="cls-13" points="329.63 48.93 306.79 47.24 306.79 47.22 329.63 48.91 329.63 48.93"/><path class="cls-13" d="M329.64,48.94h0l-22.85-1.69v0l22.86,1.69ZM306.8,47.23l3.67.27-3.67-.27Z"/><polygon class="cls-13" points="329.7 47.83 306.85 46.14 306.85 46.12 329.7 47.8 329.7 47.83"/><path class="cls-13" d="M329.71,47.84h0l-22.86-1.69v0h0l22.85,1.69Zm-3.06-.25,3,.23h0Z"/><polygon class="cls-13" points="329.76 46.73 306.92 45.03 306.92 45.01 329.76 46.7 329.76 46.73"/><path class="cls-13" d="M329.77,46.74h0l-22.85-1.69v0h0l22.86,1.69ZM306.93,45l22.82,1.68h0L306.93,45Z"/><polygon class="cls-13" points="329.83 45.62 306.99 43.93 306.99 43.91 329.83 45.6 329.83 45.62"/><path class="cls-13" d="M329.84,45.64h0L307,43.94v0l22.86,1.69ZM307,43.92l22.82,1.69h0L307,43.92Z"/><polygon class="cls-13" points="329.9 44.52 307.05 42.83 307.05 42.81 329.9 44.5 329.9 44.52"/><path class="cls-13" d="M329.91,44.53h0L307,42.84v0h0l22.86,1.69Zm-22.85-1.71,22.83,1.69h0l-22.83-1.69Z"/><polygon class="cls-13" points="329.96 43.42 307.12 41.73 307.12 41.71 329.96 43.4 329.96 43.42"/><path class="cls-13" d="M330,43.43h0l-22.85-1.69v0h0L330,43.39Zm-22.84-1.71L330,43.41h0l-22.82-1.69Z"/><polygon class="cls-13" points="330.03 42.32 307.18 40.63 307.19 40.61 330.03 42.3 330.03 42.32"/><path class="cls-13" d="M330,42.33h0l-22.86-1.69v0h0L330,42.29Zm-22.85-1.71,3,.22-3-.22Z"/><polygon class="cls-13" points="330.1 41.22 307.25 39.53 307.25 39.51 330.1 41.2 330.1 41.22"/><path class="cls-13" d="M330.1,41.23h0l-22.85-1.69v0h0l22.86,1.69ZM327.05,41l3,.23h0Z"/><polygon class="cls-13" points="330.16 40.12 307.32 38.43 307.32 38.41 330.16 40.09 330.16 40.12"/><path class="cls-13" d="M330.17,40.13l-22.86-1.69v0l22.86,1.7Zm-22.84-1.71,22.82,1.69h0l-22.82-1.69Z"/><polygon class="cls-13" points="330.23 39.02 307.38 37.33 307.38 37.3 330.23 38.99 330.23 39.02"/><path class="cls-13" d="M330.24,39h0l-22.86-1.69v-.05h0L330.24,39Zm-22.85-1.71L330.22,39h0l-22.83-1.68Z"/><polygon class="cls-13" points="330.29 37.91 307.45 36.22 307.45 36.2 330.3 37.89 330.29 37.91"/><path class="cls-13" d="M330.3,37.93h0l-22.85-1.69v0h0l22.86,1.69Zm-22.84-1.72,22.82,1.69h0l-22.82-1.69Z"/><polygon class="cls-13" points="330.36 36.81 307.52 35.12 307.52 35.1 330.36 36.79 330.36 36.81"/><path class="cls-13" d="M330.37,36.82l-22.86-1.69v0l22.86,1.69Zm-22.84-1.71,22.82,1.69h0l-22.82-1.69Z"/><path class="cls-14" d="M323.21,35.7c0-.32,0-.64,0-1a2.56,2.56,0,0,1,0-.39l-7.5-.35a3.74,3.74,0,0,1,0,.82c0,.6,0,1.19-.05,1.79l7.47.35A9,9,0,0,1,323.21,35.7Z"/><polygon class="cls-2" points="497.15 28.57 474.31 26.88 475.83 1.55 498.67 3.23 497.15 28.57"/><polygon class="cls-3" points="496.84 28.13 473.99 26.44 475.52 1.11 498.36 2.8 496.84 28.13"/><polygon class="cls-13" points="496.85 28.13 496.83 28.13 498.35 2.8 498.37 2.8 496.85 28.13"/><path class="cls-13" d="M496.86,28.15h0l1.52-25.35h0Zm0,0,.41-6.92Z"/><polygon class="cls-13" points="495.85 28.06 495.83 28.06 497.36 2.73 497.38 2.73 495.85 28.06"/><path class="cls-13" d="M495.86,28.07h0l1.53-25.35h0Zm0,0,1.53-25.31Z"/><polygon class="cls-13" points="494.86 27.99 494.84 27.99 496.36 2.65 496.38 2.66 494.86 27.99"/><path class="cls-13" d="M494.87,28h0l1.53-25.36h0Zm0,0,1.52-25.31Z"/><polygon class="cls-13" points="493.87 27.91 493.85 27.91 495.37 2.58 495.39 2.58 493.87 27.91"/><path class="cls-13" d="M493.88,27.93h0l1.52-25.35h0Zm0,0,.61-10.12Z"/><polygon class="cls-13" points="492.87 27.84 492.85 27.84 494.38 2.51 494.4 2.51 492.87 27.84"/><path class="cls-13" d="M492.88,27.85h0L494.37,2.5h0Zm1.51-25.33L494,9.44Z"/><polygon class="cls-13" points="491.88 27.77 491.86 27.77 493.38 2.43 493.4 2.44 491.88 27.77"/><path class="cls-13" d="M491.89,27.78h0l1.53-25.36h0Zm0,0,1.52-25.31Z"/><polygon class="cls-13" points="490.89 27.69 490.87 27.69 492.39 2.36 492.41 2.36 490.89 27.69"/><path class="cls-13" d="M490.9,27.71h0l1.52-25.35h0Zm0,0,.41-6.81Z"/><polygon class="cls-13" points="489.89 27.62 489.87 27.62 491.4 2.29 491.42 2.29 489.89 27.62"/><path class="cls-13" d="M489.9,27.63h0l1.53-25.35h0ZM491.41,2.3,491,9.22Z"/><polygon class="cls-13" points="488.9 27.55 488.88 27.55 490.4 2.21 490.42 2.21 488.9 27.55"/><path class="cls-13" d="M488.91,27.56h0L490.4,2.2h0Zm0,0,1.52-25.32Z"/><polygon class="cls-13" points="487.91 27.47 487.89 27.47 489.41 2.14 489.43 2.14 487.91 27.47"/><path class="cls-13" d="M487.92,27.48h0L489.4,2.13h0Zm0,0,1.52-25.31Z"/><polygon class="cls-13" points="486.91 27.4 486.89 27.4 488.42 2.07 488.44 2.07 486.91 27.4"/><path class="cls-13" d="M486.92,27.41h0l1.53-25.36h0Zm1.51-25.33L488,8.89Z"/><polygon class="cls-13" points="485.92 27.33 485.9 27.32 487.43 1.99 487.44 1.99 485.92 27.33"/><path class="cls-13" d="M485.93,27.34h0L487.42,2h0Zm0,0L487.43,2Z"/><polygon class="cls-13" points="484.93 27.25 484.91 27.25 486.43 1.92 486.45 1.92 484.93 27.25"/><path class="cls-13" d="M484.94,27.26h0l1.52-25.35h0Zm0,0,1.52-25.31Z"/><polygon class="cls-13" points="483.94 27.18 483.92 27.18 485.44 1.85 485.46 1.85 483.94 27.18"/><path class="cls-13" d="M483.94,27.19h0l1.53-25.36h0Zm1.51-25.33-.54,9Z"/><polygon class="cls-13" points="482.94 27.11 482.92 27.11 484.45 1.77 484.46 1.77 482.94 27.11"/><path class="cls-13" d="M483,27.12h0l1.53-25.35h0Zm0,0,.54-9Z"/><polygon class="cls-13" points="481.95 27.03 481.93 27.03 483.45 1.7 483.47 1.7 481.95 27.03"/><path class="cls-13" d="M482,27h0l1.52-25.35h0Zm0,0,1.52-25.31Z"/><polygon class="cls-13" points="480.95 26.96 480.94 26.96 482.46 1.63 482.48 1.63 480.95 26.96"/><path class="cls-13" d="M481,27h0l1.52-25.36h0Zm1.51-25.33-.42,6.92Z"/><polygon class="cls-13" points="479.96 26.89 479.94 26.88 481.47 1.55 481.49 1.55 479.96 26.89"/><path class="cls-13" d="M480,26.9h0l1.53-25.35h0Zm0,0,.41-6.81Z"/><polygon class="cls-13" points="478.97 26.81 478.95 26.81 480.47 1.48 480.49 1.48 478.97 26.81"/><path class="cls-13" d="M479,26.82h0l1.52-25.35h0Zm0,0,1.52-25.31Z"/><polygon class="cls-13" points="477.98 26.74 477.96 26.74 479.48 1.41 479.5 1.41 477.98 26.74"/><path class="cls-13" d="M478,26.75h0l1.52-25.36h0Zm1.51-25.33-.55,9.06Z"/><polygon class="cls-13" points="476.98 26.66 476.96 26.66 478.49 1.33 478.51 1.33 476.98 26.66"/><path class="cls-13" d="M477,26.68h0l1.53-25.35h0Zm0,0,.42-6.92Z"/><polygon class="cls-13" points="475.99 26.59 475.97 26.59 477.49 1.26 477.51 1.26 475.99 26.59"/><path class="cls-13" d="M476,26.6h0l1.52-25.35h0Zm0,0L477.5,1.27Z"/><polygon class="cls-13" points="475 26.52 474.98 26.52 476.5 1.19 476.52 1.19 475 26.52"/><path class="cls-13" d="M475,26.53h0l1.52-25.36h0ZM476.51,1.2,476.1,8Z"/><polygon class="cls-13" points="474 26.45 473.98 26.44 475.51 1.11 475.53 1.11 474 26.45"/><path class="cls-13" d="M474,26.46h0L475.5,1.1h0Zm0,0,.42-6.92Z"/><polygon class="cls-13" points="496.84 28.14 473.99 26.45 473.99 26.43 496.84 28.12 496.84 28.14"/><path class="cls-13" d="M496.85,28.16h0L474,26.46v0h0l22.86,1.69ZM474,26.44l3,.23-3-.23Z"/><polygon class="cls-13" points="496.9 27.04 474.06 25.35 474.06 25.33 496.9 27.02 496.9 27.04"/><path class="cls-13" d="M496.91,27.05l-22.86-1.69v0h0L496.91,27Zm-22.84-1.71L496.89,27h0l-22.82-1.69Z"/><polygon class="cls-13" points="496.97 25.94 474.12 24.25 474.13 24.23 496.97 25.92 496.97 25.94"/><path class="cls-13" d="M497,26h0l-22.86-1.69v0h0L497,25.91Zm-22.85-1.71L497,25.93h0l-22.83-1.69Z"/><polygon class="cls-13" points="497.04 24.84 474.19 23.15 474.19 23.13 497.04 24.82 497.04 24.84"/><path class="cls-13" d="M497,24.85h0l-22.85-1.69v0h0l22.86,1.69ZM474.2,23.14,497,24.83h0L474.2,23.14Z"/><polygon class="cls-13" points="497.1 23.74 474.26 22.05 474.26 22.03 497.1 23.72 497.1 23.74"/><path class="cls-13" d="M497.11,23.75h0l-22.85-1.69v0l22.86,1.69ZM474.27,22l22.82,1.69h0L474.27,22Z"/><polygon class="cls-13" points="497.17 22.64 474.32 20.95 474.32 20.93 497.17 22.62 497.17 22.64"/><path class="cls-13" d="M497.18,22.65h0L474.31,21v-.05h0l22.85,1.69Zm-22.85-1.71,22.83,1.69h0l-22.83-1.69Z"/><polygon class="cls-13" points="497.23 21.54 474.39 19.85 474.39 19.82 497.24 21.52 497.23 21.54"/><path class="cls-13" d="M497.24,21.55h0l-22.85-1.69v-.05h0l22.86,1.69ZM474.4,19.84l3,.22-3-.22Z"/><polygon class="cls-13" points="497.3 20.43 474.46 18.75 474.46 18.72 497.3 20.41 497.3 20.43"/><path class="cls-13" d="M497.31,20.45h0l-22.85-1.69v-.05l22.86,1.69Zm-3.16-.26,3.14.23h0Z"/><polygon class="cls-13" points="497.37 19.33 474.52 17.64 474.52 17.62 497.37 19.31 497.37 19.33"/><path class="cls-13" d="M497.38,19.35h0l-22.86-1.69v0h0l22.86,1.69Zm-22.85-1.72,22.83,1.69h0l-22.83-1.69Z"/><polygon class="cls-13" points="497.43 18.23 474.59 16.54 474.59 16.52 497.43 18.21 497.43 18.23"/><path class="cls-13" d="M497.44,18.24l-22.86-1.69v0h0l22.85,1.69ZM474.6,16.53l22.82,1.69h0L474.6,16.53Z"/><polygon class="cls-13" points="497.5 17.13 474.65 15.44 474.66 15.42 497.5 17.11 497.5 17.13"/><path class="cls-13" d="M497.51,17.14h0l-22.86-1.69v0h0l22.85,1.69Zm-22.85-1.71,22.83,1.69h0l-22.83-1.69Z"/><polygon class="cls-13" points="497.56 16.03 474.72 14.34 474.72 14.32 497.57 16.01 497.56 16.03"/><path class="cls-13" d="M497.57,16h0l-22.85-1.69v0h0L497.58,16Zm-22.84-1.71L497.56,16h0l-22.83-1.69Z"/><polygon class="cls-13" points="497.63 14.93 474.79 13.24 474.79 13.22 497.63 14.91 497.63 14.93"/><path class="cls-13" d="M497.64,14.94h0l-22.85-1.69v0l22.86,1.69ZM474.8,13.23l3.67.27-3.67-.27Z"/><polygon class="cls-13" points="497.7 13.83 474.85 12.14 474.85 12.12 497.7 13.8 497.7 13.83"/><path class="cls-13" d="M497.71,13.84h0l-22.86-1.69V12.1h0l22.85,1.69Zm-3.06-.25,3,.23h0Z"/><polygon class="cls-13" points="497.76 12.72 474.92 11.04 474.92 11.01 497.76 12.7 497.76 12.72"/><path class="cls-13" d="M497.77,12.74h0l-22.85-1.69V11h0l22.86,1.69ZM474.93,11l22.82,1.68h0L474.93,11Z"/><polygon class="cls-13" points="497.83 11.62 474.99 9.93 474.99 9.91 497.83 11.6 497.83 11.62"/><path class="cls-13" d="M497.84,11.64h0L475,9.94v0l22.86,1.69ZM475,9.92l22.82,1.69h0L475,9.92Z"/><polygon class="cls-13" points="497.9 10.52 475.05 8.83 475.05 8.81 497.9 10.5 497.9 10.52"/><path class="cls-13" d="M497.91,10.53h0L475,8.84v0h0l22.86,1.69ZM475.06,8.82l22.83,1.69h0L475.06,8.82Z"/><polygon class="cls-13" points="497.96 9.42 475.12 7.73 475.12 7.71 497.96 9.4 497.96 9.42"/><path class="cls-13" d="M498,9.43h0L475.11,7.74v0h0L498,9.39ZM475.13,7.72,498,9.41h0L475.13,7.72Z"/><polygon class="cls-13" points="498.03 8.32 475.18 6.63 475.19 6.61 498.03 8.3 498.03 8.32"/><path class="cls-13" d="M498,8.33h0L475.17,6.64v0h0L498,8.29ZM475.19,6.62l3,.22-3-.22Z"/><polygon class="cls-13" points="498.1 7.22 475.25 5.53 475.25 5.51 498.1 7.2 498.1 7.22"/><path class="cls-13" d="M498.1,7.23h0L475.24,5.54v0h0l22.86,1.69ZM495.05,7l3,.23h0Z"/><polygon class="cls-13" points="498.16 6.12 475.32 4.43 475.32 4.41 498.16 6.09 498.16 6.12"/><path class="cls-13" d="M498.17,6.13,475.31,4.44V4.39l22.86,1.7ZM475.33,4.42l22.82,1.69h0L475.33,4.42Z"/><polygon class="cls-13" points="498.23 5.01 475.38 3.33 475.38 3.3 498.23 4.99 498.23 5.01"/><path class="cls-13" d="M498.24,5h0L475.37,3.34v0h0L498.24,5ZM475.39,3.32,498.22,5h0L475.39,3.32Z"/><polygon class="cls-13" points="498.29 3.91 475.45 2.22 475.45 2.2 498.3 3.89 498.29 3.91"/><path class="cls-13" d="M498.3,3.93h0L475.44,2.23v0h0l22.86,1.69ZM475.46,2.21,498.28,3.9h0L475.46,2.21Z"/><polygon class="cls-13" points="498.36 2.81 475.52 1.12 475.52 1.1 498.36 2.79 498.36 2.81"/><path class="cls-13" d="M498.37,2.82,475.51,1.13v0l22.86,1.69ZM475.53,1.11,498.35,2.8h0L475.53,1.11Z"/><path class="cls-14" d="M491.21,1.7c0-.32,0-.64,0-1a2.56,2.56,0,0,1,0-.39L483.72,0a3.74,3.74,0,0,1,0,.82c0,.6,0,1.19-.05,1.79l7.47.35A9,9,0,0,1,491.21,1.7Z"/><path class="cls-2" d="M59.88,81,88,82.25,89.25,54,61.1,52.8Zm3-8.19A.89.89,0,1,1,62,72,.89.89,0,0,1,62.91,72.84Zm.51-11.78a.89.89,0,1,1-.89-.9A.89.89,0,0,1,63.42,61.06Z"/><path class="cls-3" d="M59.39,80.55l28.16,1.22,1.22-28.23L60.62,52.32Zm3-8.19a.89.89,0,1,1-.89-.89A.89.89,0,0,1,62.43,72.36Zm.51-11.79a.89.89,0,1,1-.89-.89A.89.89,0,0,1,62.94,60.57Z"/><path class="cls-15" d="M59.39,80.55,63,80.7,64.2,52.47l-3.58-.15Zm3-8.19a.89.89,0,1,1-.89-.89A.89.89,0,0,1,62.43,72.36Zm.51-11.79a.89.89,0,1,1-.89-.89A.89.89,0,0,1,62.94,60.57Z"/></g></g></g></svg>